<svg xmlns="http://www.w3.org/2000/svg" viewBox="0 0 48 76" shape-rendering="crispEdges" width="48" height="76">
<rect x="32" y="0" width="2" height="1" fill="#030302"/>
<rect x="31" y="1" width="1" height="1" fill="#030302"/>
<rect x="32" y="1" width="2" height="1" fill="#5d2408"/>
<rect x="34" y="1" width="1" height="1" fill="#030302"/>
<rect x="36" y="1" width="3" height="1" fill="#030302"/>
<rect x="41" y="1" width="2" height="1" fill="#030302"/>
<rect x="28" y="2" width="3" height="1" fill="#030302"/>
<rect x="31" y="2" width="1" height="1" fill="#5d2408"/>
<rect x="32" y="2" width="2" height="1" fill="#a45308"/>
<rect x="34" y="2" width="2" height="1" fill="#030302"/>
<rect x="36" y="2" width="1" height="1" fill="#5d2408"/>
<rect x="37" y="2" width="1" height="1" fill="#a45308"/>
<rect x="38" y="2" width="2" height="1" fill="#030302"/>
<rect x="40" y="2" width="1" height="1" fill="#5d2408"/>
<rect x="41" y="2" width="1" height="1" fill="#a45308"/>
<rect x="42" y="2" width="1" height="1" fill="#030302"/>
<rect x="26" y="3" width="2" height="1" fill="#030302"/>
<rect x="28" y="3" width="2" height="1" fill="#5d2408"/>
<rect x="30" y="3" width="1" height="1" fill="#030302"/>
<rect x="31" y="3" width="1" height="1" fill="#c96703"/>
<rect x="32" y="3" width="1" height="1" fill="#a45308"/>
<rect x="33" y="3" width="2" height="1" fill="#030302"/>
<rect x="35" y="3" width="1" height="1" fill="#5d2408"/>
<rect x="36" y="3" width="1" height="1" fill="#c96703"/>
<rect x="37" y="3" width="1" height="1" fill="#a45308"/>
<rect x="38" y="3" width="2" height="1" fill="#030302"/>
<rect x="40" y="3" width="1" height="1" fill="#a45308"/>
<rect x="41" y="3" width="1" height="1" fill="#c96703"/>
<rect x="42" y="3" width="1" height="1" fill="#5d2408"/>
<rect x="24" y="4" width="3" height="1" fill="#030302"/>
<rect x="27" y="4" width="2" height="1" fill="#5d2408"/>
<rect x="29" y="4" width="1" height="1" fill="#a45308"/>
<rect x="30" y="4" width="1" height="1" fill="#c96703"/>
<rect x="31" y="4" width="1" height="1" fill="#a45308"/>
<rect x="32" y="4" width="2" height="1" fill="#5d2408"/>
<rect x="34" y="4" width="3" height="1" fill="#a45308"/>
<rect x="37" y="4" width="2" height="1" fill="#5d2408"/>
<rect x="39" y="4" width="1" height="1" fill="#a45308"/>
<rect x="40" y="4" width="1" height="1" fill="#c96703"/>
<rect x="41" y="4" width="1" height="1" fill="#a45308"/>
<rect x="42" y="4" width="1" height="1" fill="#030302"/>
<rect x="23" y="5" width="2" height="1" fill="#030302"/>
<rect x="25" y="5" width="2" height="1" fill="#5d2408"/>
<rect x="27" y="5" width="1" height="1" fill="#a45308"/>
<rect x="28" y="5" width="2" height="1" fill="#c96703"/>
<rect x="30" y="5" width="1" height="1" fill="#030302"/>
<rect x="31" y="5" width="2" height="1" fill="#5d2408"/>
<rect x="33" y="5" width="1" height="1" fill="#a45308"/>
<rect x="34" y="5" width="1" height="1" fill="#c96703"/>
<rect x="35" y="5" width="2" height="1" fill="#5d2408"/>
<rect x="37" y="5" width="1" height="1" fill="#030302"/>
<rect x="38" y="5" width="1" height="1" fill="#a45308"/>
<rect x="39" y="5" width="1" height="1" fill="#ea9029"/>
<rect x="40" y="5" width="1" height="1" fill="#c96703"/>
<rect x="41" y="5" width="3" height="1" fill="#5d2408"/>
<rect x="23" y="6" width="1" height="1" fill="#030302"/>
<rect x="24" y="6" width="1" height="1" fill="#5d2408"/>
<rect x="25" y="6" width="4" height="1" fill="#a45308"/>
<rect x="29" y="6" width="2" height="1" fill="#5d2408"/>
<rect x="31" y="6" width="3" height="1" fill="#a45308"/>
<rect x="34" y="6" width="3" height="1" fill="#5d2408"/>
<rect x="37" y="6" width="2" height="1" fill="#c96703"/>
<rect x="39" y="6" width="4" height="1" fill="#a45308"/>
<rect x="43" y="6" width="1" height="1" fill="#5d2408"/>
<rect x="44" y="6" width="1" height="1" fill="#030302"/>
<rect x="22" y="7" width="3" height="1" fill="#030302"/>
<rect x="25" y="7" width="4" height="1" fill="#5d2408"/>
<rect x="29" y="7" width="1" height="1" fill="#030302"/>
<rect x="30" y="7" width="6" height="1" fill="#5d2408"/>
<rect x="36" y="7" width="1" height="1" fill="#c96703"/>
<rect x="37" y="7" width="1" height="1" fill="#a45308"/>
<rect x="38" y="7" width="1" height="1" fill="#030302"/>
<rect x="39" y="7" width="1" height="1" fill="#5d2408"/>
<rect x="40" y="7" width="1" height="1" fill="#a45308"/>
<rect x="41" y="7" width="1" height="1" fill="#c96703"/>
<rect x="42" y="7" width="1" height="1" fill="#5d2408"/>
<rect x="43" y="7" width="1" height="1" fill="#030302"/>
<rect x="21" y="8" width="1" height="1" fill="#030302"/>
<rect x="22" y="8" width="14" height="1" fill="#5d2408"/>
<rect x="36" y="8" width="2" height="1" fill="#a45308"/>
<rect x="38" y="8" width="1" height="1" fill="#5d2408"/>
<rect x="39" y="8" width="2" height="1" fill="#a45308"/>
<rect x="41" y="8" width="1" height="1" fill="#5d2408"/>
<rect x="42" y="8" width="1" height="1" fill="#030302"/>
<rect x="21" y="9" width="1" height="1" fill="#030302"/>
<rect x="22" y="9" width="1" height="1" fill="#a45308"/>
<rect x="23" y="9" width="2" height="1" fill="#5d2408"/>
<rect x="25" y="9" width="3" height="1" fill="#a45308"/>
<rect x="28" y="9" width="3" height="1" fill="#c96703"/>
<rect x="31" y="9" width="4" height="1" fill="#a45308"/>
<rect x="35" y="9" width="3" height="1" fill="#5d2408"/>
<rect x="38" y="9" width="2" height="1" fill="#a45308"/>
<rect x="40" y="9" width="1" height="1" fill="#5d2408"/>
<rect x="41" y="9" width="1" height="1" fill="#030302"/>
<rect x="20" y="10" width="1" height="1" fill="#030302"/>
<rect x="21" y="10" width="3" height="1" fill="#5d2408"/>
<rect x="24" y="10" width="1" height="1" fill="#a45308"/>
<rect x="25" y="10" width="4" height="1" fill="#c96703"/>
<rect x="29" y="10" width="3" height="1" fill="#ea9029"/>
<rect x="32" y="10" width="1" height="1" fill="#c96703"/>
<rect x="33" y="10" width="2" height="1" fill="#ea9029"/>
<rect x="35" y="10" width="1" height="1" fill="#a45308"/>
<rect x="36" y="10" width="2" height="1" fill="#5d2408"/>
<rect x="38" y="10" width="3" height="1" fill="#030302"/>
<rect x="20" y="11" width="2" height="1" fill="#030302"/>
<rect x="22" y="11" width="1" height="1" fill="#5d2408"/>
<rect x="23" y="11" width="2" height="1" fill="#a45308"/>
<rect x="25" y="11" width="3" height="1" fill="#c96703"/>
<rect x="28" y="11" width="1" height="1" fill="#a45308"/>
<rect x="29" y="11" width="1" height="1" fill="#c96703"/>
<rect x="30" y="11" width="4" height="1" fill="#ea9029"/>
<rect x="34" y="11" width="1" height="1" fill="#030302"/>
<rect x="35" y="11" width="2" height="1" fill="#f5b158"/>
<rect x="37" y="11" width="1" height="1" fill="#ea9029"/>
<rect x="38" y="11" width="1" height="1" fill="#5d2408"/>
<rect x="39" y="11" width="1" height="1" fill="#030302"/>
<rect x="20" y="12" width="1" height="1" fill="#030302"/>
<rect x="21" y="12" width="2" height="1" fill="#5d2408"/>
<rect x="23" y="12" width="3" height="1" fill="#a45308"/>
<rect x="26" y="12" width="1" height="1" fill="#c96703"/>
<rect x="27" y="12" width="1" height="1" fill="#a45308"/>
<rect x="28" y="12" width="3" height="1" fill="#c96703"/>
<rect x="31" y="12" width="1" height="1" fill="#ea9029"/>
<rect x="32" y="12" width="7" height="1" fill="#f5b158"/>
<rect x="39" y="12" width="1" height="1" fill="#ea9029"/>
<rect x="40" y="12" width="1" height="1" fill="#030302"/>
<rect x="20" y="13" width="1" height="1" fill="#030302"/>
<rect x="21" y="13" width="1" height="1" fill="#5d2408"/>
<rect x="22" y="13" width="1" height="1" fill="#030302"/>
<rect x="23" y="13" width="3" height="1" fill="#a45308"/>
<rect x="26" y="13" width="3" height="1" fill="#c96703"/>
<rect x="29" y="13" width="1" height="1" fill="#a45308"/>
<rect x="30" y="13" width="1" height="1" fill="#c96703"/>
<rect x="31" y="13" width="1" height="1" fill="#ea9029"/>
<rect x="32" y="13" width="8" height="1" fill="#f5b158"/>
<rect x="40" y="13" width="1" height="1" fill="#030302"/>
<rect x="20" y="14" width="1" height="1" fill="#030302"/>
<rect x="21" y="14" width="1" height="1" fill="#5d2408"/>
<rect x="22" y="14" width="2" height="1" fill="#a45308"/>
<rect x="24" y="14" width="5" height="1" fill="#c96703"/>
<rect x="29" y="14" width="1" height="1" fill="#a45308"/>
<rect x="30" y="14" width="1" height="1" fill="#c96703"/>
<rect x="31" y="14" width="1" height="1" fill="#ea9029"/>
<rect x="32" y="14" width="8" height="1" fill="#f5b158"/>
<rect x="40" y="14" width="1" height="1" fill="#030302"/>
<rect x="20" y="15" width="2" height="1" fill="#030302"/>
<rect x="22" y="15" width="2" height="1" fill="#a45308"/>
<rect x="24" y="15" width="2" height="1" fill="#c96703"/>
<rect x="26" y="15" width="1" height="1" fill="#a45308"/>
<rect x="27" y="15" width="4" height="1" fill="#c96703"/>
<rect x="31" y="15" width="1" height="1" fill="#ea9029"/>
<rect x="32" y="15" width="1" height="1" fill="#030302"/>
<rect x="33" y="15" width="1" height="1" fill="#ea9029"/>
<rect x="34" y="15" width="2" height="1" fill="#5d2408"/>
<rect x="36" y="15" width="1" height="1" fill="#a45308"/>
<rect x="37" y="15" width="3" height="1" fill="#f5b158"/>
<rect x="40" y="15" width="1" height="1" fill="#ea9029"/>
<rect x="41" y="15" width="1" height="1" fill="#030302"/>
<rect x="20" y="16" width="1" height="1" fill="#030302"/>
<rect x="21" y="16" width="1" height="1" fill="#5d2408"/>
<rect x="22" y="16" width="2" height="1" fill="#a45308"/>
<rect x="24" y="16" width="5" height="1" fill="#c96703"/>
<rect x="29" y="16" width="1" height="1" fill="#a45308"/>
<rect x="30" y="16" width="1" height="1" fill="#ea9029"/>
<rect x="31" y="16" width="3" height="1" fill="#f5b158"/>
<rect x="34" y="16" width="2" height="1" fill="#a45308"/>
<rect x="36" y="16" width="3" height="1" fill="#5d2408"/>
<rect x="39" y="16" width="2" height="1" fill="#f5b158"/>
<rect x="41" y="16" width="1" height="1" fill="#030302"/>
<rect x="20" y="17" width="1" height="1" fill="#030302"/>
<rect x="21" y="17" width="1" height="1" fill="#5d2408"/>
<rect x="22" y="17" width="4" height="1" fill="#a45308"/>
<rect x="26" y="17" width="1" height="1" fill="#5d2408"/>
<rect x="27" y="17" width="1" height="1" fill="#030302"/>
<rect x="28" y="17" width="1" height="1" fill="#a45308"/>
<rect x="29" y="17" width="1" height="1" fill="#c96703"/>
<rect x="30" y="17" width="1" height="1" fill="#ea9029"/>
<rect x="31" y="17" width="1" height="1" fill="#f5b158"/>
<rect x="32" y="17" width="6" height="1" fill="#030302"/>
<rect x="38" y="17" width="1" height="1" fill="#a45308"/>
<rect x="39" y="17" width="1" height="1" fill="#f5b158"/>
<rect x="40" y="17" width="1" height="1" fill="#ea9029"/>
<rect x="41" y="17" width="1" height="1" fill="#030302"/>
<rect x="20" y="18" width="2" height="1" fill="#030302"/>
<rect x="22" y="18" width="3" height="1" fill="#a45308"/>
<rect x="25" y="18" width="1" height="1" fill="#030302"/>
<rect x="26" y="18" width="1" height="1" fill="#a45308"/>
<rect x="27" y="18" width="3" height="1" fill="#030302"/>
<rect x="30" y="18" width="1" height="1" fill="#ea9029"/>
<rect x="31" y="18" width="3" height="1" fill="#f5b158"/>
<rect x="34" y="18" width="3" height="1" fill="#a5a3a2"/>
<rect x="37" y="18" width="1" height="1" fill="#030302"/>
<rect x="38" y="18" width="1" height="1" fill="#ea9029"/>
<rect x="39" y="18" width="1" height="1" fill="#f5b158"/>
<rect x="40" y="18" width="1" height="1" fill="#5d2408"/>
<rect x="21" y="19" width="2" height="1" fill="#030302"/>
<rect x="23" y="19" width="2" height="1" fill="#a45308"/>
<rect x="25" y="19" width="1" height="1" fill="#030302"/>
<rect x="26" y="19" width="1" height="1" fill="#f5b158"/>
<rect x="27" y="19" width="1" height="1" fill="#ea9029"/>
<rect x="28" y="19" width="2" height="1" fill="#a45308"/>
<rect x="30" y="19" width="1" height="1" fill="#ea9029"/>
<rect x="31" y="19" width="1" height="1" fill="#030302"/>
<rect x="32" y="19" width="1" height="1" fill="#f5b158"/>
<rect x="33" y="19" width="1" height="1" fill="#f8d9a1"/>
<rect x="34" y="19" width="2" height="1" fill="#edebe7"/>
<rect x="36" y="19" width="2" height="1" fill="#030302"/>
<rect x="38" y="19" width="1" height="1" fill="#ea9029"/>
<rect x="39" y="19" width="1" height="1" fill="#f5b158"/>
<rect x="40" y="19" width="1" height="1" fill="#030302"/>
<rect x="21" y="20" width="3" height="1" fill="#030302"/>
<rect x="24" y="20" width="1" height="1" fill="#a45308"/>
<rect x="25" y="20" width="1" height="1" fill="#030302"/>
<rect x="26" y="20" width="1" height="1" fill="#f5b158"/>
<rect x="27" y="20" width="1" height="1" fill="#a45308"/>
<rect x="28" y="20" width="2" height="1" fill="#ea9029"/>
<rect x="30" y="20" width="3" height="1" fill="#f5b158"/>
<rect x="33" y="20" width="1" height="1" fill="#f8d9a1"/>
<rect x="34" y="20" width="2" height="1" fill="#edebe7"/>
<rect x="36" y="20" width="2" height="1" fill="#030302"/>
<rect x="38" y="20" width="2" height="1" fill="#f5b158"/>
<rect x="40" y="20" width="1" height="1" fill="#030302"/>
<rect x="22" y="21" width="4" height="1" fill="#030302"/>
<rect x="26" y="21" width="1" height="1" fill="#f5b158"/>
<rect x="27" y="21" width="1" height="1" fill="#ea9029"/>
<rect x="28" y="21" width="5" height="1" fill="#f5b158"/>
<rect x="33" y="21" width="1" height="1" fill="#f8d9a1"/>
<rect x="34" y="21" width="2" height="1" fill="#edebe7"/>
<rect x="36" y="21" width="2" height="1" fill="#030302"/>
<rect x="38" y="21" width="2" height="1" fill="#f5b158"/>
<rect x="40" y="21" width="1" height="1" fill="#a45308"/>
<rect x="41" y="21" width="1" height="1" fill="#030302"/>
<rect x="22" y="22" width="1" height="1" fill="#030302"/>
<rect x="23" y="22" width="1" height="1" fill="#5d2408"/>
<rect x="24" y="22" width="2" height="1" fill="#030302"/>
<rect x="26" y="22" width="1" height="1" fill="#a45308"/>
<rect x="27" y="22" width="1" height="1" fill="#f5b158"/>
<rect x="28" y="22" width="1" height="1" fill="#c96703"/>
<rect x="29" y="22" width="1" height="1" fill="#ea9029"/>
<rect x="30" y="22" width="3" height="1" fill="#f5b158"/>
<rect x="33" y="22" width="1" height="1" fill="#f8d9a1"/>
<rect x="34" y="22" width="1" height="1" fill="#edebe7"/>
<rect x="35" y="22" width="1" height="1" fill="#f8d9a1"/>
<rect x="36" y="22" width="2" height="1" fill="#030302"/>
<rect x="38" y="22" width="2" height="1" fill="#f5b158"/>
<rect x="40" y="22" width="1" height="1" fill="#030302"/>
<rect x="41" y="22" width="1" height="1" fill="#5d2408"/>
<rect x="23" y="23" width="1" height="1" fill="#030302"/>
<rect x="24" y="23" width="2" height="1" fill="#5d2408"/>
<rect x="26" y="23" width="1" height="1" fill="#030302"/>
<rect x="27" y="23" width="1" height="1" fill="#f5b158"/>
<rect x="28" y="23" width="1" height="1" fill="#ea9029"/>
<rect x="29" y="23" width="7" height="1" fill="#f5b158"/>
<rect x="36" y="23" width="2" height="1" fill="#030302"/>
<rect x="38" y="23" width="3" height="1" fill="#f5b158"/>
<rect x="41" y="23" width="1" height="1" fill="#030302"/>
<rect x="24" y="24" width="1" height="1" fill="#030302"/>
<rect x="25" y="24" width="1" height="1" fill="#5d2408"/>
<rect x="26" y="24" width="1" height="1" fill="#030302"/>
<rect x="27" y="24" width="1" height="1" fill="#c96703"/>
<rect x="28" y="24" width="12" height="1" fill="#f5b158"/>
<rect x="40" y="24" width="1" height="1" fill="#030302"/>
<rect x="25" y="25" width="2" height="1" fill="#030302"/>
<rect x="27" y="25" width="1" height="1" fill="#a45308"/>
<rect x="28" y="25" width="1" height="1" fill="#ea9029"/>
<rect x="29" y="25" width="8" height="1" fill="#f5b158"/>
<rect x="37" y="25" width="3" height="1" fill="#a45308"/>
<rect x="40" y="25" width="1" height="1" fill="#030302"/>
<rect x="24" y="26" width="5" height="1" fill="#030302"/>
<rect x="29" y="26" width="1" height="1" fill="#a45308"/>
<rect x="30" y="26" width="3" height="1" fill="#f5b158"/>
<rect x="33" y="26" width="1" height="1" fill="#030302"/>
<rect x="34" y="26" width="4" height="1" fill="#f5b158"/>
<rect x="38" y="26" width="1" height="1" fill="#ea9029"/>
<rect x="39" y="26" width="1" height="1" fill="#030302"/>
<rect x="23" y="27" width="8" height="1" fill="#030302"/>
<rect x="31" y="27" width="1" height="1" fill="#5d2408"/>
<rect x="32" y="27" width="2" height="1" fill="#a45308"/>
<rect x="34" y="27" width="4" height="1" fill="#f5b158"/>
<rect x="38" y="27" width="1" height="1" fill="#030302"/>
<rect x="20" y="28" width="4" height="1" fill="#030302"/>
<rect x="24" y="28" width="1" height="1" fill="#165b01"/>
<rect x="25" y="28" width="2" height="1" fill="#2c8d01"/>
<rect x="27" y="28" width="1" height="1" fill="#165b01"/>
<rect x="28" y="28" width="10" height="1" fill="#030302"/>
<rect x="19" y="29" width="3" height="1" fill="#030302"/>
<rect x="22" y="29" width="3" height="1" fill="#165b01"/>
<rect x="25" y="29" width="3" height="1" fill="#2c8d01"/>
<rect x="28" y="29" width="2" height="1" fill="#165b01"/>
<rect x="30" y="29" width="7" height="1" fill="#030302"/>
<rect x="18" y="30" width="3" height="1" fill="#030302"/>
<rect x="21" y="30" width="2" height="1" fill="#165b01"/>
<rect x="23" y="30" width="5" height="1" fill="#2c8d01"/>
<rect x="28" y="30" width="2" height="1" fill="#165b01"/>
<rect x="30" y="30" width="7" height="1" fill="#030302"/>
<rect x="16" y="31" width="3" height="1" fill="#030302"/>
<rect x="19" y="31" width="2" height="1" fill="#165b01"/>
<rect x="21" y="31" width="7" height="1" fill="#2c8d01"/>
<rect x="28" y="31" width="4" height="1" fill="#165b01"/>
<rect x="32" y="31" width="7" height="1" fill="#030302"/>
<rect x="16" y="32" width="2" height="1" fill="#030302"/>
<rect x="18" y="32" width="2" height="1" fill="#165b01"/>
<rect x="20" y="32" width="7" height="1" fill="#2c8d01"/>
<rect x="27" y="32" width="3" height="1" fill="#165b01"/>
<rect x="30" y="32" width="2" height="1" fill="#2c8d01"/>
<rect x="32" y="32" width="1" height="1" fill="#165b01"/>
<rect x="33" y="32" width="3" height="1" fill="#030302"/>
<rect x="36" y="32" width="1" height="1" fill="#165b01"/>
<rect x="37" y="32" width="2" height="1" fill="#030302"/>
<rect x="14" y="33" width="3" height="1" fill="#030302"/>
<rect x="17" y="33" width="1" height="1" fill="#165b01"/>
<rect x="18" y="33" width="7" height="1" fill="#2c8d01"/>
<rect x="25" y="33" width="1" height="1" fill="#165b01"/>
<rect x="26" y="33" width="1" height="1" fill="#030302"/>
<rect x="27" y="33" width="4" height="1" fill="#165b01"/>
<rect x="31" y="33" width="5" height="1" fill="#2c8d01"/>
<rect x="36" y="33" width="1" height="1" fill="#165b01"/>
<rect x="37" y="33" width="2" height="1" fill="#030302"/>
<rect x="14" y="34" width="2" height="1" fill="#030302"/>
<rect x="16" y="34" width="3" height="1" fill="#165b01"/>
<rect x="19" y="34" width="4" height="1" fill="#2c8d01"/>
<rect x="23" y="34" width="2" height="1" fill="#165b01"/>
<rect x="25" y="34" width="2" height="1" fill="#030302"/>
<rect x="27" y="34" width="4" height="1" fill="#165b01"/>
<rect x="31" y="34" width="4" height="1" fill="#2c8d01"/>
<rect x="35" y="34" width="2" height="1" fill="#165b01"/>
<rect x="37" y="34" width="2" height="1" fill="#030302"/>
<rect x="13" y="35" width="1" height="1" fill="#030302"/>
<rect x="14" y="35" width="1" height="1" fill="#a45308"/>
<rect x="15" y="35" width="3" height="1" fill="#f5b158"/>
<rect x="18" y="35" width="1" height="1" fill="#030302"/>
<rect x="19" y="35" width="1" height="1" fill="#165b01"/>
<rect x="20" y="35" width="1" height="1" fill="#2c8d01"/>
<rect x="21" y="35" width="3" height="1" fill="#165b01"/>
<rect x="24" y="35" width="4" height="1" fill="#030302"/>
<rect x="28" y="35" width="3" height="1" fill="#165b01"/>
<rect x="31" y="35" width="4" height="1" fill="#2c8d01"/>
<rect x="35" y="35" width="2" height="1" fill="#165b01"/>
<rect x="37" y="35" width="2" height="1" fill="#030302"/>
<rect x="12" y="36" width="2" height="1" fill="#5d2408"/>
<rect x="14" y="36" width="1" height="1" fill="#f5b158"/>
<rect x="15" y="36" width="1" height="1" fill="#030302"/>
<rect x="16" y="36" width="1" height="1" fill="#f8d9a1"/>
<rect x="17" y="36" width="1" height="1" fill="#f5b158"/>
<rect x="18" y="36" width="1" height="1" fill="#030302"/>
<rect x="19" y="36" width="4" height="1" fill="#165b01"/>
<rect x="23" y="36" width="5" height="1" fill="#030302"/>
<rect x="28" y="36" width="2" height="1" fill="#165b01"/>
<rect x="30" y="36" width="5" height="1" fill="#2c8d01"/>
<rect x="35" y="36" width="2" height="1" fill="#165b01"/>
<rect x="37" y="36" width="2" height="1" fill="#030302"/>
<rect x="11" y="37" width="1" height="1" fill="#030302"/>
<rect x="12" y="37" width="1" height="1" fill="#a45308"/>
<rect x="13" y="37" width="1" height="1" fill="#f5b158"/>
<rect x="14" y="37" width="4" height="1" fill="#f8d9a1"/>
<rect x="18" y="37" width="9" height="1" fill="#030302"/>
<rect x="27" y="37" width="3" height="1" fill="#165b01"/>
<rect x="30" y="37" width="5" height="1" fill="#2c8d01"/>
<rect x="35" y="37" width="1" height="1" fill="#165b01"/>
<rect x="36" y="37" width="3" height="1" fill="#030302"/>
<rect x="11" y="38" width="2" height="1" fill="#030302"/>
<rect x="13" y="38" width="1" height="1" fill="#f5b158"/>
<rect x="14" y="38" width="2" height="1" fill="#f8d9a1"/>
<rect x="16" y="38" width="9" height="1" fill="#030302"/>
<rect x="25" y="38" width="4" height="1" fill="#165b01"/>
<rect x="29" y="38" width="5" height="1" fill="#2c8d01"/>
<rect x="34" y="38" width="2" height="1" fill="#165b01"/>
<rect x="36" y="38" width="3" height="1" fill="#030302"/>
<rect x="11" y="39" width="2" height="1" fill="#030302"/>
<rect x="13" y="39" width="1" height="1" fill="#f5b158"/>
<rect x="14" y="39" width="2" height="1" fill="#f8d9a1"/>
<rect x="16" y="39" width="9" height="1" fill="#030302"/>
<rect x="25" y="39" width="4" height="1" fill="#165b01"/>
<rect x="29" y="39" width="5" height="1" fill="#2c8d01"/>
<rect x="34" y="39" width="1" height="1" fill="#165b01"/>
<rect x="35" y="39" width="2" height="1" fill="#030302"/>
<rect x="11" y="40" width="2" height="1" fill="#030302"/>
<rect x="13" y="40" width="1" height="1" fill="#ea9029"/>
<rect x="14" y="40" width="2" height="1" fill="#030302"/>
<rect x="16" y="40" width="5" height="1" fill="#62019c"/>
<rect x="21" y="40" width="4" height="1" fill="#030302"/>
<rect x="25" y="40" width="4" height="1" fill="#165b01"/>
<rect x="29" y="40" width="3" height="1" fill="#2c8d01"/>
<rect x="32" y="40" width="3" height="1" fill="#165b01"/>
<rect x="35" y="40" width="7" height="1" fill="#030302"/>
<rect x="11" y="41" width="1" height="1" fill="#030302"/>
<rect x="12" y="41" width="1" height="1" fill="#5d2408"/>
<rect x="13" y="41" width="1" height="1" fill="#ea9029"/>
<rect x="14" y="41" width="1" height="1" fill="#5d2408"/>
<rect x="15" y="41" width="1" height="1" fill="#030302"/>
<rect x="16" y="41" width="1" height="1" fill="#62019c"/>
<rect x="17" y="41" width="2" height="1" fill="#8600d3"/>
<rect x="19" y="41" width="1" height="1" fill="#030302"/>
<rect x="20" y="41" width="1" height="1" fill="#62019c"/>
<rect x="21" y="41" width="4" height="1" fill="#030302"/>
<rect x="25" y="41" width="4" height="1" fill="#165b01"/>
<rect x="29" y="41" width="3" height="1" fill="#2c8d01"/>
<rect x="32" y="41" width="2" height="1" fill="#165b01"/>
<rect x="34" y="41" width="9" height="1" fill="#030302"/>
<rect x="12" y="42" width="3" height="1" fill="#030302"/>
<rect x="15" y="42" width="1" height="1" fill="#62019c"/>
<rect x="16" y="42" width="1" height="1" fill="#030302"/>
<rect x="17" y="42" width="5" height="1" fill="#8600d3"/>
<rect x="22" y="42" width="1" height="1" fill="#030302"/>
<rect x="23" y="42" width="2" height="1" fill="#62019c"/>
<rect x="25" y="42" width="2" height="1" fill="#030302"/>
<rect x="27" y="42" width="2" height="1" fill="#165b01"/>
<rect x="29" y="42" width="3" height="1" fill="#2c8d01"/>
<rect x="32" y="42" width="2" height="1" fill="#165b01"/>
<rect x="34" y="42" width="4" height="1" fill="#030302"/>
<rect x="38" y="42" width="3" height="1" fill="#62019c"/>
<rect x="41" y="42" width="1" height="1" fill="#030302"/>
<rect x="42" y="42" width="1" height="1" fill="#62019c"/>
<rect x="43" y="42" width="1" height="1" fill="#030302"/>
<rect x="13" y="43" width="2" height="1" fill="#030302"/>
<rect x="15" y="43" width="1" height="1" fill="#62019c"/>
<rect x="16" y="43" width="2" height="1" fill="#030302"/>
<rect x="18" y="43" width="5" height="1" fill="#8600d3"/>
<rect x="23" y="43" width="1" height="1" fill="#030302"/>
<rect x="24" y="43" width="1" height="1" fill="#62019c"/>
<rect x="25" y="43" width="2" height="1" fill="#030302"/>
<rect x="27" y="43" width="2" height="1" fill="#165b01"/>
<rect x="29" y="43" width="3" height="1" fill="#2c8d01"/>
<rect x="32" y="43" width="1" height="1" fill="#165b01"/>
<rect x="33" y="43" width="5" height="1" fill="#030302"/>
<rect x="38" y="43" width="3" height="1" fill="#62019c"/>
<rect x="41" y="43" width="1" height="1" fill="#030302"/>
<rect x="42" y="43" width="1" height="1" fill="#62019c"/>
<rect x="43" y="43" width="2" height="1" fill="#030302"/>
<rect x="12" y="44" width="3" height="1" fill="#030302"/>
<rect x="15" y="44" width="3" height="1" fill="#62019c"/>
<rect x="18" y="44" width="7" height="1" fill="#8600d3"/>
<rect x="25" y="44" width="2" height="1" fill="#030302"/>
<rect x="27" y="44" width="2" height="1" fill="#165b01"/>
<rect x="29" y="44" width="1" height="1" fill="#2c8d01"/>
<rect x="30" y="44" width="2" height="1" fill="#165b01"/>
<rect x="32" y="44" width="4" height="1" fill="#030302"/>
<rect x="36" y="44" width="1" height="1" fill="#62019c"/>
<rect x="37" y="44" width="4" height="1" fill="#030302"/>
<rect x="41" y="44" width="3" height="1" fill="#62019c"/>
<rect x="44" y="44" width="2" height="1" fill="#030302"/>
<rect x="13" y="45" width="3" height="1" fill="#030302"/>
<rect x="16" y="45" width="2" height="1" fill="#62019c"/>
<rect x="18" y="45" width="6" height="1" fill="#8600d3"/>
<rect x="24" y="45" width="1" height="1" fill="#62019c"/>
<rect x="25" y="45" width="2" height="1" fill="#030302"/>
<rect x="27" y="45" width="5" height="1" fill="#165b01"/>
<rect x="32" y="45" width="4" height="1" fill="#030302"/>
<rect x="36" y="45" width="1" height="1" fill="#62019c"/>
<rect x="37" y="45" width="4" height="1" fill="#030302"/>
<rect x="41" y="45" width="3" height="1" fill="#62019c"/>
<rect x="44" y="45" width="2" height="1" fill="#030302"/>
<rect x="14" y="46" width="2" height="1" fill="#030302"/>
<rect x="16" y="46" width="2" height="1" fill="#62019c"/>
<rect x="18" y="46" width="5" height="1" fill="#8600d3"/>
<rect x="23" y="46" width="2" height="1" fill="#62019c"/>
<rect x="25" y="46" width="2" height="1" fill="#030302"/>
<rect x="27" y="46" width="5" height="1" fill="#165b01"/>
<rect x="32" y="46" width="2" height="1" fill="#030302"/>
<rect x="34" y="46" width="3" height="1" fill="#62019c"/>
<rect x="37" y="46" width="3" height="1" fill="#030302"/>
<rect x="40" y="46" width="4" height="1" fill="#62019c"/>
<rect x="44" y="46" width="2" height="1" fill="#030302"/>
<rect x="14" y="47" width="2" height="1" fill="#030302"/>
<rect x="16" y="47" width="2" height="1" fill="#62019c"/>
<rect x="18" y="47" width="2" height="1" fill="#030302"/>
<rect x="20" y="47" width="2" height="1" fill="#8600d3"/>
<rect x="22" y="47" width="2" height="1" fill="#62019c"/>
<rect x="24" y="47" width="10" height="1" fill="#030302"/>
<rect x="34" y="47" width="3" height="1" fill="#62019c"/>
<rect x="37" y="47" width="3" height="1" fill="#030302"/>
<rect x="40" y="47" width="4" height="1" fill="#62019c"/>
<rect x="44" y="47" width="2" height="1" fill="#030302"/>
<rect x="14" y="48" width="2" height="1" fill="#030302"/>
<rect x="16" y="48" width="4" height="1" fill="#62019c"/>
<rect x="20" y="48" width="1" height="1" fill="#8600d3"/>
<rect x="21" y="48" width="3" height="1" fill="#62019c"/>
<rect x="24" y="48" width="12" height="1" fill="#030302"/>
<rect x="36" y="48" width="1" height="1" fill="#62019c"/>
<rect x="37" y="48" width="3" height="1" fill="#030302"/>
<rect x="40" y="48" width="4" height="1" fill="#62019c"/>
<rect x="44" y="48" width="2" height="1" fill="#030302"/>
<rect x="14" y="49" width="4" height="1" fill="#030302"/>
<rect x="18" y="49" width="5" height="1" fill="#62019c"/>
<rect x="23" y="49" width="2" height="1" fill="#030302"/>
<rect x="25" y="49" width="2" height="1" fill="#af014e"/>
<rect x="27" y="49" width="4" height="1" fill="#da0468"/>
<rect x="31" y="49" width="1" height="1" fill="#af014e"/>
<rect x="32" y="49" width="9" height="1" fill="#030302"/>
<rect x="41" y="49" width="1" height="1" fill="#62019c"/>
<rect x="42" y="49" width="3" height="1" fill="#030302"/>
<rect x="16" y="50" width="4" height="1" fill="#030302"/>
<rect x="20" y="50" width="1" height="1" fill="#62019c"/>
<rect x="21" y="50" width="4" height="1" fill="#030302"/>
<rect x="25" y="50" width="2" height="1" fill="#da0468"/>
<rect x="27" y="50" width="3" height="1" fill="#fd0c83"/>
<rect x="30" y="50" width="2" height="1" fill="#da0468"/>
<rect x="32" y="50" width="6" height="1" fill="#030302"/>
<rect x="38" y="50" width="1" height="1" fill="#62019c"/>
<rect x="39" y="50" width="2" height="1" fill="#030302"/>
<rect x="41" y="50" width="1" height="1" fill="#62019c"/>
<rect x="42" y="50" width="2" height="1" fill="#030302"/>
<rect x="14" y="51" width="9" height="1" fill="#030302"/>
<rect x="23" y="51" width="1" height="1" fill="#af014e"/>
<rect x="24" y="51" width="2" height="1" fill="#da0468"/>
<rect x="26" y="51" width="4" height="1" fill="#fd0c83"/>
<rect x="30" y="51" width="2" height="1" fill="#da0468"/>
<rect x="32" y="51" width="2" height="1" fill="#af014e"/>
<rect x="34" y="51" width="2" height="1" fill="#030302"/>
<rect x="37" y="51" width="6" height="1" fill="#030302"/>
<rect x="14" y="52" width="9" height="1" fill="#030302"/>
<rect x="23" y="52" width="1" height="1" fill="#af014e"/>
<rect x="24" y="52" width="2" height="1" fill="#da0468"/>
<rect x="26" y="52" width="6" height="1" fill="#fd0c83"/>
<rect x="32" y="52" width="2" height="1" fill="#da0468"/>
<rect x="34" y="52" width="2" height="1" fill="#030302"/>
<rect x="37" y="52" width="6" height="1" fill="#030302"/>
<rect x="14" y="53" width="2" height="1" fill="#030302"/>
<rect x="16" y="53" width="1" height="1" fill="#af014e"/>
<rect x="17" y="53" width="1" height="1" fill="#da0468"/>
<rect x="18" y="53" width="5" height="1" fill="#af014e"/>
<rect x="23" y="53" width="3" height="1" fill="#da0468"/>
<rect x="26" y="53" width="7" height="1" fill="#fd0c83"/>
<rect x="33" y="53" width="1" height="1" fill="#da0468"/>
<rect x="34" y="53" width="2" height="1" fill="#030302"/>
<rect x="13" y="54" width="3" height="1" fill="#030302"/>
<rect x="16" y="54" width="3" height="1" fill="#da0468"/>
<rect x="19" y="54" width="1" height="1" fill="#af014e"/>
<rect x="20" y="54" width="1" height="1" fill="#5d2408"/>
<rect x="21" y="54" width="1" height="1" fill="#030302"/>
<rect x="22" y="54" width="2" height="1" fill="#af014e"/>
<rect x="24" y="54" width="5" height="1" fill="#da0468"/>
<rect x="29" y="54" width="2" height="1" fill="#fd0c83"/>
<rect x="31" y="54" width="1" height="1" fill="#da0468"/>
<rect x="32" y="54" width="1" height="1" fill="#af014e"/>
<rect x="33" y="54" width="1" height="1" fill="#5d2408"/>
<rect x="34" y="54" width="2" height="1" fill="#030302"/>
<rect x="12" y="55" width="4" height="1" fill="#030302"/>
<rect x="16" y="55" width="1" height="1" fill="#da0468"/>
<rect x="17" y="55" width="1" height="1" fill="#fd0c83"/>
<rect x="18" y="55" width="1" height="1" fill="#da0468"/>
<rect x="19" y="55" width="2" height="1" fill="#030302"/>
<rect x="21" y="55" width="1" height="1" fill="#5d2408"/>
<rect x="22" y="55" width="1" height="1" fill="#030302"/>
<rect x="23" y="55" width="1" height="1" fill="#af014e"/>
<rect x="24" y="55" width="1" height="1" fill="#da0468"/>
<rect x="25" y="55" width="1" height="1" fill="#af014e"/>
<rect x="26" y="55" width="3" height="1" fill="#da0468"/>
<rect x="29" y="55" width="3" height="1" fill="#fd0c83"/>
<rect x="32" y="55" width="4" height="1" fill="#030302"/>
<rect x="12" y="56" width="4" height="1" fill="#030302"/>
<rect x="16" y="56" width="2" height="1" fill="#5d2408"/>
<rect x="18" y="56" width="2" height="1" fill="#da0468"/>
<rect x="20" y="56" width="1" height="1" fill="#af014e"/>
<rect x="21" y="56" width="1" height="1" fill="#5d2408"/>
<rect x="22" y="56" width="1" height="1" fill="#030302"/>
<rect x="23" y="56" width="1" height="1" fill="#5d2408"/>
<rect x="24" y="56" width="1" height="1" fill="#af014e"/>
<rect x="25" y="56" width="5" height="1" fill="#da0468"/>
<rect x="30" y="56" width="2" height="1" fill="#5d2408"/>
<rect x="32" y="56" width="5" height="1" fill="#030302"/>
<rect x="12" y="57" width="2" height="1" fill="#030302"/>
<rect x="14" y="57" width="1" height="1" fill="#f5b158"/>
<rect x="15" y="57" width="3" height="1" fill="#030302"/>
<rect x="18" y="57" width="3" height="1" fill="#da0468"/>
<rect x="21" y="57" width="1" height="1" fill="#5d2408"/>
<rect x="22" y="57" width="1" height="1" fill="#030302"/>
<rect x="23" y="57" width="1" height="1" fill="#5d2408"/>
<rect x="24" y="57" width="1" height="1" fill="#030302"/>
<rect x="25" y="57" width="5" height="1" fill="#af014e"/>
<rect x="30" y="57" width="2" height="1" fill="#030302"/>
<rect x="32" y="57" width="1" height="1" fill="#f5b158"/>
<rect x="33" y="57" width="1" height="1" fill="#f8d9a1"/>
<rect x="34" y="57" width="4" height="1" fill="#030302"/>
<rect x="4" y="58" width="8" height="1" fill="#030302"/>
<rect x="12" y="58" width="1" height="1" fill="#5d2408"/>
<rect x="13" y="58" width="1" height="1" fill="#a45308"/>
<rect x="14" y="58" width="1" height="1" fill="#030302"/>
<rect x="15" y="58" width="1" height="1" fill="#f8d9a1"/>
<rect x="16" y="58" width="2" height="1" fill="#f5b158"/>
<rect x="18" y="58" width="1" height="1" fill="#030302"/>
<rect x="19" y="58" width="1" height="1" fill="#5d2408"/>
<rect x="20" y="58" width="1" height="1" fill="#da0468"/>
<rect x="21" y="58" width="2" height="1" fill="#af014e"/>
<rect x="23" y="58" width="7" height="1" fill="#030302"/>
<rect x="30" y="58" width="1" height="1" fill="#a45308"/>
<rect x="31" y="58" width="2" height="1" fill="#f5b158"/>
<rect x="33" y="58" width="3" height="1" fill="#f8d9a1"/>
<rect x="36" y="58" width="1" height="1" fill="#f5b158"/>
<rect x="37" y="58" width="2" height="1" fill="#030302"/>
<rect x="3" y="59" width="9" height="1" fill="#030302"/>
<rect x="12" y="59" width="1" height="1" fill="#a45308"/>
<rect x="13" y="59" width="1" height="1" fill="#ea9029"/>
<rect x="14" y="59" width="2" height="1" fill="#f8d9a1"/>
<rect x="16" y="59" width="2" height="1" fill="#f5b158"/>
<rect x="18" y="59" width="1" height="1" fill="#030302"/>
<rect x="19" y="59" width="1" height="1" fill="#5d2408"/>
<rect x="20" y="59" width="3" height="1" fill="#af014e"/>
<rect x="23" y="59" width="7" height="1" fill="#030302"/>
<rect x="30" y="59" width="1" height="1" fill="#a45308"/>
<rect x="31" y="59" width="2" height="1" fill="#f5b158"/>
<rect x="33" y="59" width="3" height="1" fill="#f8d9a1"/>
<rect x="36" y="59" width="3" height="1" fill="#030302"/>
<rect x="2" y="60" width="2" height="1" fill="#030302"/>
<rect x="4" y="60" width="1" height="1" fill="#edebe7"/>
<rect x="5" y="60" width="2" height="1" fill="#a5a3a2"/>
<rect x="7" y="60" width="4" height="1" fill="#030302"/>
<rect x="11" y="60" width="1" height="1" fill="#edebe7"/>
<rect x="12" y="60" width="4" height="1" fill="#f8d9a1"/>
<rect x="16" y="60" width="2" height="1" fill="#f5b158"/>
<rect x="18" y="60" width="1" height="1" fill="#ea9029"/>
<rect x="19" y="60" width="1" height="1" fill="#a45308"/>
<rect x="20" y="60" width="3" height="1" fill="#030302"/>
<rect x="28" y="60" width="2" height="1" fill="#030302"/>
<rect x="30" y="60" width="1" height="1" fill="#a45308"/>
<rect x="31" y="60" width="2" height="1" fill="#f5b158"/>
<rect x="33" y="60" width="1" height="1" fill="#030302"/>
<rect x="34" y="60" width="2" height="1" fill="#f8d9a1"/>
<rect x="36" y="60" width="1" height="1" fill="#edebe7"/>
<rect x="37" y="60" width="2" height="1" fill="#030302"/>
<rect x="2" y="61" width="2" height="1" fill="#030302"/>
<rect x="4" y="61" width="1" height="1" fill="#edebe7"/>
<rect x="5" y="61" width="2" height="1" fill="#a5a3a2"/>
<rect x="7" y="61" width="2" height="1" fill="#030302"/>
<rect x="9" y="61" width="1" height="1" fill="#165b01"/>
<rect x="10" y="61" width="1" height="1" fill="#030302"/>
<rect x="11" y="61" width="5" height="1" fill="#f8d9a1"/>
<rect x="16" y="61" width="2" height="1" fill="#f5b158"/>
<rect x="18" y="61" width="1" height="1" fill="#a45308"/>
<rect x="19" y="61" width="4" height="1" fill="#030302"/>
<rect x="29" y="61" width="2" height="1" fill="#030302"/>
<rect x="31" y="61" width="1" height="1" fill="#a45308"/>
<rect x="32" y="61" width="2" height="1" fill="#f5b158"/>
<rect x="34" y="61" width="2" height="1" fill="#f8d9a1"/>
<rect x="36" y="61" width="4" height="1" fill="#030302"/>
<rect x="2" y="62" width="2" height="1" fill="#030302"/>
<rect x="4" y="62" width="1" height="1" fill="#edebe7"/>
<rect x="5" y="62" width="1" height="1" fill="#f8d9a1"/>
<rect x="6" y="62" width="1" height="1" fill="#a5a3a2"/>
<rect x="7" y="62" width="2" height="1" fill="#030302"/>
<rect x="9" y="62" width="1" height="1" fill="#2c8d01"/>
<rect x="10" y="62" width="1" height="1" fill="#030302"/>
<rect x="11" y="62" width="1" height="1" fill="#edebe7"/>
<rect x="12" y="62" width="3" height="1" fill="#f8d9a1"/>
<rect x="15" y="62" width="1" height="1" fill="#f5b158"/>
<rect x="16" y="62" width="1" height="1" fill="#ea9029"/>
<rect x="17" y="62" width="1" height="1" fill="#c96703"/>
<rect x="18" y="62" width="2" height="1" fill="#030302"/>
<rect x="30" y="62" width="2" height="1" fill="#030302"/>
<rect x="32" y="62" width="1" height="1" fill="#c96703"/>
<rect x="33" y="62" width="1" height="1" fill="#f5b158"/>
<rect x="34" y="62" width="1" height="1" fill="#edebe7"/>
<rect x="35" y="62" width="1" height="1" fill="#030302"/>
<rect x="36" y="62" width="2" height="1" fill="#165b01"/>
<rect x="38" y="62" width="1" height="1" fill="#2c8d01"/>
<rect x="39" y="62" width="2" height="1" fill="#030302"/>
<rect x="0" y="63" width="3" height="1" fill="#030302"/>
<rect x="3" y="63" width="1" height="1" fill="#a5a3a2"/>
<rect x="4" y="63" width="2" height="1" fill="#edebe7"/>
<rect x="6" y="63" width="1" height="1" fill="#a5a3a2"/>
<rect x="7" y="63" width="2" height="1" fill="#030302"/>
<rect x="9" y="63" width="2" height="1" fill="#165b01"/>
<rect x="11" y="63" width="2" height="1" fill="#030302"/>
<rect x="13" y="63" width="1" height="1" fill="#f8d9a1"/>
<rect x="14" y="63" width="2" height="1" fill="#f5b158"/>
<rect x="16" y="63" width="1" height="1" fill="#030302"/>
<rect x="17" y="63" width="1" height="1" fill="#5d2408"/>
<rect x="18" y="63" width="1" height="1" fill="#030302"/>
<rect x="30" y="63" width="6" height="1" fill="#030302"/>
<rect x="36" y="63" width="2" height="1" fill="#165b01"/>
<rect x="38" y="63" width="1" height="1" fill="#2c8d01"/>
<rect x="39" y="63" width="2" height="1" fill="#030302"/>
<rect x="0" y="64" width="2" height="1" fill="#030302"/>
<rect x="2" y="64" width="1" height="1" fill="#a5a3a2"/>
<rect x="3" y="64" width="3" height="1" fill="#edebe7"/>
<rect x="6" y="64" width="3" height="1" fill="#a5a3a2"/>
<rect x="9" y="64" width="2" height="1" fill="#030302"/>
<rect x="11" y="64" width="1" height="1" fill="#165b01"/>
<rect x="12" y="64" width="1" height="1" fill="#030302"/>
<rect x="13" y="64" width="2" height="1" fill="#f5b158"/>
<rect x="15" y="64" width="1" height="1" fill="#ea9029"/>
<rect x="16" y="64" width="2" height="1" fill="#030302"/>
<rect x="30" y="64" width="5" height="1" fill="#030302"/>
<rect x="35" y="64" width="1" height="1" fill="#165b01"/>
<rect x="36" y="64" width="3" height="1" fill="#2c8d01"/>
<rect x="39" y="64" width="2" height="1" fill="#030302"/>
<rect x="0" y="65" width="2" height="1" fill="#030302"/>
<rect x="2" y="65" width="5" height="1" fill="#edebe7"/>
<rect x="7" y="65" width="6" height="1" fill="#030302"/>
<rect x="13" y="65" width="3" height="1" fill="#5d2408"/>
<rect x="32" y="65" width="2" height="1" fill="#030302"/>
<rect x="34" y="65" width="3" height="1" fill="#165b01"/>
<rect x="37" y="65" width="9" height="1" fill="#030302"/>
<rect x="0" y="66" width="2" height="1" fill="#030302"/>
<rect x="2" y="66" width="5" height="1" fill="#edebe7"/>
<rect x="7" y="66" width="9" height="1" fill="#030302"/>
<rect x="32" y="66" width="2" height="1" fill="#030302"/>
<rect x="34" y="66" width="3" height="1" fill="#165b01"/>
<rect x="37" y="66" width="2" height="1" fill="#030302"/>
<rect x="39" y="66" width="2" height="1" fill="#a5a3a2"/>
<rect x="41" y="66" width="5" height="1" fill="#030302"/>
<rect x="0" y="67" width="2" height="1" fill="#030302"/>
<rect x="2" y="67" width="3" height="1" fill="#edebe7"/>
<rect x="5" y="67" width="4" height="1" fill="#030302"/>
<rect x="32" y="67" width="6" height="1" fill="#030302"/>
<rect x="38" y="67" width="1" height="1" fill="#a5a3a2"/>
<rect x="39" y="67" width="1" height="1" fill="#030302"/>
<rect x="40" y="67" width="6" height="1" fill="#edebe7"/>
<rect x="46" y="67" width="2" height="1" fill="#030302"/>
<rect x="0" y="68" width="2" height="1" fill="#030302"/>
<rect x="2" y="68" width="2" height="1" fill="#edebe7"/>
<rect x="4" y="68" width="1" height="1" fill="#f8d9a1"/>
<rect x="5" y="68" width="4" height="1" fill="#030302"/>
<rect x="32" y="68" width="5" height="1" fill="#030302"/>
<rect x="37" y="68" width="1" height="1" fill="#a5a3a2"/>
<rect x="38" y="68" width="8" height="1" fill="#edebe7"/>
<rect x="46" y="68" width="2" height="1" fill="#030302"/>
<rect x="0" y="69" width="2" height="1" fill="#030302"/>
<rect x="2" y="69" width="1" height="1" fill="#edebe7"/>
<rect x="3" y="69" width="1" height="1" fill="#a5a3a2"/>
<rect x="4" y="69" width="3" height="1" fill="#030302"/>
<rect x="32" y="69" width="3" height="1" fill="#030302"/>
<rect x="35" y="69" width="1" height="1" fill="#a5a3a2"/>
<rect x="36" y="69" width="10" height="1" fill="#edebe7"/>
<rect x="46" y="69" width="2" height="1" fill="#030302"/>
<rect x="0" y="70" width="2" height="1" fill="#030302"/>
<rect x="2" y="70" width="1" height="1" fill="#a5a3a2"/>
<rect x="3" y="70" width="4" height="1" fill="#030302"/>
<rect x="32" y="70" width="2" height="1" fill="#030302"/>
<rect x="34" y="70" width="2" height="1" fill="#a5a3a2"/>
<rect x="36" y="70" width="8" height="1" fill="#edebe7"/>
<rect x="44" y="70" width="2" height="1" fill="#a5a3a2"/>
<rect x="46" y="70" width="2" height="1" fill="#030302"/>
<rect x="2" y="71" width="3" height="1" fill="#030302"/>
<rect x="32" y="71" width="2" height="1" fill="#030302"/>
<rect x="34" y="71" width="9" height="1" fill="#edebe7"/>
<rect x="43" y="71" width="1" height="1" fill="#a5a3a2"/>
<rect x="44" y="71" width="2" height="1" fill="#030302"/>
<rect x="33" y="72" width="1" height="1" fill="#030302"/>
<rect x="34" y="72" width="1" height="1" fill="#5d2408"/>
<rect x="35" y="72" width="1" height="1" fill="#030302"/>
<rect x="36" y="72" width="4" height="1" fill="#edebe7"/>
<rect x="40" y="72" width="1" height="1" fill="#a5a3a2"/>
<rect x="41" y="72" width="2" height="1" fill="#030302"/>
<rect x="43" y="72" width="1" height="1" fill="#5d2408"/>
<rect x="44" y="72" width="1" height="1" fill="#030302"/>
<rect x="34" y="73" width="2" height="1" fill="#030302"/>
<rect x="36" y="73" width="5" height="1" fill="#a5a3a2"/>
<rect x="41" y="73" width="3" height="1" fill="#030302"/>
<rect x="35" y="74" width="6" height="1" fill="#030302"/>
<rect x="36" y="75" width="5" height="1" fill="#030302"/>
</svg>
