<svg xmlns="http://www.w3.org/2000/svg" viewBox="0 0 38 76" shape-rendering="crispEdges" width="38" height="76">
<rect x="26" y="0" width="1" height="1" fill="#030402"/>
<rect x="25" y="1" width="1" height="1" fill="#030402"/>
<rect x="26" y="1" width="1" height="1" fill="#5f210c"/>
<rect x="27" y="1" width="1" height="1" fill="#030402"/>
<rect x="29" y="1" width="4" height="1" fill="#030402"/>
<rect x="34" y="1" width="3" height="1" fill="#030402"/>
<rect x="21" y="2" width="4" height="1" fill="#030402"/>
<rect x="25" y="2" width="2" height="1" fill="#a1550b"/>
<rect x="27" y="2" width="2" height="1" fill="#030402"/>
<rect x="29" y="2" width="1" height="1" fill="#5f210c"/>
<rect x="30" y="2" width="1" height="1" fill="#a1550b"/>
<rect x="31" y="2" width="1" height="1" fill="#5f210c"/>
<rect x="32" y="2" width="2" height="1" fill="#030402"/>
<rect x="34" y="2" width="2" height="1" fill="#5f210c"/>
<rect x="36" y="2" width="1" height="1" fill="#030402"/>
<rect x="19" y="3" width="3" height="1" fill="#030402"/>
<rect x="22" y="3" width="2" height="1" fill="#5f210c"/>
<rect x="24" y="3" width="1" height="1" fill="#a1550b"/>
<rect x="25" y="3" width="1" height="1" fill="#cb6805"/>
<rect x="26" y="3" width="1" height="1" fill="#5f210c"/>
<rect x="27" y="3" width="2" height="1" fill="#030402"/>
<rect x="29" y="3" width="1" height="1" fill="#cb6805"/>
<rect x="30" y="3" width="1" height="1" fill="#a1550b"/>
<rect x="31" y="3" width="1" height="1" fill="#5f210c"/>
<rect x="32" y="3" width="1" height="1" fill="#030402"/>
<rect x="33" y="3" width="1" height="1" fill="#a1550b"/>
<rect x="34" y="3" width="1" height="1" fill="#cb6805"/>
<rect x="35" y="3" width="1" height="1" fill="#a1550b"/>
<rect x="36" y="3" width="1" height="1" fill="#030402"/>
<rect x="17" y="4" width="3" height="1" fill="#030402"/>
<rect x="20" y="4" width="2" height="1" fill="#5f210c"/>
<rect x="22" y="4" width="1" height="1" fill="#a1550b"/>
<rect x="23" y="4" width="1" height="1" fill="#cb6805"/>
<rect x="24" y="4" width="1" height="1" fill="#a1550b"/>
<rect x="25" y="4" width="2" height="1" fill="#5f210c"/>
<rect x="27" y="4" width="3" height="1" fill="#a1550b"/>
<rect x="30" y="4" width="2" height="1" fill="#5f210c"/>
<rect x="32" y="4" width="1" height="1" fill="#a1550b"/>
<rect x="33" y="4" width="2" height="1" fill="#cb6805"/>
<rect x="35" y="4" width="1" height="1" fill="#5f210c"/>
<rect x="36" y="4" width="1" height="1" fill="#030402"/>
<rect x="16" y="5" width="2" height="1" fill="#030402"/>
<rect x="18" y="5" width="2" height="1" fill="#5f210c"/>
<rect x="20" y="5" width="1" height="1" fill="#a1550b"/>
<rect x="21" y="5" width="2" height="1" fill="#cb6805"/>
<rect x="23" y="5" width="1" height="1" fill="#a1550b"/>
<rect x="24" y="5" width="2" height="1" fill="#5f210c"/>
<rect x="26" y="5" width="1" height="1" fill="#a1550b"/>
<rect x="27" y="5" width="1" height="1" fill="#cb6805"/>
<rect x="28" y="5" width="1" height="1" fill="#a1550b"/>
<rect x="29" y="5" width="2" height="1" fill="#5f210c"/>
<rect x="31" y="5" width="1" height="1" fill="#a1550b"/>
<rect x="32" y="5" width="2" height="1" fill="#cb6805"/>
<rect x="34" y="5" width="1" height="1" fill="#a1550b"/>
<rect x="35" y="5" width="1" height="1" fill="#5f210c"/>
<rect x="36" y="5" width="2" height="1" fill="#030402"/>
<rect x="16" y="6" width="1" height="1" fill="#030402"/>
<rect x="17" y="6" width="1" height="1" fill="#5f210c"/>
<rect x="18" y="6" width="4" height="1" fill="#a1550b"/>
<rect x="22" y="6" width="2" height="1" fill="#5f210c"/>
<rect x="24" y="6" width="3" height="1" fill="#a1550b"/>
<rect x="27" y="6" width="1" height="1" fill="#030402"/>
<rect x="28" y="6" width="2" height="1" fill="#5f210c"/>
<rect x="30" y="6" width="1" height="1" fill="#a1550b"/>
<rect x="31" y="6" width="1" height="1" fill="#cb6805"/>
<rect x="32" y="6" width="1" height="1" fill="#a1550b"/>
<rect x="33" y="6" width="1" height="1" fill="#030402"/>
<rect x="34" y="6" width="3" height="1" fill="#a1550b"/>
<rect x="37" y="6" width="1" height="1" fill="#030402"/>
<rect x="15" y="7" width="3" height="1" fill="#030402"/>
<rect x="18" y="7" width="4" height="1" fill="#5f210c"/>
<rect x="22" y="7" width="1" height="1" fill="#030402"/>
<rect x="23" y="7" width="6" height="1" fill="#5f210c"/>
<rect x="29" y="7" width="1" height="1" fill="#a1550b"/>
<rect x="30" y="7" width="1" height="1" fill="#cb6805"/>
<rect x="31" y="7" width="1" height="1" fill="#a1550b"/>
<rect x="32" y="7" width="2" height="1" fill="#5f210c"/>
<rect x="34" y="7" width="1" height="1" fill="#cb6805"/>
<rect x="35" y="7" width="1" height="1" fill="#a1550b"/>
<rect x="36" y="7" width="1" height="1" fill="#5f210c"/>
<rect x="37" y="7" width="1" height="1" fill="#030402"/>
<rect x="14" y="8" width="1" height="1" fill="#030402"/>
<rect x="15" y="8" width="14" height="1" fill="#5f210c"/>
<rect x="29" y="8" width="2" height="1" fill="#a1550b"/>
<rect x="31" y="8" width="1" height="1" fill="#5f210c"/>
<rect x="32" y="8" width="1" height="1" fill="#030402"/>
<rect x="33" y="8" width="1" height="1" fill="#cb6805"/>
<rect x="34" y="8" width="1" height="1" fill="#a1550b"/>
<rect x="35" y="8" width="1" height="1" fill="#5f210c"/>
<rect x="36" y="8" width="1" height="1" fill="#030402"/>
<rect x="14" y="9" width="1" height="1" fill="#030402"/>
<rect x="15" y="9" width="1" height="1" fill="#a1550b"/>
<rect x="16" y="9" width="2" height="1" fill="#5f210c"/>
<rect x="18" y="9" width="3" height="1" fill="#a1550b"/>
<rect x="21" y="9" width="3" height="1" fill="#cb6805"/>
<rect x="24" y="9" width="4" height="1" fill="#a1550b"/>
<rect x="28" y="9" width="3" height="1" fill="#5f210c"/>
<rect x="31" y="9" width="2" height="1" fill="#a1550b"/>
<rect x="33" y="9" width="1" height="1" fill="#5f210c"/>
<rect x="34" y="9" width="2" height="1" fill="#030402"/>
<rect x="13" y="10" width="1" height="1" fill="#030402"/>
<rect x="14" y="10" width="3" height="1" fill="#5f210c"/>
<rect x="17" y="10" width="1" height="1" fill="#a1550b"/>
<rect x="18" y="10" width="4" height="1" fill="#cb6805"/>
<rect x="22" y="10" width="3" height="1" fill="#e98f24"/>
<rect x="25" y="10" width="2" height="1" fill="#cb6805"/>
<rect x="27" y="10" width="1" height="1" fill="#e98f24"/>
<rect x="28" y="10" width="1" height="1" fill="#a1550b"/>
<rect x="29" y="10" width="2" height="1" fill="#5f210c"/>
<rect x="31" y="10" width="1" height="1" fill="#a1550b"/>
<rect x="32" y="10" width="1" height="1" fill="#5f210c"/>
<rect x="33" y="10" width="2" height="1" fill="#030402"/>
<rect x="13" y="11" width="2" height="1" fill="#030402"/>
<rect x="15" y="11" width="1" height="1" fill="#5f210c"/>
<rect x="16" y="11" width="2" height="1" fill="#a1550b"/>
<rect x="18" y="11" width="3" height="1" fill="#cb6805"/>
<rect x="21" y="11" width="1" height="1" fill="#a1550b"/>
<rect x="22" y="11" width="1" height="1" fill="#cb6805"/>
<rect x="23" y="11" width="4" height="1" fill="#e98f24"/>
<rect x="27" y="11" width="3" height="1" fill="#f3b057"/>
<rect x="30" y="11" width="1" height="1" fill="#e98f24"/>
<rect x="31" y="11" width="1" height="1" fill="#a1550b"/>
<rect x="32" y="11" width="2" height="1" fill="#030402"/>
<rect x="13" y="12" width="1" height="1" fill="#030402"/>
<rect x="14" y="12" width="2" height="1" fill="#5f210c"/>
<rect x="16" y="12" width="3" height="1" fill="#a1550b"/>
<rect x="19" y="12" width="5" height="1" fill="#cb6805"/>
<rect x="24" y="12" width="1" height="1" fill="#e98f24"/>
<rect x="25" y="12" width="8" height="1" fill="#f3b057"/>
<rect x="33" y="12" width="2" height="1" fill="#030402"/>
<rect x="13" y="13" width="1" height="1" fill="#030402"/>
<rect x="14" y="13" width="1" height="1" fill="#5f210c"/>
<rect x="15" y="13" width="1" height="1" fill="#030402"/>
<rect x="16" y="13" width="3" height="1" fill="#a1550b"/>
<rect x="19" y="13" width="3" height="1" fill="#cb6805"/>
<rect x="22" y="13" width="1" height="1" fill="#a1550b"/>
<rect x="23" y="13" width="1" height="1" fill="#cb6805"/>
<rect x="24" y="13" width="1" height="1" fill="#e98f24"/>
<rect x="25" y="13" width="7" height="1" fill="#f3b057"/>
<rect x="32" y="13" width="1" height="1" fill="#fec468"/>
<rect x="33" y="13" width="1" height="1" fill="#a1550b"/>
<rect x="34" y="13" width="1" height="1" fill="#030402"/>
<rect x="13" y="14" width="1" height="1" fill="#030402"/>
<rect x="14" y="14" width="1" height="1" fill="#5f210c"/>
<rect x="15" y="14" width="2" height="1" fill="#a1550b"/>
<rect x="17" y="14" width="5" height="1" fill="#cb6805"/>
<rect x="22" y="14" width="1" height="1" fill="#a1550b"/>
<rect x="23" y="14" width="1" height="1" fill="#cb6805"/>
<rect x="24" y="14" width="1" height="1" fill="#e98f24"/>
<rect x="25" y="14" width="7" height="1" fill="#f3b057"/>
<rect x="32" y="14" width="1" height="1" fill="#fec468"/>
<rect x="33" y="14" width="1" height="1" fill="#a1550b"/>
<rect x="34" y="14" width="1" height="1" fill="#030402"/>
<rect x="13" y="15" width="2" height="1" fill="#030402"/>
<rect x="15" y="15" width="1" height="1" fill="#a1550b"/>
<rect x="16" y="15" width="3" height="1" fill="#cb6805"/>
<rect x="19" y="15" width="1" height="1" fill="#a1550b"/>
<rect x="20" y="15" width="4" height="1" fill="#cb6805"/>
<rect x="24" y="15" width="1" height="1" fill="#e98f24"/>
<rect x="25" y="15" width="1" height="1" fill="#fec468"/>
<rect x="26" y="15" width="1" height="1" fill="#f3b057"/>
<rect x="27" y="15" width="3" height="1" fill="#5f210c"/>
<rect x="30" y="15" width="1" height="1" fill="#f3b057"/>
<rect x="31" y="15" width="1" height="1" fill="#fec468"/>
<rect x="32" y="15" width="2" height="1" fill="#f3b057"/>
<rect x="34" y="15" width="1" height="1" fill="#a1550b"/>
<rect x="35" y="15" width="1" height="1" fill="#030402"/>
<rect x="13" y="16" width="1" height="1" fill="#030402"/>
<rect x="14" y="16" width="1" height="1" fill="#5f210c"/>
<rect x="15" y="16" width="2" height="1" fill="#a1550b"/>
<rect x="17" y="16" width="5" height="1" fill="#cb6805"/>
<rect x="22" y="16" width="1" height="1" fill="#a1550b"/>
<rect x="23" y="16" width="1" height="1" fill="#e98f24"/>
<rect x="24" y="16" width="3" height="1" fill="#f3b057"/>
<rect x="27" y="16" width="1" height="1" fill="#cb6805"/>
<rect x="28" y="16" width="1" height="1" fill="#a1550b"/>
<rect x="29" y="16" width="3" height="1" fill="#5f210c"/>
<rect x="32" y="16" width="1" height="1" fill="#030402"/>
<rect x="33" y="16" width="1" height="1" fill="#fec468"/>
<rect x="34" y="16" width="1" height="1" fill="#a1550b"/>
<rect x="35" y="16" width="1" height="1" fill="#030402"/>
<rect x="13" y="17" width="1" height="1" fill="#030402"/>
<rect x="14" y="17" width="1" height="1" fill="#5f210c"/>
<rect x="15" y="17" width="4" height="1" fill="#a1550b"/>
<rect x="19" y="17" width="1" height="1" fill="#5f210c"/>
<rect x="20" y="17" width="2" height="1" fill="#030402"/>
<rect x="22" y="17" width="1" height="1" fill="#cb6805"/>
<rect x="23" y="17" width="1" height="1" fill="#e98f24"/>
<rect x="24" y="17" width="1" height="1" fill="#fec468"/>
<rect x="25" y="17" width="2" height="1" fill="#f3b057"/>
<rect x="27" y="17" width="4" height="1" fill="#030402"/>
<rect x="31" y="17" width="1" height="1" fill="#a1550b"/>
<rect x="32" y="17" width="2" height="1" fill="#f3b057"/>
<rect x="34" y="17" width="1" height="1" fill="#a1550b"/>
<rect x="35" y="17" width="1" height="1" fill="#030402"/>
<rect x="13" y="18" width="2" height="1" fill="#030402"/>
<rect x="15" y="18" width="3" height="1" fill="#a1550b"/>
<rect x="18" y="18" width="1" height="1" fill="#5f210c"/>
<rect x="19" y="18" width="2" height="1" fill="#030402"/>
<rect x="21" y="18" width="2" height="1" fill="#5f210c"/>
<rect x="23" y="18" width="1" height="1" fill="#e98f24"/>
<rect x="24" y="18" width="3" height="1" fill="#f3b057"/>
<rect x="27" y="18" width="1" height="1" fill="#9b9898"/>
<rect x="28" y="18" width="1" height="1" fill="#645f5e"/>
<rect x="29" y="18" width="1" height="1" fill="#9b9898"/>
<rect x="30" y="18" width="1" height="1" fill="#030402"/>
<rect x="31" y="18" width="1" height="1" fill="#a1550b"/>
<rect x="32" y="18" width="1" height="1" fill="#fec468"/>
<rect x="33" y="18" width="1" height="1" fill="#a1550b"/>
<rect x="34" y="18" width="1" height="1" fill="#030402"/>
<rect x="14" y="19" width="2" height="1" fill="#030402"/>
<rect x="16" y="19" width="2" height="1" fill="#a1550b"/>
<rect x="18" y="19" width="1" height="1" fill="#030402"/>
<rect x="19" y="19" width="2" height="1" fill="#f3b057"/>
<rect x="21" y="19" width="1" height="1" fill="#a1550b"/>
<rect x="22" y="19" width="1" height="1" fill="#030402"/>
<rect x="23" y="19" width="1" height="1" fill="#e98f24"/>
<rect x="24" y="19" width="1" height="1" fill="#fec468"/>
<rect x="25" y="19" width="1" height="1" fill="#f3b057"/>
<rect x="26" y="19" width="1" height="1" fill="#fec468"/>
<rect x="27" y="19" width="2" height="1" fill="#eeeceb"/>
<rect x="29" y="19" width="1" height="1" fill="#9b9898"/>
<rect x="30" y="19" width="1" height="1" fill="#030402"/>
<rect x="31" y="19" width="1" height="1" fill="#a1550b"/>
<rect x="32" y="19" width="1" height="1" fill="#f3b057"/>
<rect x="33" y="19" width="2" height="1" fill="#030402"/>
<rect x="14" y="20" width="3" height="1" fill="#030402"/>
<rect x="17" y="20" width="1" height="1" fill="#a1550b"/>
<rect x="18" y="20" width="1" height="1" fill="#030402"/>
<rect x="19" y="20" width="1" height="1" fill="#f3b057"/>
<rect x="20" y="20" width="1" height="1" fill="#a1550b"/>
<rect x="21" y="20" width="2" height="1" fill="#e98f24"/>
<rect x="23" y="20" width="3" height="1" fill="#f3b057"/>
<rect x="26" y="20" width="1" height="1" fill="#fec468"/>
<rect x="27" y="20" width="2" height="1" fill="#eeeceb"/>
<rect x="29" y="20" width="2" height="1" fill="#030402"/>
<rect x="31" y="20" width="1" height="1" fill="#a1550b"/>
<rect x="32" y="20" width="1" height="1" fill="#fec468"/>
<rect x="33" y="20" width="2" height="1" fill="#030402"/>
<rect x="15" y="21" width="2" height="1" fill="#030402"/>
<rect x="17" y="21" width="1" height="1" fill="#a1550b"/>
<rect x="18" y="21" width="1" height="1" fill="#030402"/>
<rect x="19" y="21" width="1" height="1" fill="#f3b057"/>
<rect x="20" y="21" width="2" height="1" fill="#e98f24"/>
<rect x="22" y="21" width="4" height="1" fill="#f3b057"/>
<rect x="26" y="21" width="1" height="1" fill="#fec468"/>
<rect x="27" y="21" width="2" height="1" fill="#eeeceb"/>
<rect x="29" y="21" width="3" height="1" fill="#030402"/>
<rect x="32" y="21" width="1" height="1" fill="#fec468"/>
<rect x="33" y="21" width="1" height="1" fill="#030402"/>
<rect x="34" y="21" width="1" height="1" fill="#5f210c"/>
<rect x="15" y="22" width="1" height="1" fill="#030402"/>
<rect x="16" y="22" width="1" height="1" fill="#5f210c"/>
<rect x="17" y="22" width="2" height="1" fill="#030402"/>
<rect x="19" y="22" width="1" height="1" fill="#a1550b"/>
<rect x="20" y="22" width="1" height="1" fill="#f3b057"/>
<rect x="21" y="22" width="1" height="1" fill="#cb6805"/>
<rect x="22" y="22" width="1" height="1" fill="#e98f24"/>
<rect x="23" y="22" width="3" height="1" fill="#f3b057"/>
<rect x="26" y="22" width="1" height="1" fill="#fec468"/>
<rect x="27" y="22" width="2" height="1" fill="#eeeceb"/>
<rect x="29" y="22" width="1" height="1" fill="#645f5e"/>
<rect x="30" y="22" width="1" height="1" fill="#030402"/>
<rect x="31" y="22" width="2" height="1" fill="#f3b057"/>
<rect x="33" y="22" width="1" height="1" fill="#fec468"/>
<rect x="34" y="22" width="2" height="1" fill="#030402"/>
<rect x="16" y="23" width="1" height="1" fill="#030402"/>
<rect x="17" y="23" width="1" height="1" fill="#5f210c"/>
<rect x="18" y="23" width="3" height="1" fill="#030402"/>
<rect x="21" y="23" width="2" height="1" fill="#e98f24"/>
<rect x="23" y="23" width="7" height="1" fill="#f3b057"/>
<rect x="30" y="23" width="1" height="1" fill="#fec468"/>
<rect x="31" y="23" width="3" height="1" fill="#f3b057"/>
<rect x="34" y="23" width="1" height="1" fill="#a1550b"/>
<rect x="35" y="23" width="1" height="1" fill="#030402"/>
<rect x="17" y="24" width="1" height="1" fill="#030402"/>
<rect x="18" y="24" width="1" height="1" fill="#5f210c"/>
<rect x="19" y="24" width="1" height="1" fill="#030402"/>
<rect x="20" y="24" width="1" height="1" fill="#a1550b"/>
<rect x="21" y="24" width="12" height="1" fill="#f3b057"/>
<rect x="33" y="24" width="1" height="1" fill="#a1550b"/>
<rect x="34" y="24" width="1" height="1" fill="#030402"/>
<rect x="18" y="25" width="2" height="1" fill="#030402"/>
<rect x="20" y="25" width="1" height="1" fill="#a1550b"/>
<rect x="21" y="25" width="2" height="1" fill="#e98f24"/>
<rect x="23" y="25" width="7" height="1" fill="#f3b057"/>
<rect x="30" y="25" width="3" height="1" fill="#a1550b"/>
<rect x="33" y="25" width="1" height="1" fill="#5f210c"/>
<rect x="34" y="25" width="1" height="1" fill="#030402"/>
<rect x="19" y="26" width="5" height="1" fill="#030402"/>
<rect x="24" y="26" width="1" height="1" fill="#f3b057"/>
<rect x="25" y="26" width="4" height="1" fill="#fec468"/>
<rect x="29" y="26" width="3" height="1" fill="#f3b057"/>
<rect x="32" y="26" width="2" height="1" fill="#030402"/>
<rect x="18" y="27" width="7" height="1" fill="#030402"/>
<rect x="25" y="27" width="4" height="1" fill="#a1550b"/>
<rect x="29" y="27" width="1" height="1" fill="#f3b057"/>
<rect x="30" y="27" width="1" height="1" fill="#fec468"/>
<rect x="31" y="27" width="2" height="1" fill="#030402"/>
<rect x="17" y="28" width="3" height="1" fill="#030402"/>
<rect x="20" y="28" width="4" height="1" fill="#195e02"/>
<rect x="24" y="28" width="7" height="1" fill="#030402"/>
<rect x="15" y="29" width="3" height="1" fill="#030402"/>
<rect x="18" y="29" width="3" height="1" fill="#195e02"/>
<rect x="21" y="29" width="1" height="1" fill="#2d8e01"/>
<rect x="22" y="29" width="4" height="1" fill="#195e02"/>
<rect x="26" y="29" width="7" height="1" fill="#030402"/>
<rect x="15" y="30" width="3" height="1" fill="#030402"/>
<rect x="18" y="30" width="1" height="1" fill="#195e02"/>
<rect x="19" y="30" width="5" height="1" fill="#2d8e01"/>
<rect x="24" y="30" width="2" height="1" fill="#195e02"/>
<rect x="26" y="30" width="7" height="1" fill="#030402"/>
<rect x="15" y="31" width="4" height="1" fill="#030402"/>
<rect x="19" y="31" width="3" height="1" fill="#195e02"/>
<rect x="22" y="31" width="2" height="1" fill="#2d8e01"/>
<rect x="24" y="31" width="3" height="1" fill="#195e02"/>
<rect x="27" y="31" width="7" height="1" fill="#030402"/>
<rect x="13" y="32" width="4" height="1" fill="#030402"/>
<rect x="17" y="32" width="9" height="1" fill="#195e02"/>
<rect x="26" y="32" width="1" height="1" fill="#2d8e01"/>
<rect x="27" y="32" width="5" height="1" fill="#195e02"/>
<rect x="32" y="32" width="2" height="1" fill="#030402"/>
<rect x="13" y="33" width="3" height="1" fill="#030402"/>
<rect x="16" y="33" width="1" height="1" fill="#195e02"/>
<rect x="17" y="33" width="5" height="1" fill="#2d8e01"/>
<rect x="22" y="33" width="1" height="1" fill="#195e02"/>
<rect x="23" y="33" width="1" height="1" fill="#030402"/>
<rect x="24" y="33" width="2" height="1" fill="#195e02"/>
<rect x="26" y="33" width="5" height="1" fill="#2d8e01"/>
<rect x="31" y="33" width="1" height="1" fill="#195e02"/>
<rect x="32" y="33" width="2" height="1" fill="#030402"/>
<rect x="13" y="34" width="2" height="1" fill="#030402"/>
<rect x="15" y="34" width="1" height="1" fill="#195e02"/>
<rect x="16" y="34" width="6" height="1" fill="#2d8e01"/>
<rect x="22" y="34" width="2" height="1" fill="#030402"/>
<rect x="24" y="34" width="2" height="1" fill="#195e02"/>
<rect x="26" y="34" width="5" height="1" fill="#2d8e01"/>
<rect x="31" y="34" width="1" height="1" fill="#195e02"/>
<rect x="32" y="34" width="2" height="1" fill="#030402"/>
<rect x="13" y="35" width="2" height="1" fill="#030402"/>
<rect x="15" y="35" width="7" height="1" fill="#195e02"/>
<rect x="22" y="35" width="2" height="1" fill="#030402"/>
<rect x="24" y="35" width="2" height="1" fill="#195e02"/>
<rect x="26" y="35" width="5" height="1" fill="#2d8e01"/>
<rect x="31" y="35" width="1" height="1" fill="#195e02"/>
<rect x="32" y="35" width="2" height="1" fill="#030402"/>
<rect x="12" y="36" width="3" height="1" fill="#030402"/>
<rect x="15" y="36" width="2" height="1" fill="#195e02"/>
<rect x="17" y="36" width="7" height="1" fill="#030402"/>
<rect x="24" y="36" width="2" height="1" fill="#195e02"/>
<rect x="26" y="36" width="5" height="1" fill="#2d8e01"/>
<rect x="31" y="36" width="1" height="1" fill="#195e02"/>
<rect x="32" y="36" width="2" height="1" fill="#030402"/>
<rect x="12" y="37" width="12" height="1" fill="#030402"/>
<rect x="24" y="37" width="4" height="1" fill="#195e02"/>
<rect x="28" y="37" width="1" height="1" fill="#2d8e01"/>
<rect x="29" y="37" width="2" height="1" fill="#195e02"/>
<rect x="31" y="37" width="2" height="1" fill="#030402"/>
<rect x="12" y="38" width="2" height="1" fill="#030402"/>
<rect x="14" y="38" width="1" height="1" fill="#195e02"/>
<rect x="15" y="38" width="1" height="1" fill="#f3b057"/>
<rect x="16" y="38" width="1" height="1" fill="#fec468"/>
<rect x="17" y="38" width="1" height="1" fill="#fbdb9e"/>
<rect x="18" y="38" width="1" height="1" fill="#030402"/>
<rect x="19" y="38" width="1" height="1" fill="#195e02"/>
<rect x="20" y="38" width="5" height="1" fill="#030402"/>
<rect x="25" y="38" width="3" height="1" fill="#195e02"/>
<rect x="28" y="38" width="1" height="1" fill="#2d8e01"/>
<rect x="29" y="38" width="1" height="1" fill="#195e02"/>
<rect x="30" y="38" width="3" height="1" fill="#030402"/>
<rect x="12" y="39" width="1" height="1" fill="#030402"/>
<rect x="13" y="39" width="1" height="1" fill="#a1550b"/>
<rect x="14" y="39" width="1" height="1" fill="#f3b057"/>
<rect x="15" y="39" width="5" height="1" fill="#fbdb9e"/>
<rect x="20" y="39" width="1" height="1" fill="#645f5e"/>
<rect x="21" y="39" width="7" height="1" fill="#030402"/>
<rect x="28" y="39" width="1" height="1" fill="#195e02"/>
<rect x="29" y="39" width="4" height="1" fill="#030402"/>
<rect x="12" y="40" width="1" height="1" fill="#030402"/>
<rect x="13" y="40" width="1" height="1" fill="#a1550b"/>
<rect x="14" y="40" width="1" height="1" fill="#f3b057"/>
<rect x="15" y="40" width="4" height="1" fill="#fbdb9e"/>
<rect x="19" y="40" width="1" height="1" fill="#030402"/>
<rect x="20" y="40" width="1" height="1" fill="#645f5e"/>
<rect x="21" y="40" width="12" height="1" fill="#030402"/>
<rect x="12" y="41" width="1" height="1" fill="#030402"/>
<rect x="13" y="41" width="1" height="1" fill="#a1550b"/>
<rect x="14" y="41" width="1" height="1" fill="#e98f24"/>
<rect x="15" y="41" width="1" height="1" fill="#f3b057"/>
<rect x="16" y="41" width="1" height="1" fill="#fec468"/>
<rect x="17" y="41" width="1" height="1" fill="#fbdb9e"/>
<rect x="18" y="41" width="3" height="1" fill="#030402"/>
<rect x="21" y="41" width="1" height="1" fill="#6601a2"/>
<rect x="22" y="41" width="4" height="1" fill="#8900d4"/>
<rect x="26" y="41" width="1" height="1" fill="#6601a2"/>
<rect x="27" y="41" width="4" height="1" fill="#030402"/>
<rect x="33" y="41" width="1" height="1" fill="#030402"/>
<rect x="12" y="42" width="1" height="1" fill="#030402"/>
<rect x="13" y="42" width="2" height="1" fill="#5f210c"/>
<rect x="15" y="42" width="2" height="1" fill="#f3b057"/>
<rect x="17" y="42" width="2" height="1" fill="#645f5e"/>
<rect x="19" y="42" width="2" height="1" fill="#6601a2"/>
<rect x="21" y="42" width="1" height="1" fill="#030402"/>
<rect x="22" y="42" width="5" height="1" fill="#8900d4"/>
<rect x="27" y="42" width="1" height="1" fill="#6601a2"/>
<rect x="28" y="42" width="8" height="1" fill="#030402"/>
<rect x="13" y="43" width="2" height="1" fill="#030402"/>
<rect x="15" y="43" width="2" height="1" fill="#cb6805"/>
<rect x="17" y="43" width="3" height="1" fill="#030402"/>
<rect x="20" y="43" width="7" height="1" fill="#8900d4"/>
<rect x="27" y="43" width="1" height="1" fill="#6601a2"/>
<rect x="28" y="43" width="5" height="1" fill="#030402"/>
<rect x="33" y="43" width="1" height="1" fill="#6601a2"/>
<rect x="34" y="43" width="2" height="1" fill="#030402"/>
<rect x="13" y="44" width="6" height="1" fill="#030402"/>
<rect x="19" y="44" width="1" height="1" fill="#6601a2"/>
<rect x="20" y="44" width="1" height="1" fill="#030402"/>
<rect x="21" y="44" width="6" height="1" fill="#8900d4"/>
<rect x="27" y="44" width="2" height="1" fill="#6601a2"/>
<rect x="29" y="44" width="3" height="1" fill="#030402"/>
<rect x="32" y="44" width="1" height="1" fill="#6601a2"/>
<rect x="33" y="44" width="1" height="1" fill="#030402"/>
<rect x="34" y="44" width="2" height="1" fill="#6601a2"/>
<rect x="36" y="44" width="2" height="1" fill="#030402"/>
<rect x="13" y="45" width="6" height="1" fill="#030402"/>
<rect x="19" y="45" width="2" height="1" fill="#6601a2"/>
<rect x="21" y="45" width="6" height="1" fill="#8900d4"/>
<rect x="27" y="45" width="1" height="1" fill="#030402"/>
<rect x="28" y="45" width="1" height="1" fill="#6601a2"/>
<rect x="29" y="45" width="3" height="1" fill="#030402"/>
<rect x="32" y="45" width="1" height="1" fill="#6601a2"/>
<rect x="33" y="45" width="1" height="1" fill="#8900d4"/>
<rect x="34" y="45" width="2" height="1" fill="#6601a2"/>
<rect x="36" y="45" width="2" height="1" fill="#030402"/>
<rect x="13" y="46" width="6" height="1" fill="#030402"/>
<rect x="19" y="46" width="3" height="1" fill="#6601a2"/>
<rect x="22" y="46" width="4" height="1" fill="#8900d4"/>
<rect x="26" y="46" width="3" height="1" fill="#6601a2"/>
<rect x="29" y="46" width="2" height="1" fill="#030402"/>
<rect x="31" y="46" width="2" height="1" fill="#6601a2"/>
<rect x="33" y="46" width="1" height="1" fill="#8900d4"/>
<rect x="34" y="46" width="2" height="1" fill="#6601a2"/>
<rect x="36" y="46" width="2" height="1" fill="#030402"/>
<rect x="12" y="47" width="1" height="1" fill="#030402"/>
<rect x="13" y="47" width="2" height="1" fill="#5f210c"/>
<rect x="15" y="47" width="2" height="1" fill="#030402"/>
<rect x="17" y="47" width="2" height="1" fill="#5f210c"/>
<rect x="19" y="47" width="2" height="1" fill="#030402"/>
<rect x="21" y="47" width="3" height="1" fill="#6601a2"/>
<rect x="24" y="47" width="1" height="1" fill="#030402"/>
<rect x="25" y="47" width="2" height="1" fill="#6601a2"/>
<rect x="27" y="47" width="5" height="1" fill="#030402"/>
<rect x="32" y="47" width="3" height="1" fill="#6601a2"/>
<rect x="35" y="47" width="3" height="1" fill="#030402"/>
<rect x="12" y="48" width="1" height="1" fill="#030402"/>
<rect x="13" y="48" width="1" height="1" fill="#5f210c"/>
<rect x="14" y="48" width="4" height="1" fill="#dc0468"/>
<rect x="18" y="48" width="1" height="1" fill="#5f210c"/>
<rect x="19" y="48" width="2" height="1" fill="#030402"/>
<rect x="21" y="48" width="5" height="1" fill="#6601a2"/>
<rect x="26" y="48" width="7" height="1" fill="#030402"/>
<rect x="33" y="48" width="2" height="1" fill="#6601a2"/>
<rect x="35" y="48" width="3" height="1" fill="#030402"/>
<rect x="12" y="49" width="1" height="1" fill="#030402"/>
<rect x="13" y="49" width="1" height="1" fill="#5f210c"/>
<rect x="14" y="49" width="1" height="1" fill="#030402"/>
<rect x="15" y="49" width="4" height="1" fill="#dc0468"/>
<rect x="19" y="49" width="1" height="1" fill="#030402"/>
<rect x="20" y="49" width="1" height="1" fill="#5f210c"/>
<rect x="21" y="49" width="2" height="1" fill="#030402"/>
<rect x="23" y="49" width="2" height="1" fill="#6601a2"/>
<rect x="25" y="49" width="11" height="1" fill="#030402"/>
<rect x="12" y="50" width="1" height="1" fill="#030402"/>
<rect x="13" y="50" width="1" height="1" fill="#5f210c"/>
<rect x="14" y="50" width="1" height="1" fill="#030402"/>
<rect x="15" y="50" width="2" height="1" fill="#dc0468"/>
<rect x="17" y="50" width="1" height="1" fill="#030402"/>
<rect x="18" y="50" width="2" height="1" fill="#dc0468"/>
<rect x="20" y="50" width="1" height="1" fill="#5f210c"/>
<rect x="21" y="50" width="15" height="1" fill="#030402"/>
<rect x="12" y="51" width="1" height="1" fill="#030402"/>
<rect x="13" y="51" width="1" height="1" fill="#5f210c"/>
<rect x="14" y="51" width="3" height="1" fill="#dc0468"/>
<rect x="17" y="51" width="3" height="1" fill="#030402"/>
<rect x="20" y="51" width="2" height="1" fill="#dc0468"/>
<rect x="22" y="51" width="5" height="1" fill="#030402"/>
<rect x="27" y="51" width="1" height="1" fill="#5f210c"/>
<rect x="28" y="51" width="6" height="1" fill="#030402"/>
<rect x="10" y="52" width="2" height="1" fill="#030402"/>
<rect x="12" y="52" width="1" height="1" fill="#5f210c"/>
<rect x="13" y="52" width="1" height="1" fill="#030402"/>
<rect x="14" y="52" width="3" height="1" fill="#dc0468"/>
<rect x="17" y="52" width="2" height="1" fill="#030402"/>
<rect x="19" y="52" width="3" height="1" fill="#dc0468"/>
<rect x="22" y="52" width="1" height="1" fill="#030402"/>
<rect x="23" y="52" width="2" height="1" fill="#5f210c"/>
<rect x="25" y="52" width="1" height="1" fill="#030402"/>
<rect x="26" y="52" width="1" height="1" fill="#dc0468"/>
<rect x="27" y="52" width="1" height="1" fill="#5f210c"/>
<rect x="28" y="52" width="2" height="1" fill="#030402"/>
<rect x="32" y="52" width="2" height="1" fill="#030402"/>
<rect x="10" y="53" width="5" height="1" fill="#030402"/>
<rect x="15" y="53" width="5" height="1" fill="#dc0468"/>
<rect x="20" y="53" width="2" height="1" fill="#030402"/>
<rect x="22" y="53" width="4" height="1" fill="#dc0468"/>
<rect x="26" y="53" width="3" height="1" fill="#030402"/>
<rect x="10" y="54" width="2" height="1" fill="#030402"/>
<rect x="12" y="54" width="5" height="1" fill="#dc0468"/>
<rect x="17" y="54" width="3" height="1" fill="#030402"/>
<rect x="20" y="54" width="2" height="1" fill="#dc0468"/>
<rect x="22" y="54" width="1" height="1" fill="#5f210c"/>
<rect x="23" y="54" width="1" height="1" fill="#030402"/>
<rect x="24" y="54" width="1" height="1" fill="#dc0468"/>
<rect x="25" y="54" width="6" height="1" fill="#030402"/>
<rect x="10" y="55" width="6" height="1" fill="#030402"/>
<rect x="16" y="55" width="5" height="1" fill="#dc0468"/>
<rect x="21" y="55" width="1" height="1" fill="#030402"/>
<rect x="22" y="55" width="1" height="1" fill="#5f210c"/>
<rect x="23" y="55" width="2" height="1" fill="#030402"/>
<rect x="25" y="55" width="1" height="1" fill="#5f210c"/>
<rect x="26" y="55" width="5" height="1" fill="#030402"/>
<rect x="10" y="56" width="6" height="1" fill="#030402"/>
<rect x="16" y="56" width="4" height="1" fill="#dc0468"/>
<rect x="20" y="56" width="1" height="1" fill="#5f210c"/>
<rect x="21" y="56" width="5" height="1" fill="#030402"/>
<rect x="26" y="56" width="1" height="1" fill="#fbdb9e"/>
<rect x="27" y="56" width="2" height="1" fill="#f3b057"/>
<rect x="29" y="56" width="1" height="1" fill="#5f210c"/>
<rect x="30" y="56" width="1" height="1" fill="#030402"/>
<rect x="9" y="57" width="3" height="1" fill="#030402"/>
<rect x="12" y="57" width="3" height="1" fill="#a1550b"/>
<rect x="15" y="57" width="6" height="1" fill="#5f210c"/>
<rect x="21" y="57" width="1" height="1" fill="#030402"/>
<rect x="22" y="57" width="1" height="1" fill="#5f210c"/>
<rect x="23" y="57" width="2" height="1" fill="#a1550b"/>
<rect x="25" y="57" width="1" height="1" fill="#030402"/>
<rect x="26" y="57" width="1" height="1" fill="#fbdb9e"/>
<rect x="27" y="57" width="2" height="1" fill="#f3b057"/>
<rect x="29" y="57" width="1" height="1" fill="#5f210c"/>
<rect x="30" y="57" width="1" height="1" fill="#030402"/>
<rect x="8" y="58" width="3" height="1" fill="#030402"/>
<rect x="11" y="58" width="1" height="1" fill="#5f210c"/>
<rect x="12" y="58" width="1" height="1" fill="#fec468"/>
<rect x="13" y="58" width="2" height="1" fill="#f3b057"/>
<rect x="15" y="58" width="7" height="1" fill="#030402"/>
<rect x="22" y="58" width="1" height="1" fill="#cb6805"/>
<rect x="23" y="58" width="2" height="1" fill="#f3b057"/>
<rect x="25" y="58" width="3" height="1" fill="#fbdb9e"/>
<rect x="28" y="58" width="1" height="1" fill="#f3b057"/>
<rect x="29" y="58" width="2" height="1" fill="#030402"/>
<rect x="7" y="59" width="2" height="1" fill="#030402"/>
<rect x="9" y="59" width="1" height="1" fill="#a1550b"/>
<rect x="10" y="59" width="2" height="1" fill="#f3b057"/>
<rect x="12" y="59" width="3" height="1" fill="#fbdb9e"/>
<rect x="15" y="59" width="2" height="1" fill="#f3b057"/>
<rect x="17" y="59" width="1" height="1" fill="#cb6805"/>
<rect x="18" y="59" width="1" height="1" fill="#5f210c"/>
<rect x="19" y="59" width="5" height="1" fill="#030402"/>
<rect x="24" y="59" width="1" height="1" fill="#f3b057"/>
<rect x="25" y="59" width="1" height="1" fill="#fec468"/>
<rect x="26" y="59" width="1" height="1" fill="#fbdb9e"/>
<rect x="27" y="59" width="1" height="1" fill="#f3b057"/>
<rect x="28" y="59" width="1" height="1" fill="#e98f24"/>
<rect x="29" y="59" width="2" height="1" fill="#030402"/>
<rect x="6" y="60" width="3" height="1" fill="#030402"/>
<rect x="9" y="60" width="1" height="1" fill="#a1550b"/>
<rect x="10" y="60" width="1" height="1" fill="#fec468"/>
<rect x="11" y="60" width="4" height="1" fill="#fbdb9e"/>
<rect x="15" y="60" width="1" height="1" fill="#fec468"/>
<rect x="16" y="60" width="1" height="1" fill="#f3b057"/>
<rect x="17" y="60" width="1" height="1" fill="#cb6805"/>
<rect x="18" y="60" width="6" height="1" fill="#030402"/>
<rect x="24" y="60" width="4" height="1" fill="#f3b057"/>
<rect x="28" y="60" width="1" height="1" fill="#a1550b"/>
<rect x="29" y="60" width="2" height="1" fill="#030402"/>
<rect x="3" y="61" width="6" height="1" fill="#030402"/>
<rect x="9" y="61" width="1" height="1" fill="#195e02"/>
<rect x="10" y="61" width="6" height="1" fill="#fbdb9e"/>
<rect x="16" y="61" width="1" height="1" fill="#f3b057"/>
<rect x="17" y="61" width="2" height="1" fill="#030402"/>
<rect x="19" y="61" width="1" height="1" fill="#9b9898"/>
<rect x="20" y="61" width="2" height="1" fill="#030402"/>
<rect x="22" y="61" width="2" height="1" fill="#195e02"/>
<rect x="24" y="61" width="5" height="1" fill="#030402"/>
<rect x="2" y="62" width="1" height="1" fill="#030402"/>
<rect x="3" y="62" width="2" height="1" fill="#645f5e"/>
<rect x="5" y="62" width="3" height="1" fill="#030402"/>
<rect x="8" y="62" width="2" height="1" fill="#195e02"/>
<rect x="10" y="62" width="2" height="1" fill="#030402"/>
<rect x="12" y="62" width="2" height="1" fill="#fbdb9e"/>
<rect x="14" y="62" width="1" height="1" fill="#fec468"/>
<rect x="15" y="62" width="3" height="1" fill="#030402"/>
<rect x="18" y="62" width="1" height="1" fill="#645f5e"/>
<rect x="19" y="62" width="1" height="1" fill="#9b9898"/>
<rect x="20" y="62" width="9" height="1" fill="#030402"/>
<rect x="2" y="63" width="1" height="1" fill="#030402"/>
<rect x="3" y="63" width="2" height="1" fill="#9b9898"/>
<rect x="5" y="63" width="2" height="1" fill="#030402"/>
<rect x="7" y="63" width="1" height="1" fill="#195e02"/>
<rect x="8" y="63" width="2" height="1" fill="#2d8e01"/>
<rect x="10" y="63" width="2" height="1" fill="#030402"/>
<rect x="12" y="63" width="2" height="1" fill="#fbdb9e"/>
<rect x="14" y="63" width="1" height="1" fill="#f3b057"/>
<rect x="15" y="63" width="2" height="1" fill="#030402"/>
<rect x="17" y="63" width="3" height="1" fill="#9b9898"/>
<rect x="20" y="63" width="1" height="1" fill="#645f5e"/>
<rect x="21" y="63" width="6" height="1" fill="#030402"/>
<rect x="0" y="64" width="2" height="1" fill="#030402"/>
<rect x="2" y="64" width="1" height="1" fill="#9b9898"/>
<rect x="3" y="64" width="2" height="1" fill="#eeeceb"/>
<rect x="5" y="64" width="2" height="1" fill="#645f5e"/>
<rect x="7" y="64" width="1" height="1" fill="#030402"/>
<rect x="8" y="64" width="1" height="1" fill="#195e02"/>
<rect x="9" y="64" width="1" height="1" fill="#2d8e01"/>
<rect x="10" y="64" width="4" height="1" fill="#195e02"/>
<rect x="14" y="64" width="3" height="1" fill="#030402"/>
<rect x="17" y="64" width="2" height="1" fill="#9b9898"/>
<rect x="19" y="64" width="1" height="1" fill="#030402"/>
<rect x="20" y="64" width="3" height="1" fill="#645f5e"/>
<rect x="23" y="64" width="3" height="1" fill="#030402"/>
<rect x="0" y="65" width="2" height="1" fill="#030402"/>
<rect x="2" y="65" width="3" height="1" fill="#eeeceb"/>
<rect x="5" y="65" width="1" height="1" fill="#9b9898"/>
<rect x="6" y="65" width="1" height="1" fill="#645f5e"/>
<rect x="7" y="65" width="1" height="1" fill="#030402"/>
<rect x="8" y="65" width="4" height="1" fill="#195e02"/>
<rect x="12" y="65" width="5" height="1" fill="#030402"/>
<rect x="17" y="65" width="2" height="1" fill="#645f5e"/>
<rect x="19" y="65" width="3" height="1" fill="#9b9898"/>
<rect x="22" y="65" width="2" height="1" fill="#645f5e"/>
<rect x="24" y="65" width="2" height="1" fill="#030402"/>
<rect x="0" y="66" width="2" height="1" fill="#030402"/>
<rect x="2" y="66" width="5" height="1" fill="#eeeceb"/>
<rect x="7" y="66" width="1" height="1" fill="#9b9898"/>
<rect x="8" y="66" width="6" height="1" fill="#030402"/>
<rect x="16" y="66" width="2" height="1" fill="#030402"/>
<rect x="18" y="66" width="1" height="1" fill="#645f5e"/>
<rect x="19" y="66" width="2" height="1" fill="#9b9898"/>
<rect x="21" y="66" width="1" height="1" fill="#030402"/>
<rect x="22" y="66" width="1" height="1" fill="#9b9898"/>
<rect x="23" y="66" width="3" height="1" fill="#030402"/>
<rect x="0" y="67" width="2" height="1" fill="#030402"/>
<rect x="2" y="67" width="6" height="1" fill="#eeeceb"/>
<rect x="8" y="67" width="1" height="1" fill="#645f5e"/>
<rect x="9" y="67" width="4" height="1" fill="#030402"/>
<rect x="16" y="67" width="3" height="1" fill="#030402"/>
<rect x="19" y="67" width="4" height="1" fill="#9b9898"/>
<rect x="23" y="67" width="1" height="1" fill="#eeeceb"/>
<rect x="24" y="67" width="2" height="1" fill="#645f5e"/>
<rect x="26" y="67" width="1" height="1" fill="#030402"/>
<rect x="0" y="68" width="2" height="1" fill="#030402"/>
<rect x="2" y="68" width="7" height="1" fill="#eeeceb"/>
<rect x="9" y="68" width="1" height="1" fill="#9b9898"/>
<rect x="10" y="68" width="2" height="1" fill="#030402"/>
<rect x="17" y="68" width="2" height="1" fill="#030402"/>
<rect x="19" y="68" width="3" height="1" fill="#9b9898"/>
<rect x="22" y="68" width="4" height="1" fill="#eeeceb"/>
<rect x="26" y="68" width="1" height="1" fill="#030402"/>
<rect x="0" y="69" width="2" height="1" fill="#030402"/>
<rect x="2" y="69" width="1" height="1" fill="#9b9898"/>
<rect x="3" y="69" width="5" height="1" fill="#eeeceb"/>
<rect x="8" y="69" width="1" height="1" fill="#645f5e"/>
<rect x="9" y="69" width="1" height="1" fill="#030402"/>
<rect x="18" y="69" width="3" height="1" fill="#030402"/>
<rect x="21" y="69" width="4" height="1" fill="#eeeceb"/>
<rect x="25" y="69" width="1" height="1" fill="#9b9898"/>
<rect x="26" y="69" width="1" height="1" fill="#030402"/>
<rect x="0" y="70" width="2" height="1" fill="#030402"/>
<rect x="2" y="70" width="2" height="1" fill="#9b9898"/>
<rect x="4" y="70" width="4" height="1" fill="#eeeceb"/>
<rect x="8" y="70" width="1" height="1" fill="#645f5e"/>
<rect x="9" y="70" width="1" height="1" fill="#030402"/>
<rect x="19" y="70" width="1" height="1" fill="#030402"/>
<rect x="20" y="70" width="1" height="1" fill="#645f5e"/>
<rect x="21" y="70" width="1" height="1" fill="#9b9898"/>
<rect x="22" y="70" width="3" height="1" fill="#eeeceb"/>
<rect x="25" y="70" width="1" height="1" fill="#9b9898"/>
<rect x="26" y="70" width="1" height="1" fill="#030402"/>
<rect x="2" y="71" width="1" height="1" fill="#030402"/>
<rect x="3" y="71" width="1" height="1" fill="#645f5e"/>
<rect x="4" y="71" width="1" height="1" fill="#9b9898"/>
<rect x="5" y="71" width="5" height="1" fill="#eeeceb"/>
<rect x="10" y="71" width="2" height="1" fill="#030402"/>
<rect x="20" y="71" width="6" height="1" fill="#030402"/>
<rect x="2" y="72" width="1" height="1" fill="#030402"/>
<rect x="3" y="72" width="2" height="1" fill="#645f5e"/>
<rect x="5" y="72" width="5" height="1" fill="#eeeceb"/>
<rect x="10" y="72" width="2" height="1" fill="#030402"/>
<rect x="21" y="72" width="4" height="1" fill="#030402"/>
<rect x="3" y="73" width="2" height="1" fill="#030402"/>
<rect x="5" y="73" width="1" height="1" fill="#9b9898"/>
<rect x="6" y="73" width="4" height="1" fill="#eeeceb"/>
<rect x="10" y="73" width="2" height="1" fill="#030402"/>
<rect x="5" y="74" width="2" height="1" fill="#030402"/>
<rect x="7" y="74" width="3" height="1" fill="#645f5e"/>
<rect x="5" y="75" width="5" height="1" fill="#030402"/>
</svg>
