<svg xmlns="http://www.w3.org/2000/svg" viewBox="0 0 38 76" shape-rendering="crispEdges" width="38" height="76">
<rect x="26" y="0" width="1" height="1" fill="#040403"/>
<rect x="25" y="1" width="3" height="1" fill="#040403"/>
<rect x="29" y="1" width="4" height="1" fill="#040403"/>
<rect x="34" y="1" width="3" height="1" fill="#040403"/>
<rect x="22" y="2" width="3" height="1" fill="#040403"/>
<rect x="25" y="2" width="1" height="1" fill="#a2560c"/>
<rect x="26" y="2" width="1" height="1" fill="#c96703"/>
<rect x="27" y="2" width="2" height="1" fill="#040403"/>
<rect x="29" y="2" width="1" height="1" fill="#5c2608"/>
<rect x="30" y="2" width="1" height="1" fill="#a2560c"/>
<rect x="31" y="2" width="1" height="1" fill="#5c2608"/>
<rect x="32" y="2" width="2" height="1" fill="#040403"/>
<rect x="34" y="2" width="2" height="1" fill="#5c2608"/>
<rect x="36" y="2" width="1" height="1" fill="#040403"/>
<rect x="20" y="3" width="2" height="1" fill="#040403"/>
<rect x="22" y="3" width="2" height="1" fill="#5c2608"/>
<rect x="24" y="3" width="1" height="1" fill="#a2560c"/>
<rect x="25" y="3" width="1" height="1" fill="#c96703"/>
<rect x="26" y="3" width="1" height="1" fill="#5c2608"/>
<rect x="27" y="3" width="2" height="1" fill="#040403"/>
<rect x="29" y="3" width="1" height="1" fill="#a2560c"/>
<rect x="30" y="3" width="1" height="1" fill="#c96703"/>
<rect x="31" y="3" width="1" height="1" fill="#5c2608"/>
<rect x="32" y="3" width="1" height="1" fill="#040403"/>
<rect x="33" y="3" width="1" height="1" fill="#5c2608"/>
<rect x="34" y="3" width="1" height="1" fill="#c96703"/>
<rect x="35" y="3" width="1" height="1" fill="#a2560c"/>
<rect x="36" y="3" width="1" height="1" fill="#040403"/>
<rect x="17" y="4" width="3" height="1" fill="#040403"/>
<rect x="20" y="4" width="2" height="1" fill="#5c2608"/>
<rect x="22" y="4" width="1" height="1" fill="#a2560c"/>
<rect x="23" y="4" width="1" height="1" fill="#c96703"/>
<rect x="24" y="4" width="1" height="1" fill="#a2560c"/>
<rect x="25" y="4" width="2" height="1" fill="#5c2608"/>
<rect x="27" y="4" width="3" height="1" fill="#a2560c"/>
<rect x="30" y="4" width="2" height="1" fill="#5c2608"/>
<rect x="32" y="4" width="1" height="1" fill="#a2560c"/>
<rect x="33" y="4" width="2" height="1" fill="#c96703"/>
<rect x="35" y="4" width="1" height="1" fill="#5c2608"/>
<rect x="36" y="4" width="1" height="1" fill="#040403"/>
<rect x="16" y="5" width="2" height="1" fill="#040403"/>
<rect x="18" y="5" width="2" height="1" fill="#5c2608"/>
<rect x="20" y="5" width="1" height="1" fill="#040403"/>
<rect x="21" y="5" width="2" height="1" fill="#c96703"/>
<rect x="23" y="5" width="1" height="1" fill="#a2560c"/>
<rect x="24" y="5" width="2" height="1" fill="#5c2608"/>
<rect x="26" y="5" width="1" height="1" fill="#a2560c"/>
<rect x="27" y="5" width="1" height="1" fill="#c96703"/>
<rect x="28" y="5" width="1" height="1" fill="#a2560c"/>
<rect x="29" y="5" width="2" height="1" fill="#5c2608"/>
<rect x="31" y="5" width="1" height="1" fill="#a2560c"/>
<rect x="32" y="5" width="2" height="1" fill="#c96703"/>
<rect x="34" y="5" width="1" height="1" fill="#040403"/>
<rect x="35" y="5" width="1" height="1" fill="#5c2608"/>
<rect x="36" y="5" width="1" height="1" fill="#a2560c"/>
<rect x="37" y="5" width="1" height="1" fill="#040403"/>
<rect x="16" y="6" width="1" height="1" fill="#040403"/>
<rect x="17" y="6" width="1" height="1" fill="#5c2608"/>
<rect x="18" y="6" width="1" height="1" fill="#040403"/>
<rect x="19" y="6" width="3" height="1" fill="#a2560c"/>
<rect x="22" y="6" width="1" height="1" fill="#040403"/>
<rect x="23" y="6" width="1" height="1" fill="#5c2608"/>
<rect x="24" y="6" width="1" height="1" fill="#040403"/>
<rect x="25" y="6" width="3" height="1" fill="#a2560c"/>
<rect x="28" y="6" width="2" height="1" fill="#5c2608"/>
<rect x="30" y="6" width="1" height="1" fill="#a2560c"/>
<rect x="31" y="6" width="1" height="1" fill="#c96703"/>
<rect x="32" y="6" width="1" height="1" fill="#a2560c"/>
<rect x="33" y="6" width="1" height="1" fill="#040403"/>
<rect x="34" y="6" width="3" height="1" fill="#a2560c"/>
<rect x="37" y="6" width="1" height="1" fill="#040403"/>
<rect x="16" y="7" width="1" height="1" fill="#040403"/>
<rect x="17" y="7" width="5" height="1" fill="#5c2608"/>
<rect x="22" y="7" width="1" height="1" fill="#040403"/>
<rect x="23" y="7" width="6" height="1" fill="#5c2608"/>
<rect x="29" y="7" width="1" height="1" fill="#a2560c"/>
<rect x="30" y="7" width="1" height="1" fill="#c96703"/>
<rect x="31" y="7" width="1" height="1" fill="#a2560c"/>
<rect x="32" y="7" width="2" height="1" fill="#5c2608"/>
<rect x="34" y="7" width="2" height="1" fill="#a2560c"/>
<rect x="36" y="7" width="2" height="1" fill="#040403"/>
<rect x="15" y="8" width="1" height="1" fill="#040403"/>
<rect x="16" y="8" width="13" height="1" fill="#5c2608"/>
<rect x="29" y="8" width="2" height="1" fill="#a2560c"/>
<rect x="31" y="8" width="1" height="1" fill="#5c2608"/>
<rect x="32" y="8" width="1" height="1" fill="#040403"/>
<rect x="33" y="8" width="1" height="1" fill="#c96703"/>
<rect x="34" y="8" width="1" height="1" fill="#a2560c"/>
<rect x="35" y="8" width="1" height="1" fill="#5c2608"/>
<rect x="36" y="8" width="1" height="1" fill="#040403"/>
<rect x="14" y="9" width="1" height="1" fill="#040403"/>
<rect x="15" y="9" width="1" height="1" fill="#5c2608"/>
<rect x="16" y="9" width="1" height="1" fill="#040403"/>
<rect x="17" y="9" width="1" height="1" fill="#5c2608"/>
<rect x="18" y="9" width="3" height="1" fill="#a2560c"/>
<rect x="21" y="9" width="3" height="1" fill="#c96703"/>
<rect x="24" y="9" width="4" height="1" fill="#a2560c"/>
<rect x="28" y="9" width="3" height="1" fill="#5c2608"/>
<rect x="31" y="9" width="1" height="1" fill="#040403"/>
<rect x="32" y="9" width="1" height="1" fill="#a2560c"/>
<rect x="33" y="9" width="3" height="1" fill="#040403"/>
<rect x="14" y="10" width="1" height="1" fill="#040403"/>
<rect x="15" y="10" width="2" height="1" fill="#5c2608"/>
<rect x="17" y="10" width="1" height="1" fill="#a2560c"/>
<rect x="18" y="10" width="5" height="1" fill="#c96703"/>
<rect x="23" y="10" width="3" height="1" fill="#040403"/>
<rect x="26" y="10" width="1" height="1" fill="#c96703"/>
<rect x="27" y="10" width="1" height="1" fill="#040403"/>
<rect x="28" y="10" width="1" height="1" fill="#a2560c"/>
<rect x="29" y="10" width="1" height="1" fill="#605422"/>
<rect x="30" y="10" width="1" height="1" fill="#5c2608"/>
<rect x="31" y="10" width="1" height="1" fill="#040403"/>
<rect x="32" y="10" width="1" height="1" fill="#5c2608"/>
<rect x="33" y="10" width="2" height="1" fill="#040403"/>
<rect x="13" y="11" width="1" height="1" fill="#040403"/>
<rect x="14" y="11" width="3" height="1" fill="#5c2608"/>
<rect x="17" y="11" width="1" height="1" fill="#a2560c"/>
<rect x="18" y="11" width="3" height="1" fill="#c96703"/>
<rect x="21" y="11" width="1" height="1" fill="#a2560c"/>
<rect x="22" y="11" width="1" height="1" fill="#c96703"/>
<rect x="23" y="11" width="4" height="1" fill="#040403"/>
<rect x="27" y="11" width="4" height="1" fill="#f6b358"/>
<rect x="31" y="11" width="1" height="1" fill="#a2560c"/>
<rect x="32" y="11" width="1" height="1" fill="#5c2608"/>
<rect x="33" y="11" width="1" height="1" fill="#040403"/>
<rect x="13" y="12" width="1" height="1" fill="#040403"/>
<rect x="14" y="12" width="2" height="1" fill="#5c2608"/>
<rect x="16" y="12" width="1" height="1" fill="#040403"/>
<rect x="17" y="12" width="1" height="1" fill="#a2560c"/>
<rect x="18" y="12" width="1" height="1" fill="#c96703"/>
<rect x="19" y="12" width="1" height="1" fill="#a2560c"/>
<rect x="20" y="12" width="2" height="1" fill="#c96703"/>
<rect x="22" y="12" width="1" height="1" fill="#a2560c"/>
<rect x="23" y="12" width="1" height="1" fill="#c96703"/>
<rect x="24" y="12" width="1" height="1" fill="#040403"/>
<rect x="25" y="12" width="8" height="1" fill="#f6b358"/>
<rect x="33" y="12" width="1" height="1" fill="#a2560c"/>
<rect x="34" y="12" width="1" height="1" fill="#040403"/>
<rect x="13" y="13" width="1" height="1" fill="#040403"/>
<rect x="14" y="13" width="2" height="1" fill="#5c2608"/>
<rect x="16" y="13" width="2" height="1" fill="#a2560c"/>
<rect x="18" y="13" width="1" height="1" fill="#c96703"/>
<rect x="19" y="13" width="1" height="1" fill="#a2560c"/>
<rect x="20" y="13" width="2" height="1" fill="#c96703"/>
<rect x="22" y="13" width="1" height="1" fill="#a2560c"/>
<rect x="23" y="13" width="1" height="1" fill="#c96703"/>
<rect x="24" y="13" width="1" height="1" fill="#040403"/>
<rect x="25" y="13" width="7" height="1" fill="#f6b358"/>
<rect x="32" y="13" width="1" height="1" fill="#040403"/>
<rect x="33" y="13" width="1" height="1" fill="#a2560c"/>
<rect x="34" y="13" width="1" height="1" fill="#040403"/>
<rect x="13" y="14" width="1" height="1" fill="#040403"/>
<rect x="14" y="14" width="1" height="1" fill="#5c2608"/>
<rect x="15" y="14" width="2" height="1" fill="#a2560c"/>
<rect x="17" y="14" width="5" height="1" fill="#c96703"/>
<rect x="22" y="14" width="1" height="1" fill="#a2560c"/>
<rect x="23" y="14" width="1" height="1" fill="#c96703"/>
<rect x="24" y="14" width="1" height="1" fill="#040403"/>
<rect x="25" y="14" width="7" height="1" fill="#f6b358"/>
<rect x="32" y="14" width="1" height="1" fill="#040403"/>
<rect x="33" y="14" width="1" height="1" fill="#a2560c"/>
<rect x="34" y="14" width="1" height="1" fill="#040403"/>
<rect x="13" y="15" width="1" height="1" fill="#040403"/>
<rect x="14" y="15" width="1" height="1" fill="#5c2608"/>
<rect x="15" y="15" width="2" height="1" fill="#a2560c"/>
<rect x="17" y="15" width="3" height="1" fill="#c96703"/>
<rect x="20" y="15" width="1" height="1" fill="#a2560c"/>
<rect x="21" y="15" width="3" height="1" fill="#c96703"/>
<rect x="24" y="15" width="1" height="1" fill="#040403"/>
<rect x="25" y="15" width="2" height="1" fill="#f6b358"/>
<rect x="27" y="15" width="3" height="1" fill="#5c2608"/>
<rect x="30" y="15" width="1" height="1" fill="#f6b358"/>
<rect x="31" y="15" width="1" height="1" fill="#040403"/>
<rect x="32" y="15" width="2" height="1" fill="#f6b358"/>
<rect x="34" y="15" width="1" height="1" fill="#a2560c"/>
<rect x="35" y="15" width="1" height="1" fill="#040403"/>
<rect x="13" y="16" width="1" height="1" fill="#040403"/>
<rect x="14" y="16" width="1" height="1" fill="#5c2608"/>
<rect x="15" y="16" width="3" height="1" fill="#a2560c"/>
<rect x="18" y="16" width="4" height="1" fill="#c96703"/>
<rect x="22" y="16" width="1" height="1" fill="#a2560c"/>
<rect x="23" y="16" width="1" height="1" fill="#c96703"/>
<rect x="24" y="16" width="3" height="1" fill="#f6b358"/>
<rect x="27" y="16" width="1" height="1" fill="#c96703"/>
<rect x="28" y="16" width="1" height="1" fill="#a2560c"/>
<rect x="29" y="16" width="3" height="1" fill="#5c2608"/>
<rect x="32" y="16" width="2" height="1" fill="#040403"/>
<rect x="34" y="16" width="1" height="1" fill="#a2560c"/>
<rect x="35" y="16" width="1" height="1" fill="#040403"/>
<rect x="13" y="17" width="1" height="1" fill="#040403"/>
<rect x="14" y="17" width="1" height="1" fill="#5c2608"/>
<rect x="15" y="17" width="4" height="1" fill="#a2560c"/>
<rect x="19" y="17" width="1" height="1" fill="#5c2608"/>
<rect x="20" y="17" width="1" height="1" fill="#040403"/>
<rect x="21" y="17" width="1" height="1" fill="#5c2608"/>
<rect x="22" y="17" width="1" height="1" fill="#a2560c"/>
<rect x="23" y="17" width="1" height="1" fill="#c96703"/>
<rect x="24" y="17" width="3" height="1" fill="#f6b358"/>
<rect x="27" y="17" width="1" height="1" fill="#5c2608"/>
<rect x="28" y="17" width="3" height="1" fill="#040403"/>
<rect x="31" y="17" width="1" height="1" fill="#5c2608"/>
<rect x="32" y="17" width="2" height="1" fill="#f6b358"/>
<rect x="34" y="17" width="1" height="1" fill="#a2560c"/>
<rect x="35" y="17" width="1" height="1" fill="#040403"/>
<rect x="14" y="18" width="2" height="1" fill="#040403"/>
<rect x="16" y="18" width="2" height="1" fill="#a2560c"/>
<rect x="18" y="18" width="1" height="1" fill="#5c2608"/>
<rect x="19" y="18" width="1" height="1" fill="#605422"/>
<rect x="20" y="18" width="1" height="1" fill="#040403"/>
<rect x="21" y="18" width="1" height="1" fill="#605422"/>
<rect x="22" y="18" width="1" height="1" fill="#5c2608"/>
<rect x="23" y="18" width="1" height="1" fill="#c96703"/>
<rect x="24" y="18" width="3" height="1" fill="#f6b358"/>
<rect x="27" y="18" width="3" height="1" fill="#a3a1a1"/>
<rect x="30" y="18" width="1" height="1" fill="#040403"/>
<rect x="31" y="18" width="1" height="1" fill="#a2560c"/>
<rect x="32" y="18" width="1" height="1" fill="#040403"/>
<rect x="33" y="18" width="1" height="1" fill="#a2560c"/>
<rect x="34" y="18" width="1" height="1" fill="#040403"/>
<rect x="14" y="19" width="1" height="1" fill="#040403"/>
<rect x="15" y="19" width="1" height="1" fill="#5c2608"/>
<rect x="16" y="19" width="2" height="1" fill="#a2560c"/>
<rect x="18" y="19" width="1" height="1" fill="#040403"/>
<rect x="19" y="19" width="1" height="1" fill="#a2560c"/>
<rect x="20" y="19" width="1" height="1" fill="#f6b358"/>
<rect x="21" y="19" width="2" height="1" fill="#a2560c"/>
<rect x="23" y="19" width="1" height="1" fill="#c96703"/>
<rect x="24" y="19" width="3" height="1" fill="#f6b358"/>
<rect x="27" y="19" width="2" height="1" fill="#f1efee"/>
<rect x="29" y="19" width="1" height="1" fill="#a3a1a1"/>
<rect x="30" y="19" width="1" height="1" fill="#040403"/>
<rect x="31" y="19" width="1" height="1" fill="#a2560c"/>
<rect x="32" y="19" width="1" height="1" fill="#f6b358"/>
<rect x="33" y="19" width="1" height="1" fill="#a2560c"/>
<rect x="34" y="19" width="1" height="1" fill="#040403"/>
<rect x="15" y="20" width="1" height="1" fill="#040403"/>
<rect x="16" y="20" width="1" height="1" fill="#5c2608"/>
<rect x="17" y="20" width="1" height="1" fill="#a2560c"/>
<rect x="18" y="20" width="1" height="1" fill="#040403"/>
<rect x="19" y="20" width="1" height="1" fill="#a2560c"/>
<rect x="20" y="20" width="1" height="1" fill="#040403"/>
<rect x="21" y="20" width="1" height="1" fill="#c96703"/>
<rect x="22" y="20" width="1" height="1" fill="#f6b358"/>
<rect x="23" y="20" width="1" height="1" fill="#040403"/>
<rect x="24" y="20" width="3" height="1" fill="#f6b358"/>
<rect x="27" y="20" width="2" height="1" fill="#f1efee"/>
<rect x="29" y="20" width="2" height="1" fill="#040403"/>
<rect x="31" y="20" width="1" height="1" fill="#a2560c"/>
<rect x="32" y="20" width="1" height="1" fill="#040403"/>
<rect x="33" y="20" width="1" height="1" fill="#a2560c"/>
<rect x="34" y="20" width="1" height="1" fill="#040403"/>
<rect x="15" y="21" width="1" height="1" fill="#040403"/>
<rect x="16" y="21" width="1" height="1" fill="#5c2608"/>
<rect x="17" y="21" width="1" height="1" fill="#a2560c"/>
<rect x="18" y="21" width="1" height="1" fill="#040403"/>
<rect x="19" y="21" width="1" height="1" fill="#a2560c"/>
<rect x="20" y="21" width="2" height="1" fill="#040403"/>
<rect x="22" y="21" width="5" height="1" fill="#f6b358"/>
<rect x="27" y="21" width="2" height="1" fill="#f1efee"/>
<rect x="29" y="21" width="4" height="1" fill="#040403"/>
<rect x="33" y="21" width="1" height="1" fill="#f6b358"/>
<rect x="34" y="21" width="1" height="1" fill="#605422"/>
<rect x="15" y="22" width="3" height="1" fill="#040403"/>
<rect x="18" y="22" width="2" height="1" fill="#5c2608"/>
<rect x="20" y="22" width="1" height="1" fill="#f6b358"/>
<rect x="21" y="22" width="1" height="1" fill="#040403"/>
<rect x="22" y="22" width="1" height="1" fill="#c96703"/>
<rect x="23" y="22" width="4" height="1" fill="#f6b358"/>
<rect x="27" y="22" width="1" height="1" fill="#fcdca1"/>
<rect x="28" y="22" width="1" height="1" fill="#f1efee"/>
<rect x="29" y="22" width="1" height="1" fill="#040403"/>
<rect x="30" y="22" width="1" height="1" fill="#605422"/>
<rect x="31" y="22" width="2" height="1" fill="#f6b358"/>
<rect x="33" y="22" width="1" height="1" fill="#040403"/>
<rect x="34" y="22" width="1" height="1" fill="#f6b358"/>
<rect x="35" y="22" width="1" height="1" fill="#040403"/>
<rect x="16" y="23" width="4" height="1" fill="#040403"/>
<rect x="20" y="23" width="1" height="1" fill="#605422"/>
<rect x="21" y="23" width="2" height="1" fill="#040403"/>
<rect x="23" y="23" width="7" height="1" fill="#f6b358"/>
<rect x="30" y="23" width="2" height="1" fill="#040403"/>
<rect x="32" y="23" width="2" height="1" fill="#f6b358"/>
<rect x="34" y="23" width="1" height="1" fill="#a2560c"/>
<rect x="35" y="23" width="1" height="1" fill="#040403"/>
<rect x="17" y="24" width="1" height="1" fill="#040403"/>
<rect x="18" y="24" width="1" height="1" fill="#5c2608"/>
<rect x="19" y="24" width="1" height="1" fill="#040403"/>
<rect x="20" y="24" width="1" height="1" fill="#605422"/>
<rect x="21" y="24" width="12" height="1" fill="#f6b358"/>
<rect x="33" y="24" width="1" height="1" fill="#a2560c"/>
<rect x="34" y="24" width="1" height="1" fill="#040403"/>
<rect x="18" y="25" width="2" height="1" fill="#040403"/>
<rect x="20" y="25" width="1" height="1" fill="#5c2608"/>
<rect x="21" y="25" width="1" height="1" fill="#c96703"/>
<rect x="22" y="25" width="1" height="1" fill="#040403"/>
<rect x="23" y="25" width="7" height="1" fill="#f6b358"/>
<rect x="30" y="25" width="3" height="1" fill="#a2560c"/>
<rect x="33" y="25" width="1" height="1" fill="#5c2608"/>
<rect x="34" y="25" width="1" height="1" fill="#040403"/>
<rect x="16" y="26" width="6" height="1" fill="#040403"/>
<rect x="22" y="26" width="1" height="1" fill="#5c2608"/>
<rect x="23" y="26" width="1" height="1" fill="#040403"/>
<rect x="24" y="26" width="8" height="1" fill="#f6b358"/>
<rect x="32" y="26" width="1" height="1" fill="#605422"/>
<rect x="33" y="26" width="1" height="1" fill="#040403"/>
<rect x="13" y="27" width="12" height="1" fill="#040403"/>
<rect x="25" y="27" width="1" height="1" fill="#5c2608"/>
<rect x="26" y="27" width="1" height="1" fill="#a2560c"/>
<rect x="27" y="27" width="4" height="1" fill="#f6b358"/>
<rect x="31" y="27" width="1" height="1" fill="#605422"/>
<rect x="13" y="28" width="4" height="1" fill="#040403"/>
<rect x="17" y="28" width="4" height="1" fill="#175b02"/>
<rect x="21" y="28" width="10" height="1" fill="#040403"/>
<rect x="11" y="29" width="3" height="1" fill="#040403"/>
<rect x="14" y="29" width="4" height="1" fill="#175b02"/>
<rect x="18" y="29" width="1" height="1" fill="#2c8c01"/>
<rect x="19" y="29" width="4" height="1" fill="#175b02"/>
<rect x="23" y="29" width="8" height="1" fill="#040403"/>
<rect x="11" y="30" width="3" height="1" fill="#040403"/>
<rect x="14" y="30" width="2" height="1" fill="#175b02"/>
<rect x="16" y="30" width="5" height="1" fill="#2c8c01"/>
<rect x="21" y="30" width="2" height="1" fill="#175b02"/>
<rect x="23" y="30" width="8" height="1" fill="#040403"/>
<rect x="9" y="31" width="3" height="1" fill="#040403"/>
<rect x="12" y="31" width="1" height="1" fill="#175b02"/>
<rect x="13" y="31" width="7" height="1" fill="#2c8c01"/>
<rect x="20" y="31" width="5" height="1" fill="#175b02"/>
<rect x="25" y="31" width="7" height="1" fill="#040403"/>
<rect x="9" y="32" width="2" height="1" fill="#040403"/>
<rect x="11" y="32" width="2" height="1" fill="#175b02"/>
<rect x="13" y="32" width="6" height="1" fill="#2c8c01"/>
<rect x="19" y="32" width="5" height="1" fill="#175b02"/>
<rect x="24" y="32" width="1" height="1" fill="#2c8c01"/>
<rect x="25" y="32" width="7" height="1" fill="#040403"/>
<rect x="7" y="33" width="3" height="1" fill="#040403"/>
<rect x="10" y="33" width="1" height="1" fill="#175b02"/>
<rect x="11" y="33" width="7" height="1" fill="#2c8c01"/>
<rect x="18" y="33" width="6" height="1" fill="#175b02"/>
<rect x="24" y="33" width="4" height="1" fill="#2c8c01"/>
<rect x="28" y="33" width="2" height="1" fill="#175b02"/>
<rect x="30" y="33" width="2" height="1" fill="#040403"/>
<rect x="7" y="34" width="1" height="1" fill="#040403"/>
<rect x="8" y="34" width="1" height="1" fill="#5c2608"/>
<rect x="9" y="34" width="2" height="1" fill="#605422"/>
<rect x="11" y="34" width="2" height="1" fill="#175b02"/>
<rect x="13" y="34" width="4" height="1" fill="#2c8c01"/>
<rect x="17" y="34" width="3" height="1" fill="#175b02"/>
<rect x="20" y="34" width="1" height="1" fill="#040403"/>
<rect x="21" y="34" width="3" height="1" fill="#175b02"/>
<rect x="24" y="34" width="4" height="1" fill="#2c8c01"/>
<rect x="28" y="34" width="2" height="1" fill="#175b02"/>
<rect x="30" y="34" width="2" height="1" fill="#040403"/>
<rect x="5" y="35" width="2" height="1" fill="#040403"/>
<rect x="7" y="35" width="4" height="1" fill="#f6b358"/>
<rect x="11" y="35" width="1" height="1" fill="#040403"/>
<rect x="12" y="35" width="1" height="1" fill="#175b02"/>
<rect x="13" y="35" width="1" height="1" fill="#2c8c01"/>
<rect x="14" y="35" width="4" height="1" fill="#175b02"/>
<rect x="18" y="35" width="3" height="1" fill="#040403"/>
<rect x="21" y="35" width="3" height="1" fill="#175b02"/>
<rect x="24" y="35" width="4" height="1" fill="#2c8c01"/>
<rect x="28" y="35" width="2" height="1" fill="#175b02"/>
<rect x="30" y="35" width="2" height="1" fill="#040403"/>
<rect x="5" y="36" width="1" height="1" fill="#5c2608"/>
<rect x="6" y="36" width="1" height="1" fill="#605422"/>
<rect x="7" y="36" width="1" height="1" fill="#f6b358"/>
<rect x="8" y="36" width="1" height="1" fill="#040403"/>
<rect x="9" y="36" width="1" height="1" fill="#fcdca1"/>
<rect x="10" y="36" width="1" height="1" fill="#f6b358"/>
<rect x="11" y="36" width="2" height="1" fill="#605422"/>
<rect x="13" y="36" width="3" height="1" fill="#175b02"/>
<rect x="16" y="36" width="5" height="1" fill="#040403"/>
<rect x="21" y="36" width="3" height="1" fill="#175b02"/>
<rect x="24" y="36" width="5" height="1" fill="#2c8c01"/>
<rect x="29" y="36" width="1" height="1" fill="#175b02"/>
<rect x="30" y="36" width="2" height="1" fill="#040403"/>
<rect x="3" y="37" width="2" height="1" fill="#040403"/>
<rect x="5" y="37" width="1" height="1" fill="#a2560c"/>
<rect x="6" y="37" width="1" height="1" fill="#040403"/>
<rect x="7" y="37" width="4" height="1" fill="#fcdca1"/>
<rect x="11" y="37" width="1" height="1" fill="#040403"/>
<rect x="12" y="37" width="1" height="1" fill="#a2560c"/>
<rect x="13" y="37" width="2" height="1" fill="#040403"/>
<rect x="15" y="37" width="1" height="1" fill="#175b02"/>
<rect x="16" y="37" width="4" height="1" fill="#040403"/>
<rect x="20" y="37" width="4" height="1" fill="#175b02"/>
<rect x="24" y="37" width="4" height="1" fill="#2c8c01"/>
<rect x="28" y="37" width="2" height="1" fill="#175b02"/>
<rect x="30" y="37" width="3" height="1" fill="#040403"/>
<rect x="4" y="38" width="1" height="1" fill="#040403"/>
<rect x="5" y="38" width="1" height="1" fill="#a2560c"/>
<rect x="6" y="38" width="1" height="1" fill="#f6b358"/>
<rect x="7" y="38" width="2" height="1" fill="#fcdca1"/>
<rect x="9" y="38" width="3" height="1" fill="#040403"/>
<rect x="12" y="38" width="1" height="1" fill="#5c2608"/>
<rect x="13" y="38" width="6" height="1" fill="#040403"/>
<rect x="19" y="38" width="3" height="1" fill="#175b02"/>
<rect x="22" y="38" width="5" height="1" fill="#2c8c01"/>
<rect x="27" y="38" width="2" height="1" fill="#175b02"/>
<rect x="29" y="38" width="2" height="1" fill="#040403"/>
<rect x="4" y="39" width="1" height="1" fill="#040403"/>
<rect x="5" y="39" width="1" height="1" fill="#a2560c"/>
<rect x="6" y="39" width="1" height="1" fill="#f6b358"/>
<rect x="7" y="39" width="2" height="1" fill="#fcdca1"/>
<rect x="9" y="39" width="9" height="1" fill="#040403"/>
<rect x="18" y="39" width="4" height="1" fill="#175b02"/>
<rect x="22" y="39" width="5" height="1" fill="#2c8c01"/>
<rect x="27" y="39" width="1" height="1" fill="#175b02"/>
<rect x="28" y="39" width="3" height="1" fill="#040403"/>
<rect x="3" y="40" width="2" height="1" fill="#040403"/>
<rect x="5" y="40" width="1" height="1" fill="#a2560c"/>
<rect x="6" y="40" width="1" height="1" fill="#f6b358"/>
<rect x="7" y="40" width="1" height="1" fill="#605422"/>
<rect x="8" y="40" width="1" height="1" fill="#47026c"/>
<rect x="9" y="40" width="5" height="1" fill="#63019f"/>
<rect x="14" y="40" width="4" height="1" fill="#040403"/>
<rect x="18" y="40" width="4" height="1" fill="#175b02"/>
<rect x="22" y="40" width="3" height="1" fill="#2c8c01"/>
<rect x="25" y="40" width="2" height="1" fill="#175b02"/>
<rect x="27" y="40" width="7" height="1" fill="#040403"/>
<rect x="4" y="41" width="1" height="1" fill="#040403"/>
<rect x="5" y="41" width="1" height="1" fill="#a2560c"/>
<rect x="6" y="41" width="1" height="1" fill="#040403"/>
<rect x="7" y="41" width="1" height="1" fill="#5c2608"/>
<rect x="8" y="41" width="1" height="1" fill="#040403"/>
<rect x="9" y="41" width="4" height="1" fill="#8600d3"/>
<rect x="13" y="41" width="1" height="1" fill="#63019f"/>
<rect x="14" y="41" width="6" height="1" fill="#040403"/>
<rect x="20" y="41" width="2" height="1" fill="#175b02"/>
<rect x="22" y="41" width="2" height="1" fill="#2c8c01"/>
<rect x="24" y="41" width="3" height="1" fill="#175b02"/>
<rect x="27" y="41" width="7" height="1" fill="#040403"/>
<rect x="5" y="42" width="2" height="1" fill="#040403"/>
<rect x="7" y="42" width="2" height="1" fill="#63019f"/>
<rect x="9" y="42" width="1" height="1" fill="#040403"/>
<rect x="10" y="42" width="6" height="1" fill="#8600d3"/>
<rect x="16" y="42" width="2" height="1" fill="#63019f"/>
<rect x="18" y="42" width="2" height="1" fill="#040403"/>
<rect x="20" y="42" width="2" height="1" fill="#175b02"/>
<rect x="22" y="42" width="1" height="1" fill="#2c8c01"/>
<rect x="23" y="42" width="2" height="1" fill="#175b02"/>
<rect x="25" y="42" width="4" height="1" fill="#040403"/>
<rect x="29" y="42" width="1" height="1" fill="#47026c"/>
<rect x="30" y="42" width="2" height="1" fill="#63019f"/>
<rect x="32" y="42" width="1" height="1" fill="#040403"/>
<rect x="33" y="42" width="1" height="1" fill="#8600d3"/>
<rect x="34" y="42" width="2" height="1" fill="#040403"/>
<rect x="5" y="43" width="2" height="1" fill="#040403"/>
<rect x="7" y="43" width="2" height="1" fill="#63019f"/>
<rect x="9" y="43" width="2" height="1" fill="#040403"/>
<rect x="11" y="43" width="5" height="1" fill="#8600d3"/>
<rect x="16" y="43" width="1" height="1" fill="#040403"/>
<rect x="17" y="43" width="1" height="1" fill="#63019f"/>
<rect x="18" y="43" width="2" height="1" fill="#040403"/>
<rect x="20" y="43" width="2" height="1" fill="#175b02"/>
<rect x="22" y="43" width="1" height="1" fill="#2c8c01"/>
<rect x="23" y="43" width="2" height="1" fill="#175b02"/>
<rect x="25" y="43" width="4" height="1" fill="#040403"/>
<rect x="29" y="43" width="3" height="1" fill="#47026c"/>
<rect x="32" y="43" width="1" height="1" fill="#63019f"/>
<rect x="33" y="43" width="3" height="1" fill="#040403"/>
<rect x="5" y="44" width="2" height="1" fill="#040403"/>
<rect x="7" y="44" width="1" height="1" fill="#47026c"/>
<rect x="8" y="44" width="3" height="1" fill="#63019f"/>
<rect x="11" y="44" width="7" height="1" fill="#8600d3"/>
<rect x="18" y="44" width="2" height="1" fill="#040403"/>
<rect x="20" y="44" width="2" height="1" fill="#175b02"/>
<rect x="22" y="44" width="1" height="1" fill="#2c8c01"/>
<rect x="23" y="44" width="2" height="1" fill="#175b02"/>
<rect x="25" y="44" width="2" height="1" fill="#040403"/>
<rect x="27" y="44" width="2" height="1" fill="#63019f"/>
<rect x="29" y="44" width="1" height="1" fill="#47026c"/>
<rect x="30" y="44" width="3" height="1" fill="#040403"/>
<rect x="33" y="44" width="3" height="1" fill="#63019f"/>
<rect x="36" y="44" width="2" height="1" fill="#040403"/>
<rect x="6" y="45" width="3" height="1" fill="#040403"/>
<rect x="9" y="45" width="2" height="1" fill="#63019f"/>
<rect x="11" y="45" width="5" height="1" fill="#8600d3"/>
<rect x="16" y="45" width="1" height="1" fill="#040403"/>
<rect x="17" y="45" width="1" height="1" fill="#63019f"/>
<rect x="18" y="45" width="2" height="1" fill="#040403"/>
<rect x="20" y="45" width="5" height="1" fill="#175b02"/>
<rect x="25" y="45" width="2" height="1" fill="#040403"/>
<rect x="27" y="45" width="2" height="1" fill="#63019f"/>
<rect x="29" y="45" width="3" height="1" fill="#040403"/>
<rect x="32" y="45" width="1" height="1" fill="#47026c"/>
<rect x="33" y="45" width="3" height="1" fill="#63019f"/>
<rect x="36" y="45" width="2" height="1" fill="#040403"/>
<rect x="7" y="46" width="2" height="1" fill="#040403"/>
<rect x="9" y="46" width="2" height="1" fill="#63019f"/>
<rect x="11" y="46" width="5" height="1" fill="#8600d3"/>
<rect x="16" y="46" width="2" height="1" fill="#63019f"/>
<rect x="18" y="46" width="2" height="1" fill="#040403"/>
<rect x="20" y="46" width="4" height="1" fill="#175b02"/>
<rect x="24" y="46" width="3" height="1" fill="#040403"/>
<rect x="27" y="46" width="1" height="1" fill="#63019f"/>
<rect x="28" y="46" width="1" height="1" fill="#47026c"/>
<rect x="29" y="46" width="2" height="1" fill="#040403"/>
<rect x="31" y="46" width="5" height="1" fill="#63019f"/>
<rect x="36" y="46" width="2" height="1" fill="#040403"/>
<rect x="7" y="47" width="2" height="1" fill="#040403"/>
<rect x="9" y="47" width="3" height="1" fill="#63019f"/>
<rect x="12" y="47" width="1" height="1" fill="#040403"/>
<rect x="13" y="47" width="1" height="1" fill="#8600d3"/>
<rect x="14" y="47" width="2" height="1" fill="#040403"/>
<rect x="16" y="47" width="1" height="1" fill="#63019f"/>
<rect x="17" y="47" width="1" height="1" fill="#47026c"/>
<rect x="18" y="47" width="9" height="1" fill="#040403"/>
<rect x="27" y="47" width="1" height="1" fill="#63019f"/>
<rect x="28" y="47" width="3" height="1" fill="#040403"/>
<rect x="31" y="47" width="5" height="1" fill="#63019f"/>
<rect x="36" y="47" width="2" height="1" fill="#040403"/>
<rect x="7" y="48" width="2" height="1" fill="#040403"/>
<rect x="9" y="48" width="4" height="1" fill="#63019f"/>
<rect x="13" y="48" width="1" height="1" fill="#8600d3"/>
<rect x="14" y="48" width="2" height="1" fill="#63019f"/>
<rect x="16" y="48" width="1" height="1" fill="#47026c"/>
<rect x="17" y="48" width="10" height="1" fill="#040403"/>
<rect x="27" y="48" width="1" height="1" fill="#47026c"/>
<rect x="28" y="48" width="3" height="1" fill="#040403"/>
<rect x="31" y="48" width="4" height="1" fill="#63019f"/>
<rect x="35" y="48" width="1" height="1" fill="#47026c"/>
<rect x="36" y="48" width="2" height="1" fill="#040403"/>
<rect x="7" y="49" width="2" height="1" fill="#040403"/>
<rect x="9" y="49" width="2" height="1" fill="#47026c"/>
<rect x="11" y="49" width="5" height="1" fill="#63019f"/>
<rect x="16" y="49" width="2" height="1" fill="#040403"/>
<rect x="18" y="49" width="5" height="1" fill="#dc066b"/>
<rect x="23" y="49" width="1" height="1" fill="#5c2608"/>
<rect x="24" y="49" width="5" height="1" fill="#040403"/>
<rect x="29" y="49" width="4" height="1" fill="#47026c"/>
<rect x="33" y="49" width="1" height="1" fill="#63019f"/>
<rect x="34" y="49" width="2" height="1" fill="#040403"/>
<rect x="7" y="50" width="4" height="1" fill="#040403"/>
<rect x="11" y="50" width="5" height="1" fill="#47026c"/>
<rect x="16" y="50" width="1" height="1" fill="#040403"/>
<rect x="17" y="50" width="1" height="1" fill="#5c2608"/>
<rect x="18" y="50" width="1" height="1" fill="#dc066b"/>
<rect x="19" y="50" width="2" height="1" fill="#fd0e84"/>
<rect x="21" y="50" width="2" height="1" fill="#dc066b"/>
<rect x="23" y="50" width="1" height="1" fill="#5c2608"/>
<rect x="24" y="50" width="5" height="1" fill="#040403"/>
<rect x="29" y="50" width="2" height="1" fill="#47026c"/>
<rect x="31" y="50" width="2" height="1" fill="#040403"/>
<rect x="33" y="50" width="1" height="1" fill="#47026c"/>
<rect x="34" y="50" width="2" height="1" fill="#040403"/>
<rect x="9" y="51" width="7" height="1" fill="#040403"/>
<rect x="16" y="51" width="1" height="1" fill="#dc066b"/>
<rect x="17" y="51" width="4" height="1" fill="#fd0e84"/>
<rect x="21" y="51" width="2" height="1" fill="#dc066b"/>
<rect x="23" y="51" width="1" height="1" fill="#040403"/>
<rect x="24" y="51" width="1" height="1" fill="#5c2608"/>
<rect x="25" y="51" width="2" height="1" fill="#040403"/>
<rect x="29" y="51" width="5" height="1" fill="#040403"/>
<rect x="4" y="52" width="7" height="1" fill="#040403"/>
<rect x="11" y="52" width="5" height="1" fill="#5c2608"/>
<rect x="16" y="52" width="1" height="1" fill="#dc066b"/>
<rect x="17" y="52" width="4" height="1" fill="#fd0e84"/>
<rect x="21" y="52" width="3" height="1" fill="#dc066b"/>
<rect x="24" y="52" width="3" height="1" fill="#040403"/>
<rect x="29" y="52" width="5" height="1" fill="#040403"/>
<rect x="4" y="53" width="8" height="1" fill="#040403"/>
<rect x="12" y="53" width="3" height="1" fill="#dc066b"/>
<rect x="15" y="53" width="10" height="1" fill="#fd0e84"/>
<rect x="25" y="53" width="2" height="1" fill="#040403"/>
<rect x="2" y="54" width="2" height="1" fill="#040403"/>
<rect x="4" y="54" width="3" height="1" fill="#a3a1a1"/>
<rect x="7" y="54" width="1" height="1" fill="#175b02"/>
<rect x="8" y="54" width="4" height="1" fill="#040403"/>
<rect x="12" y="54" width="1" height="1" fill="#5c2608"/>
<rect x="13" y="54" width="4" height="1" fill="#dc066b"/>
<rect x="17" y="54" width="8" height="1" fill="#fd0e84"/>
<rect x="25" y="54" width="2" height="1" fill="#040403"/>
<rect x="2" y="55" width="2" height="1" fill="#040403"/>
<rect x="4" y="55" width="3" height="1" fill="#f1efee"/>
<rect x="7" y="55" width="5" height="1" fill="#040403"/>
<rect x="12" y="55" width="1" height="1" fill="#5c2608"/>
<rect x="13" y="55" width="2" height="1" fill="#dc066b"/>
<rect x="15" y="55" width="1" height="1" fill="#040403"/>
<rect x="16" y="55" width="1" height="1" fill="#dc066b"/>
<rect x="17" y="55" width="1" height="1" fill="#fd0e84"/>
<rect x="18" y="55" width="1" height="1" fill="#dc066b"/>
<rect x="19" y="55" width="6" height="1" fill="#fd0e84"/>
<rect x="25" y="55" width="2" height="1" fill="#040403"/>
<rect x="2" y="56" width="1" height="1" fill="#040403"/>
<rect x="3" y="56" width="1" height="1" fill="#5c2608"/>
<rect x="4" y="56" width="3" height="1" fill="#f1efee"/>
<rect x="7" y="56" width="1" height="1" fill="#175b02"/>
<rect x="8" y="56" width="1" height="1" fill="#040403"/>
<rect x="9" y="56" width="1" height="1" fill="#175b02"/>
<rect x="10" y="56" width="5" height="1" fill="#040403"/>
<rect x="15" y="56" width="5" height="1" fill="#dc066b"/>
<rect x="20" y="56" width="1" height="1" fill="#040403"/>
<rect x="21" y="56" width="1" height="1" fill="#5c2608"/>
<rect x="22" y="56" width="1" height="1" fill="#040403"/>
<rect x="23" y="56" width="2" height="1" fill="#5c2608"/>
<rect x="25" y="56" width="2" height="1" fill="#040403"/>
<rect x="2" y="57" width="2" height="1" fill="#040403"/>
<rect x="4" y="57" width="3" height="1" fill="#f1efee"/>
<rect x="7" y="57" width="1" height="1" fill="#175b02"/>
<rect x="8" y="57" width="1" height="1" fill="#040403"/>
<rect x="9" y="57" width="2" height="1" fill="#175b02"/>
<rect x="11" y="57" width="7" height="1" fill="#040403"/>
<rect x="18" y="57" width="1" height="1" fill="#dc066b"/>
<rect x="19" y="57" width="8" height="1" fill="#040403"/>
<rect x="0" y="58" width="2" height="1" fill="#040403"/>
<rect x="2" y="58" width="1" height="1" fill="#a3a1a1"/>
<rect x="3" y="58" width="4" height="1" fill="#f1efee"/>
<rect x="7" y="58" width="1" height="1" fill="#175b02"/>
<rect x="8" y="58" width="1" height="1" fill="#040403"/>
<rect x="9" y="58" width="3" height="1" fill="#175b02"/>
<rect x="12" y="58" width="7" height="1" fill="#040403"/>
<rect x="19" y="58" width="1" height="1" fill="#5c2608"/>
<rect x="20" y="58" width="3" height="1" fill="#f6b358"/>
<rect x="23" y="58" width="1" height="1" fill="#5c2608"/>
<rect x="24" y="58" width="1" height="1" fill="#040403"/>
<rect x="0" y="59" width="2" height="1" fill="#040403"/>
<rect x="2" y="59" width="5" height="1" fill="#f1efee"/>
<rect x="7" y="59" width="2" height="1" fill="#040403"/>
<rect x="9" y="59" width="4" height="1" fill="#175b02"/>
<rect x="13" y="59" width="6" height="1" fill="#040403"/>
<rect x="19" y="59" width="1" height="1" fill="#605422"/>
<rect x="20" y="59" width="1" height="1" fill="#040403"/>
<rect x="21" y="59" width="2" height="1" fill="#f6b358"/>
<rect x="23" y="59" width="1" height="1" fill="#5c2608"/>
<rect x="24" y="59" width="1" height="1" fill="#040403"/>
<rect x="0" y="60" width="2" height="1" fill="#040403"/>
<rect x="2" y="60" width="5" height="1" fill="#f1efee"/>
<rect x="7" y="60" width="2" height="1" fill="#a3a1a1"/>
<rect x="9" y="60" width="2" height="1" fill="#040403"/>
<rect x="11" y="60" width="3" height="1" fill="#175b02"/>
<rect x="14" y="60" width="3" height="1" fill="#040403"/>
<rect x="17" y="60" width="2" height="1" fill="#f6b358"/>
<rect x="19" y="60" width="4" height="1" fill="#fcdca1"/>
<rect x="23" y="60" width="1" height="1" fill="#605422"/>
<rect x="24" y="60" width="1" height="1" fill="#040403"/>
<rect x="0" y="61" width="2" height="1" fill="#040403"/>
<rect x="2" y="61" width="5" height="1" fill="#f1efee"/>
<rect x="7" y="61" width="1" height="1" fill="#a3a1a1"/>
<rect x="8" y="61" width="6" height="1" fill="#040403"/>
<rect x="14" y="61" width="2" height="1" fill="#605422"/>
<rect x="16" y="61" width="1" height="1" fill="#f6b358"/>
<rect x="17" y="61" width="1" height="1" fill="#040403"/>
<rect x="18" y="61" width="3" height="1" fill="#fcdca1"/>
<rect x="21" y="61" width="1" height="1" fill="#f6b358"/>
<rect x="22" y="61" width="1" height="1" fill="#040403"/>
<rect x="23" y="61" width="1" height="1" fill="#5c2608"/>
<rect x="24" y="61" width="1" height="1" fill="#040403"/>
<rect x="0" y="62" width="2" height="1" fill="#040403"/>
<rect x="2" y="62" width="5" height="1" fill="#f1efee"/>
<rect x="7" y="62" width="9" height="1" fill="#040403"/>
<rect x="16" y="62" width="4" height="1" fill="#fcdca1"/>
<rect x="20" y="62" width="1" height="1" fill="#040403"/>
<rect x="21" y="62" width="1" height="1" fill="#a2560c"/>
<rect x="22" y="62" width="1" height="1" fill="#040403"/>
<rect x="0" y="63" width="2" height="1" fill="#040403"/>
<rect x="2" y="63" width="3" height="1" fill="#f1efee"/>
<rect x="5" y="63" width="1" height="1" fill="#a3a1a1"/>
<rect x="6" y="63" width="3" height="1" fill="#040403"/>
<rect x="10" y="63" width="3" height="1" fill="#040403"/>
<rect x="13" y="63" width="1" height="1" fill="#a2560c"/>
<rect x="14" y="63" width="1" height="1" fill="#f6b358"/>
<rect x="15" y="63" width="4" height="1" fill="#fcdca1"/>
<rect x="19" y="63" width="1" height="1" fill="#f6b358"/>
<rect x="20" y="63" width="1" height="1" fill="#605422"/>
<rect x="21" y="63" width="1" height="1" fill="#5c2608"/>
<rect x="22" y="63" width="1" height="1" fill="#040403"/>
<rect x="0" y="64" width="2" height="1" fill="#040403"/>
<rect x="2" y="64" width="3" height="1" fill="#f1efee"/>
<rect x="5" y="64" width="2" height="1" fill="#040403"/>
<rect x="11" y="64" width="1" height="1" fill="#040403"/>
<rect x="12" y="64" width="1" height="1" fill="#605422"/>
<rect x="13" y="64" width="1" height="1" fill="#f6b358"/>
<rect x="14" y="64" width="4" height="1" fill="#fcdca1"/>
<rect x="18" y="64" width="1" height="1" fill="#040403"/>
<rect x="19" y="64" width="1" height="1" fill="#f6b358"/>
<rect x="20" y="64" width="2" height="1" fill="#040403"/>
<rect x="2" y="65" width="4" height="1" fill="#040403"/>
<rect x="11" y="65" width="2" height="1" fill="#040403"/>
<rect x="13" y="65" width="1" height="1" fill="#175b02"/>
<rect x="14" y="65" width="2" height="1" fill="#605422"/>
<rect x="16" y="65" width="2" height="1" fill="#040403"/>
<rect x="18" y="65" width="1" height="1" fill="#605422"/>
<rect x="19" y="65" width="1" height="1" fill="#175b02"/>
<rect x="20" y="65" width="2" height="1" fill="#040403"/>
<rect x="2" y="66" width="3" height="1" fill="#040403"/>
<rect x="11" y="66" width="2" height="1" fill="#040403"/>
<rect x="13" y="66" width="4" height="1" fill="#175b02"/>
<rect x="17" y="66" width="1" height="1" fill="#2c8c01"/>
<rect x="18" y="66" width="1" height="1" fill="#175b02"/>
<rect x="19" y="66" width="3" height="1" fill="#040403"/>
<rect x="9" y="67" width="4" height="1" fill="#040403"/>
<rect x="13" y="67" width="5" height="1" fill="#175b02"/>
<rect x="18" y="67" width="2" height="1" fill="#040403"/>
<rect x="9" y="68" width="4" height="1" fill="#040403"/>
<rect x="13" y="68" width="5" height="1" fill="#175b02"/>
<rect x="18" y="68" width="2" height="1" fill="#040403"/>
<rect x="7" y="69" width="3" height="1" fill="#040403"/>
<rect x="10" y="69" width="1" height="1" fill="#a3a1a1"/>
<rect x="11" y="69" width="1" height="1" fill="#f1efee"/>
<rect x="12" y="69" width="6" height="1" fill="#040403"/>
<rect x="18" y="69" width="1" height="1" fill="#a3a1a1"/>
<rect x="19" y="69" width="3" height="1" fill="#040403"/>
<rect x="7" y="70" width="2" height="1" fill="#040403"/>
<rect x="9" y="70" width="2" height="1" fill="#a3a1a1"/>
<rect x="11" y="70" width="1" height="1" fill="#f1efee"/>
<rect x="12" y="70" width="1" height="1" fill="#a3a1a1"/>
<rect x="13" y="70" width="5" height="1" fill="#040403"/>
<rect x="18" y="70" width="2" height="1" fill="#a3a1a1"/>
<rect x="20" y="70" width="2" height="1" fill="#040403"/>
<rect x="7" y="71" width="2" height="1" fill="#040403"/>
<rect x="9" y="71" width="1" height="1" fill="#a3a1a1"/>
<rect x="10" y="71" width="11" height="1" fill="#f1efee"/>
<rect x="21" y="71" width="1" height="1" fill="#a3a1a1"/>
<rect x="22" y="71" width="1" height="1" fill="#040403"/>
<rect x="7" y="72" width="2" height="1" fill="#040403"/>
<rect x="9" y="72" width="2" height="1" fill="#a3a1a1"/>
<rect x="11" y="72" width="10" height="1" fill="#f1efee"/>
<rect x="21" y="72" width="1" height="1" fill="#a3a1a1"/>
<rect x="22" y="72" width="1" height="1" fill="#040403"/>
<rect x="7" y="73" width="2" height="1" fill="#040403"/>
<rect x="9" y="73" width="4" height="1" fill="#a3a1a1"/>
<rect x="13" y="73" width="8" height="1" fill="#f1efee"/>
<rect x="21" y="73" width="1" height="1" fill="#a3a1a1"/>
<rect x="22" y="73" width="1" height="1" fill="#040403"/>
<rect x="9" y="74" width="13" height="1" fill="#040403"/>
<rect x="9" y="75" width="13" height="1" fill="#040403"/>
</svg>
