<svg xmlns="http://www.w3.org/2000/svg" viewBox="0 0 45 76" shape-rendering="crispEdges" width="45" height="76">
<rect x="30" y="0" width="2" height="1" fill="#030302"/>
<rect x="29" y="1" width="1" height="1" fill="#030302"/>
<rect x="30" y="1" width="2" height="1" fill="#5d240c"/>
<rect x="32" y="1" width="1" height="1" fill="#030302"/>
<rect x="34" y="1" width="4" height="1" fill="#030302"/>
<rect x="39" y="1" width="3" height="1" fill="#030302"/>
<rect x="26" y="2" width="4" height="1" fill="#030302"/>
<rect x="30" y="2" width="2" height="1" fill="#a35208"/>
<rect x="32" y="2" width="2" height="1" fill="#030302"/>
<rect x="34" y="2" width="1" height="1" fill="#5d240c"/>
<rect x="35" y="2" width="1" height="1" fill="#a35208"/>
<rect x="36" y="2" width="4" height="1" fill="#030302"/>
<rect x="40" y="2" width="1" height="1" fill="#5d240c"/>
<rect x="41" y="2" width="1" height="1" fill="#030302"/>
<rect x="24" y="3" width="3" height="1" fill="#030302"/>
<rect x="27" y="3" width="2" height="1" fill="#5d240c"/>
<rect x="29" y="3" width="2" height="1" fill="#a35208"/>
<rect x="31" y="3" width="2" height="1" fill="#030302"/>
<rect x="33" y="3" width="1" height="1" fill="#5d240c"/>
<rect x="34" y="3" width="1" height="1" fill="#cc6905"/>
<rect x="35" y="3" width="1" height="1" fill="#a35208"/>
<rect x="36" y="3" width="2" height="1" fill="#030302"/>
<rect x="38" y="3" width="1" height="1" fill="#a35208"/>
<rect x="39" y="3" width="1" height="1" fill="#cc6905"/>
<rect x="40" y="3" width="1" height="1" fill="#5d240c"/>
<rect x="41" y="3" width="1" height="1" fill="#030302"/>
<rect x="22" y="4" width="3" height="1" fill="#030302"/>
<rect x="25" y="4" width="2" height="1" fill="#5d240c"/>
<rect x="27" y="4" width="1" height="1" fill="#a35208"/>
<rect x="28" y="4" width="1" height="1" fill="#cc6905"/>
<rect x="29" y="4" width="1" height="1" fill="#a35208"/>
<rect x="30" y="4" width="2" height="1" fill="#5d240c"/>
<rect x="32" y="4" width="3" height="1" fill="#a35208"/>
<rect x="35" y="4" width="2" height="1" fill="#5d240c"/>
<rect x="37" y="4" width="1" height="1" fill="#a35208"/>
<rect x="38" y="4" width="2" height="1" fill="#cc6905"/>
<rect x="40" y="4" width="1" height="1" fill="#5d240c"/>
<rect x="41" y="4" width="1" height="1" fill="#030302"/>
<rect x="21" y="5" width="2" height="1" fill="#030302"/>
<rect x="23" y="5" width="2" height="1" fill="#5d240c"/>
<rect x="25" y="5" width="2" height="1" fill="#a35208"/>
<rect x="27" y="5" width="1" height="1" fill="#cc6905"/>
<rect x="28" y="5" width="1" height="1" fill="#a35208"/>
<rect x="29" y="5" width="2" height="1" fill="#5d240c"/>
<rect x="31" y="5" width="1" height="1" fill="#a35208"/>
<rect x="32" y="5" width="1" height="1" fill="#cc6905"/>
<rect x="33" y="5" width="1" height="1" fill="#a35208"/>
<rect x="34" y="5" width="2" height="1" fill="#5d240c"/>
<rect x="36" y="5" width="1" height="1" fill="#a35208"/>
<rect x="37" y="5" width="2" height="1" fill="#cc6905"/>
<rect x="39" y="5" width="3" height="1" fill="#5d240c"/>
<rect x="42" y="5" width="1" height="1" fill="#030302"/>
<rect x="21" y="6" width="1" height="1" fill="#030302"/>
<rect x="22" y="6" width="1" height="1" fill="#5d240c"/>
<rect x="23" y="6" width="4" height="1" fill="#a35208"/>
<rect x="27" y="6" width="2" height="1" fill="#5d240c"/>
<rect x="29" y="6" width="3" height="1" fill="#a35208"/>
<rect x="32" y="6" width="3" height="1" fill="#5d240c"/>
<rect x="35" y="6" width="1" height="1" fill="#a35208"/>
<rect x="36" y="6" width="1" height="1" fill="#cc6905"/>
<rect x="37" y="6" width="4" height="1" fill="#a35208"/>
<rect x="41" y="6" width="2" height="1" fill="#030302"/>
<rect x="20" y="7" width="3" height="1" fill="#030302"/>
<rect x="23" y="7" width="4" height="1" fill="#5d240c"/>
<rect x="27" y="7" width="1" height="1" fill="#030302"/>
<rect x="28" y="7" width="6" height="1" fill="#5d240c"/>
<rect x="34" y="7" width="1" height="1" fill="#a35208"/>
<rect x="35" y="7" width="1" height="1" fill="#cc6905"/>
<rect x="36" y="7" width="1" height="1" fill="#a35208"/>
<rect x="37" y="7" width="1" height="1" fill="#5d240c"/>
<rect x="38" y="7" width="1" height="1" fill="#a35208"/>
<rect x="39" y="7" width="1" height="1" fill="#cc6905"/>
<rect x="40" y="7" width="1" height="1" fill="#a35208"/>
<rect x="41" y="7" width="1" height="1" fill="#030302"/>
<rect x="19" y="8" width="1" height="1" fill="#030302"/>
<rect x="20" y="8" width="14" height="1" fill="#5d240c"/>
<rect x="34" y="8" width="2" height="1" fill="#a35208"/>
<rect x="36" y="8" width="1" height="1" fill="#5d240c"/>
<rect x="37" y="8" width="2" height="1" fill="#a35208"/>
<rect x="39" y="8" width="1" height="1" fill="#5d240c"/>
<rect x="40" y="8" width="1" height="1" fill="#030302"/>
<rect x="19" y="9" width="1" height="1" fill="#030302"/>
<rect x="20" y="9" width="1" height="1" fill="#a35208"/>
<rect x="21" y="9" width="2" height="1" fill="#5d240c"/>
<rect x="23" y="9" width="3" height="1" fill="#a35208"/>
<rect x="26" y="9" width="3" height="1" fill="#cc6905"/>
<rect x="29" y="9" width="4" height="1" fill="#a35208"/>
<rect x="33" y="9" width="3" height="1" fill="#5d240c"/>
<rect x="36" y="9" width="2" height="1" fill="#a35208"/>
<rect x="38" y="9" width="1" height="1" fill="#5d240c"/>
<rect x="39" y="9" width="1" height="1" fill="#030302"/>
<rect x="18" y="10" width="1" height="1" fill="#030302"/>
<rect x="19" y="10" width="3" height="1" fill="#5d240c"/>
<rect x="22" y="10" width="1" height="1" fill="#a35208"/>
<rect x="23" y="10" width="4" height="1" fill="#cc6905"/>
<rect x="27" y="10" width="3" height="1" fill="#e9902e"/>
<rect x="30" y="10" width="1" height="1" fill="#cc6905"/>
<rect x="31" y="10" width="2" height="1" fill="#e9902e"/>
<rect x="33" y="10" width="1" height="1" fill="#a35208"/>
<rect x="34" y="10" width="2" height="1" fill="#5d240c"/>
<rect x="36" y="10" width="1" height="1" fill="#a35208"/>
<rect x="37" y="10" width="1" height="1" fill="#5d240c"/>
<rect x="38" y="10" width="1" height="1" fill="#030302"/>
<rect x="18" y="11" width="2" height="1" fill="#030302"/>
<rect x="20" y="11" width="1" height="1" fill="#5d240c"/>
<rect x="21" y="11" width="2" height="1" fill="#a35208"/>
<rect x="23" y="11" width="3" height="1" fill="#cc6905"/>
<rect x="26" y="11" width="1" height="1" fill="#a35208"/>
<rect x="27" y="11" width="1" height="1" fill="#cc6905"/>
<rect x="28" y="11" width="4" height="1" fill="#e9902e"/>
<rect x="32" y="11" width="3" height="1" fill="#f5b058"/>
<rect x="35" y="11" width="1" height="1" fill="#e9902e"/>
<rect x="36" y="11" width="1" height="1" fill="#63531e"/>
<rect x="37" y="11" width="2" height="1" fill="#030302"/>
<rect x="18" y="12" width="1" height="1" fill="#030302"/>
<rect x="19" y="12" width="2" height="1" fill="#5d240c"/>
<rect x="21" y="12" width="3" height="1" fill="#a35208"/>
<rect x="24" y="12" width="1" height="1" fill="#cc6905"/>
<rect x="25" y="12" width="1" height="1" fill="#a35208"/>
<rect x="26" y="12" width="3" height="1" fill="#cc6905"/>
<rect x="29" y="12" width="1" height="1" fill="#e9902e"/>
<rect x="30" y="12" width="7" height="1" fill="#f5b058"/>
<rect x="37" y="12" width="1" height="1" fill="#e9902e"/>
<rect x="38" y="12" width="1" height="1" fill="#5d240c"/>
<rect x="39" y="12" width="1" height="1" fill="#030302"/>
<rect x="18" y="13" width="1" height="1" fill="#030302"/>
<rect x="19" y="13" width="1" height="1" fill="#5d240c"/>
<rect x="20" y="13" width="4" height="1" fill="#a35208"/>
<rect x="24" y="13" width="3" height="1" fill="#cc6905"/>
<rect x="27" y="13" width="1" height="1" fill="#a35208"/>
<rect x="28" y="13" width="1" height="1" fill="#cc6905"/>
<rect x="29" y="13" width="1" height="1" fill="#e9902e"/>
<rect x="30" y="13" width="7" height="1" fill="#f5b058"/>
<rect x="37" y="13" width="1" height="1" fill="#030302"/>
<rect x="38" y="13" width="1" height="1" fill="#63531e"/>
<rect x="39" y="13" width="1" height="1" fill="#030302"/>
<rect x="18" y="14" width="1" height="1" fill="#030302"/>
<rect x="19" y="14" width="1" height="1" fill="#5d240c"/>
<rect x="20" y="14" width="2" height="1" fill="#a35208"/>
<rect x="22" y="14" width="5" height="1" fill="#cc6905"/>
<rect x="27" y="14" width="1" height="1" fill="#a35208"/>
<rect x="28" y="14" width="1" height="1" fill="#cc6905"/>
<rect x="29" y="14" width="1" height="1" fill="#e9902e"/>
<rect x="30" y="14" width="7" height="1" fill="#f5b058"/>
<rect x="37" y="14" width="1" height="1" fill="#030302"/>
<rect x="38" y="14" width="1" height="1" fill="#63531e"/>
<rect x="39" y="14" width="1" height="1" fill="#030302"/>
<rect x="18" y="15" width="2" height="1" fill="#030302"/>
<rect x="20" y="15" width="1" height="1" fill="#a35208"/>
<rect x="21" y="15" width="8" height="1" fill="#cc6905"/>
<rect x="29" y="15" width="1" height="1" fill="#e9902e"/>
<rect x="30" y="15" width="1" height="1" fill="#030302"/>
<rect x="31" y="15" width="1" height="1" fill="#f5b058"/>
<rect x="32" y="15" width="3" height="1" fill="#5d240c"/>
<rect x="35" y="15" width="1" height="1" fill="#f5b058"/>
<rect x="36" y="15" width="1" height="1" fill="#030302"/>
<rect x="37" y="15" width="1" height="1" fill="#f5b058"/>
<rect x="38" y="15" width="1" height="1" fill="#e9902e"/>
<rect x="39" y="15" width="1" height="1" fill="#63531e"/>
<rect x="40" y="15" width="1" height="1" fill="#030302"/>
<rect x="18" y="16" width="1" height="1" fill="#030302"/>
<rect x="19" y="16" width="1" height="1" fill="#5d240c"/>
<rect x="20" y="16" width="2" height="1" fill="#a35208"/>
<rect x="22" y="16" width="5" height="1" fill="#cc6905"/>
<rect x="27" y="16" width="1" height="1" fill="#a35208"/>
<rect x="28" y="16" width="1" height="1" fill="#e9902e"/>
<rect x="29" y="16" width="3" height="1" fill="#f5b058"/>
<rect x="32" y="16" width="1" height="1" fill="#cc6905"/>
<rect x="33" y="16" width="1" height="1" fill="#a35208"/>
<rect x="34" y="16" width="3" height="1" fill="#5d240c"/>
<rect x="37" y="16" width="2" height="1" fill="#f5b058"/>
<rect x="39" y="16" width="1" height="1" fill="#63531e"/>
<rect x="40" y="16" width="1" height="1" fill="#030302"/>
<rect x="17" y="17" width="2" height="1" fill="#030302"/>
<rect x="19" y="17" width="1" height="1" fill="#5d240c"/>
<rect x="20" y="17" width="4" height="1" fill="#a35208"/>
<rect x="24" y="17" width="1" height="1" fill="#5d240c"/>
<rect x="25" y="17" width="1" height="1" fill="#030302"/>
<rect x="26" y="17" width="1" height="1" fill="#a35208"/>
<rect x="27" y="17" width="1" height="1" fill="#cc6905"/>
<rect x="28" y="17" width="1" height="1" fill="#e9902e"/>
<rect x="29" y="17" width="1" height="1" fill="#f5b058"/>
<rect x="30" y="17" width="1" height="1" fill="#030302"/>
<rect x="31" y="17" width="1" height="1" fill="#e9902e"/>
<rect x="32" y="17" width="4" height="1" fill="#030302"/>
<rect x="36" y="17" width="1" height="1" fill="#a35208"/>
<rect x="37" y="17" width="1" height="1" fill="#f5b058"/>
<rect x="38" y="17" width="1" height="1" fill="#e9902e"/>
<rect x="39" y="17" width="1" height="1" fill="#63531e"/>
<rect x="40" y="17" width="1" height="1" fill="#030302"/>
<rect x="18" y="18" width="1" height="1" fill="#030302"/>
<rect x="19" y="18" width="1" height="1" fill="#5d240c"/>
<rect x="20" y="18" width="3" height="1" fill="#a35208"/>
<rect x="23" y="18" width="1" height="1" fill="#5d240c"/>
<rect x="24" y="18" width="1" height="1" fill="#a35208"/>
<rect x="25" y="18" width="1" height="1" fill="#030302"/>
<rect x="26" y="18" width="2" height="1" fill="#5d240c"/>
<rect x="28" y="18" width="1" height="1" fill="#e9902e"/>
<rect x="29" y="18" width="3" height="1" fill="#f5b058"/>
<rect x="32" y="18" width="4" height="1" fill="#030302"/>
<rect x="36" y="18" width="1" height="1" fill="#cc6905"/>
<rect x="37" y="18" width="1" height="1" fill="#030302"/>
<rect x="38" y="18" width="1" height="1" fill="#a35208"/>
<rect x="39" y="18" width="1" height="1" fill="#030302"/>
<rect x="19" y="19" width="2" height="1" fill="#030302"/>
<rect x="21" y="19" width="2" height="1" fill="#a35208"/>
<rect x="23" y="19" width="1" height="1" fill="#030302"/>
<rect x="24" y="19" width="1" height="1" fill="#f5b058"/>
<rect x="25" y="19" width="1" height="1" fill="#e9902e"/>
<rect x="26" y="19" width="2" height="1" fill="#a35208"/>
<rect x="28" y="19" width="1" height="1" fill="#e9902e"/>
<rect x="29" y="19" width="1" height="1" fill="#030302"/>
<rect x="30" y="19" width="1" height="1" fill="#f5b058"/>
<rect x="31" y="19" width="1" height="1" fill="#fadb9e"/>
<rect x="32" y="19" width="2" height="1" fill="#ecebe9"/>
<rect x="34" y="19" width="2" height="1" fill="#030302"/>
<rect x="36" y="19" width="1" height="1" fill="#a35208"/>
<rect x="37" y="19" width="1" height="1" fill="#030302"/>
<rect x="38" y="19" width="1" height="1" fill="#63531e"/>
<rect x="39" y="19" width="1" height="1" fill="#030302"/>
<rect x="19" y="20" width="2" height="1" fill="#030302"/>
<rect x="21" y="20" width="2" height="1" fill="#a35208"/>
<rect x="23" y="20" width="1" height="1" fill="#030302"/>
<rect x="24" y="20" width="1" height="1" fill="#f5b058"/>
<rect x="25" y="20" width="1" height="1" fill="#a35208"/>
<rect x="26" y="20" width="2" height="1" fill="#e9902e"/>
<rect x="28" y="20" width="3" height="1" fill="#f5b058"/>
<rect x="31" y="20" width="1" height="1" fill="#fadb9e"/>
<rect x="32" y="20" width="2" height="1" fill="#ecebe9"/>
<rect x="34" y="20" width="2" height="1" fill="#030302"/>
<rect x="36" y="20" width="1" height="1" fill="#e9902e"/>
<rect x="37" y="20" width="1" height="1" fill="#030302"/>
<rect x="38" y="20" width="1" height="1" fill="#5d240c"/>
<rect x="39" y="20" width="1" height="1" fill="#030302"/>
<rect x="20" y="21" width="1" height="1" fill="#030302"/>
<rect x="21" y="21" width="2" height="1" fill="#a35208"/>
<rect x="23" y="21" width="1" height="1" fill="#030302"/>
<rect x="24" y="21" width="1" height="1" fill="#f5b058"/>
<rect x="25" y="21" width="2" height="1" fill="#e9902e"/>
<rect x="27" y="21" width="4" height="1" fill="#f5b058"/>
<rect x="31" y="21" width="1" height="1" fill="#fadb9e"/>
<rect x="32" y="21" width="2" height="1" fill="#ecebe9"/>
<rect x="34" y="21" width="2" height="1" fill="#030302"/>
<rect x="36" y="21" width="1" height="1" fill="#f5b058"/>
<rect x="37" y="21" width="1" height="1" fill="#030302"/>
<rect x="38" y="21" width="1" height="1" fill="#a35208"/>
<rect x="39" y="21" width="1" height="1" fill="#5d240c"/>
<rect x="20" y="22" width="1" height="1" fill="#030302"/>
<rect x="21" y="22" width="1" height="1" fill="#5d240c"/>
<rect x="22" y="22" width="2" height="1" fill="#030302"/>
<rect x="24" y="22" width="1" height="1" fill="#a35208"/>
<rect x="25" y="22" width="1" height="1" fill="#f5b058"/>
<rect x="26" y="22" width="1" height="1" fill="#cc6905"/>
<rect x="27" y="22" width="1" height="1" fill="#e9902e"/>
<rect x="28" y="22" width="3" height="1" fill="#f5b058"/>
<rect x="31" y="22" width="1" height="1" fill="#030302"/>
<rect x="32" y="22" width="1" height="1" fill="#ecebe9"/>
<rect x="33" y="22" width="1" height="1" fill="#fadb9e"/>
<rect x="34" y="22" width="2" height="1" fill="#63531e"/>
<rect x="36" y="22" width="2" height="1" fill="#f5b058"/>
<rect x="38" y="22" width="1" height="1" fill="#030302"/>
<rect x="39" y="22" width="1" height="1" fill="#a35208"/>
<rect x="40" y="22" width="1" height="1" fill="#030302"/>
<rect x="21" y="23" width="1" height="1" fill="#030302"/>
<rect x="22" y="23" width="2" height="1" fill="#5d240c"/>
<rect x="24" y="23" width="1" height="1" fill="#030302"/>
<rect x="25" y="23" width="1" height="1" fill="#f5b058"/>
<rect x="26" y="23" width="2" height="1" fill="#e9902e"/>
<rect x="28" y="23" width="7" height="1" fill="#f5b058"/>
<rect x="35" y="23" width="1" height="1" fill="#030302"/>
<rect x="36" y="23" width="3" height="1" fill="#f5b058"/>
<rect x="39" y="23" width="1" height="1" fill="#63531e"/>
<rect x="22" y="24" width="1" height="1" fill="#030302"/>
<rect x="23" y="24" width="1" height="1" fill="#5d240c"/>
<rect x="24" y="24" width="1" height="1" fill="#030302"/>
<rect x="25" y="24" width="1" height="1" fill="#e9902e"/>
<rect x="26" y="24" width="12" height="1" fill="#f5b058"/>
<rect x="38" y="24" width="1" height="1" fill="#5d240c"/>
<rect x="39" y="24" width="1" height="1" fill="#030302"/>
<rect x="23" y="25" width="2" height="1" fill="#030302"/>
<rect x="25" y="25" width="2" height="1" fill="#a35208"/>
<rect x="27" y="25" width="8" height="1" fill="#f5b058"/>
<rect x="35" y="25" width="3" height="1" fill="#a35208"/>
<rect x="38" y="25" width="2" height="1" fill="#030302"/>
<rect x="22" y="26" width="5" height="1" fill="#030302"/>
<rect x="27" y="26" width="1" height="1" fill="#a35208"/>
<rect x="28" y="26" width="3" height="1" fill="#f5b058"/>
<rect x="31" y="26" width="2" height="1" fill="#030302"/>
<rect x="33" y="26" width="3" height="1" fill="#f5b058"/>
<rect x="36" y="26" width="1" height="1" fill="#e9902e"/>
<rect x="37" y="26" width="1" height="1" fill="#030302"/>
<rect x="20" y="27" width="10" height="1" fill="#030302"/>
<rect x="30" y="27" width="2" height="1" fill="#63531e"/>
<rect x="32" y="27" width="1" height="1" fill="#030302"/>
<rect x="33" y="27" width="3" height="1" fill="#f5b058"/>
<rect x="36" y="27" width="1" height="1" fill="#030302"/>
<rect x="20" y="28" width="3" height="1" fill="#030302"/>
<rect x="23" y="28" width="4" height="1" fill="#185e02"/>
<rect x="27" y="28" width="9" height="1" fill="#030302"/>
<rect x="16" y="29" width="5" height="1" fill="#030302"/>
<rect x="21" y="29" width="2" height="1" fill="#185e02"/>
<rect x="23" y="29" width="1" height="1" fill="#2d8e01"/>
<rect x="24" y="29" width="2" height="1" fill="#185e02"/>
<rect x="26" y="29" width="1" height="1" fill="#2d8e01"/>
<rect x="27" y="29" width="1" height="1" fill="#185e02"/>
<rect x="28" y="29" width="8" height="1" fill="#030302"/>
<rect x="16" y="30" width="4" height="1" fill="#030302"/>
<rect x="20" y="30" width="2" height="1" fill="#185e02"/>
<rect x="22" y="30" width="5" height="1" fill="#2d8e01"/>
<rect x="27" y="30" width="2" height="1" fill="#185e02"/>
<rect x="29" y="30" width="7" height="1" fill="#030302"/>
<rect x="15" y="31" width="3" height="1" fill="#030302"/>
<rect x="18" y="31" width="3" height="1" fill="#185e02"/>
<rect x="21" y="31" width="5" height="1" fill="#2d8e01"/>
<rect x="26" y="31" width="3" height="1" fill="#185e02"/>
<rect x="29" y="31" width="1" height="1" fill="#2d8e01"/>
<rect x="30" y="31" width="1" height="1" fill="#185e02"/>
<rect x="31" y="31" width="7" height="1" fill="#030302"/>
<rect x="14" y="32" width="3" height="1" fill="#030302"/>
<rect x="17" y="32" width="3" height="1" fill="#185e02"/>
<rect x="20" y="32" width="5" height="1" fill="#2d8e01"/>
<rect x="25" y="32" width="4" height="1" fill="#185e02"/>
<rect x="29" y="32" width="1" height="1" fill="#2d8e01"/>
<rect x="30" y="32" width="1" height="1" fill="#185e02"/>
<rect x="31" y="32" width="7" height="1" fill="#030302"/>
<rect x="13" y="33" width="3" height="1" fill="#030302"/>
<rect x="16" y="33" width="2" height="1" fill="#185e02"/>
<rect x="18" y="33" width="7" height="1" fill="#2d8e01"/>
<rect x="25" y="33" width="1" height="1" fill="#185e02"/>
<rect x="26" y="33" width="1" height="1" fill="#030302"/>
<rect x="27" y="33" width="2" height="1" fill="#185e02"/>
<rect x="29" y="33" width="5" height="1" fill="#2d8e01"/>
<rect x="34" y="33" width="2" height="1" fill="#185e02"/>
<rect x="36" y="33" width="2" height="1" fill="#030302"/>
<rect x="12" y="34" width="1" height="1" fill="#030302"/>
<rect x="13" y="34" width="1" height="1" fill="#5d240c"/>
<rect x="14" y="34" width="4" height="1" fill="#63531e"/>
<rect x="18" y="34" width="2" height="1" fill="#185e02"/>
<rect x="20" y="34" width="2" height="1" fill="#2d8e01"/>
<rect x="22" y="34" width="4" height="1" fill="#185e02"/>
<rect x="26" y="34" width="1" height="1" fill="#030302"/>
<rect x="27" y="34" width="2" height="1" fill="#185e02"/>
<rect x="29" y="34" width="5" height="1" fill="#2d8e01"/>
<rect x="34" y="34" width="2" height="1" fill="#185e02"/>
<rect x="36" y="34" width="2" height="1" fill="#030302"/>
<rect x="11" y="35" width="1" height="1" fill="#030302"/>
<rect x="12" y="35" width="1" height="1" fill="#5d240c"/>
<rect x="13" y="35" width="1" height="1" fill="#e9902e"/>
<rect x="14" y="35" width="1" height="1" fill="#f5b058"/>
<rect x="15" y="35" width="1" height="1" fill="#030302"/>
<rect x="16" y="35" width="2" height="1" fill="#f5b058"/>
<rect x="18" y="35" width="2" height="1" fill="#030302"/>
<rect x="20" y="35" width="3" height="1" fill="#185e02"/>
<rect x="23" y="35" width="4" height="1" fill="#030302"/>
<rect x="27" y="35" width="2" height="1" fill="#185e02"/>
<rect x="29" y="35" width="5" height="1" fill="#2d8e01"/>
<rect x="34" y="35" width="2" height="1" fill="#185e02"/>
<rect x="36" y="35" width="2" height="1" fill="#030302"/>
<rect x="11" y="36" width="1" height="1" fill="#030302"/>
<rect x="12" y="36" width="1" height="1" fill="#5d240c"/>
<rect x="13" y="36" width="2" height="1" fill="#f5b058"/>
<rect x="15" y="36" width="3" height="1" fill="#fadb9e"/>
<rect x="18" y="36" width="1" height="1" fill="#030302"/>
<rect x="19" y="36" width="1" height="1" fill="#63531e"/>
<rect x="20" y="36" width="1" height="1" fill="#185e02"/>
<rect x="21" y="36" width="5" height="1" fill="#030302"/>
<rect x="26" y="36" width="3" height="1" fill="#185e02"/>
<rect x="29" y="36" width="5" height="1" fill="#2d8e01"/>
<rect x="34" y="36" width="1" height="1" fill="#185e02"/>
<rect x="35" y="36" width="3" height="1" fill="#030302"/>
<rect x="11" y="37" width="1" height="1" fill="#030302"/>
<rect x="12" y="37" width="1" height="1" fill="#5d240c"/>
<rect x="13" y="37" width="1" height="1" fill="#f5b058"/>
<rect x="14" y="37" width="4" height="1" fill="#fadb9e"/>
<rect x="18" y="37" width="1" height="1" fill="#030302"/>
<rect x="19" y="37" width="1" height="1" fill="#f5b058"/>
<rect x="20" y="37" width="6" height="1" fill="#030302"/>
<rect x="26" y="37" width="3" height="1" fill="#185e02"/>
<rect x="29" y="37" width="5" height="1" fill="#2d8e01"/>
<rect x="34" y="37" width="1" height="1" fill="#185e02"/>
<rect x="35" y="37" width="3" height="1" fill="#030302"/>
<rect x="11" y="38" width="1" height="1" fill="#030302"/>
<rect x="12" y="38" width="1" height="1" fill="#5d240c"/>
<rect x="13" y="38" width="1" height="1" fill="#f5b058"/>
<rect x="14" y="38" width="1" height="1" fill="#030302"/>
<rect x="15" y="38" width="3" height="1" fill="#fadb9e"/>
<rect x="18" y="38" width="1" height="1" fill="#030302"/>
<rect x="19" y="38" width="1" height="1" fill="#5d240c"/>
<rect x="20" y="38" width="5" height="1" fill="#030302"/>
<rect x="25" y="38" width="3" height="1" fill="#185e02"/>
<rect x="28" y="38" width="5" height="1" fill="#2d8e01"/>
<rect x="33" y="38" width="1" height="1" fill="#185e02"/>
<rect x="34" y="38" width="2" height="1" fill="#030302"/>
<rect x="11" y="39" width="1" height="1" fill="#030302"/>
<rect x="12" y="39" width="1" height="1" fill="#5d240c"/>
<rect x="13" y="39" width="1" height="1" fill="#f5b058"/>
<rect x="14" y="39" width="4" height="1" fill="#fadb9e"/>
<rect x="18" y="39" width="7" height="1" fill="#030302"/>
<rect x="25" y="39" width="3" height="1" fill="#185e02"/>
<rect x="28" y="39" width="4" height="1" fill="#2d8e01"/>
<rect x="32" y="39" width="2" height="1" fill="#185e02"/>
<rect x="34" y="39" width="2" height="1" fill="#030302"/>
<rect x="11" y="40" width="1" height="1" fill="#030302"/>
<rect x="12" y="40" width="1" height="1" fill="#5d240c"/>
<rect x="13" y="40" width="2" height="1" fill="#f5b058"/>
<rect x="15" y="40" width="1" height="1" fill="#fadb9e"/>
<rect x="16" y="40" width="1" height="1" fill="#030302"/>
<rect x="17" y="40" width="1" height="1" fill="#5d240c"/>
<rect x="18" y="40" width="5" height="1" fill="#6401a1"/>
<rect x="23" y="40" width="1" height="1" fill="#330051"/>
<rect x="24" y="40" width="3" height="1" fill="#030302"/>
<rect x="27" y="40" width="1" height="1" fill="#185e02"/>
<rect x="28" y="40" width="2" height="1" fill="#2d8e01"/>
<rect x="30" y="40" width="3" height="1" fill="#185e02"/>
<rect x="33" y="40" width="7" height="1" fill="#030302"/>
<rect x="11" y="41" width="1" height="1" fill="#030302"/>
<rect x="12" y="41" width="1" height="1" fill="#5d240c"/>
<rect x="13" y="41" width="1" height="1" fill="#e9902e"/>
<rect x="14" y="41" width="1" height="1" fill="#f5b058"/>
<rect x="15" y="41" width="1" height="1" fill="#fadb9e"/>
<rect x="16" y="41" width="1" height="1" fill="#030302"/>
<rect x="17" y="41" width="1" height="1" fill="#330051"/>
<rect x="18" y="41" width="1" height="1" fill="#030302"/>
<rect x="19" y="41" width="3" height="1" fill="#8800d4"/>
<rect x="22" y="41" width="1" height="1" fill="#6401a1"/>
<rect x="23" y="41" width="1" height="1" fill="#4a0072"/>
<rect x="24" y="41" width="3" height="1" fill="#030302"/>
<rect x="27" y="41" width="1" height="1" fill="#185e02"/>
<rect x="28" y="41" width="2" height="1" fill="#2d8e01"/>
<rect x="30" y="41" width="2" height="1" fill="#185e02"/>
<rect x="32" y="41" width="8" height="1" fill="#030302"/>
<rect x="13" y="42" width="3" height="1" fill="#030302"/>
<rect x="16" y="42" width="2" height="1" fill="#6401a1"/>
<rect x="18" y="42" width="7" height="1" fill="#8800d4"/>
<rect x="25" y="42" width="1" height="1" fill="#6401a1"/>
<rect x="26" y="42" width="1" height="1" fill="#4a0072"/>
<rect x="27" y="42" width="1" height="1" fill="#030302"/>
<rect x="28" y="42" width="3" height="1" fill="#185e02"/>
<rect x="31" y="42" width="3" height="1" fill="#030302"/>
<rect x="34" y="42" width="1" height="1" fill="#330051"/>
<rect x="35" y="42" width="1" height="1" fill="#4a0072"/>
<rect x="36" y="42" width="2" height="1" fill="#6401a1"/>
<rect x="38" y="42" width="1" height="1" fill="#030302"/>
<rect x="39" y="42" width="1" height="1" fill="#6401a1"/>
<rect x="40" y="42" width="1" height="1" fill="#030302"/>
<rect x="13" y="43" width="3" height="1" fill="#030302"/>
<rect x="16" y="43" width="1" height="1" fill="#4a0072"/>
<rect x="17" y="43" width="1" height="1" fill="#6401a1"/>
<rect x="18" y="43" width="1" height="1" fill="#030302"/>
<rect x="19" y="43" width="6" height="1" fill="#8800d4"/>
<rect x="25" y="43" width="2" height="1" fill="#6401a1"/>
<rect x="27" y="43" width="2" height="1" fill="#030302"/>
<rect x="29" y="43" width="2" height="1" fill="#185e02"/>
<rect x="31" y="43" width="3" height="1" fill="#030302"/>
<rect x="34" y="43" width="1" height="1" fill="#330051"/>
<rect x="35" y="43" width="3" height="1" fill="#4a0072"/>
<rect x="38" y="43" width="2" height="1" fill="#6401a1"/>
<rect x="40" y="43" width="2" height="1" fill="#030302"/>
<rect x="14" y="44" width="2" height="1" fill="#030302"/>
<rect x="16" y="44" width="1" height="1" fill="#4a0072"/>
<rect x="17" y="44" width="1" height="1" fill="#6401a1"/>
<rect x="18" y="44" width="9" height="1" fill="#8800d4"/>
<rect x="27" y="44" width="5" height="1" fill="#030302"/>
<rect x="32" y="44" width="1" height="1" fill="#330051"/>
<rect x="33" y="44" width="1" height="1" fill="#6401a1"/>
<rect x="34" y="44" width="2" height="1" fill="#4a0072"/>
<rect x="36" y="44" width="2" height="1" fill="#030302"/>
<rect x="38" y="44" width="2" height="1" fill="#6401a1"/>
<rect x="40" y="44" width="1" height="1" fill="#030302"/>
<rect x="41" y="44" width="1" height="1" fill="#330051"/>
<rect x="42" y="44" width="1" height="1" fill="#030302"/>
<rect x="14" y="45" width="2" height="1" fill="#030302"/>
<rect x="16" y="45" width="1" height="1" fill="#4a0072"/>
<rect x="17" y="45" width="2" height="1" fill="#6401a1"/>
<rect x="19" y="45" width="1" height="1" fill="#030302"/>
<rect x="20" y="45" width="5" height="1" fill="#8800d4"/>
<rect x="25" y="45" width="2" height="1" fill="#6401a1"/>
<rect x="27" y="45" width="5" height="1" fill="#030302"/>
<rect x="32" y="45" width="1" height="1" fill="#330051"/>
<rect x="33" y="45" width="1" height="1" fill="#6401a1"/>
<rect x="34" y="45" width="1" height="1" fill="#330051"/>
<rect x="35" y="45" width="2" height="1" fill="#030302"/>
<rect x="37" y="45" width="1" height="1" fill="#330051"/>
<rect x="38" y="45" width="3" height="1" fill="#6401a1"/>
<rect x="41" y="45" width="1" height="1" fill="#330051"/>
<rect x="42" y="45" width="1" height="1" fill="#030302"/>
<rect x="14" y="46" width="2" height="1" fill="#030302"/>
<rect x="16" y="46" width="1" height="1" fill="#330051"/>
<rect x="17" y="46" width="3" height="1" fill="#6401a1"/>
<rect x="20" y="46" width="5" height="1" fill="#8800d4"/>
<rect x="25" y="46" width="2" height="1" fill="#6401a1"/>
<rect x="27" y="46" width="5" height="1" fill="#030302"/>
<rect x="32" y="46" width="1" height="1" fill="#330051"/>
<rect x="33" y="46" width="1" height="1" fill="#6401a1"/>
<rect x="34" y="46" width="2" height="1" fill="#030302"/>
<rect x="36" y="46" width="5" height="1" fill="#6401a1"/>
<rect x="41" y="46" width="1" height="1" fill="#330051"/>
<rect x="42" y="46" width="1" height="1" fill="#030302"/>
<rect x="14" y="47" width="4" height="1" fill="#030302"/>
<rect x="18" y="47" width="4" height="1" fill="#6401a1"/>
<rect x="22" y="47" width="1" height="1" fill="#8800d4"/>
<rect x="23" y="47" width="1" height="1" fill="#030302"/>
<rect x="24" y="47" width="2" height="1" fill="#6401a1"/>
<rect x="26" y="47" width="1" height="1" fill="#4a0072"/>
<rect x="27" y="47" width="5" height="1" fill="#030302"/>
<rect x="32" y="47" width="1" height="1" fill="#330051"/>
<rect x="33" y="47" width="1" height="1" fill="#6401a1"/>
<rect x="34" y="47" width="2" height="1" fill="#030302"/>
<rect x="36" y="47" width="1" height="1" fill="#4a0072"/>
<rect x="37" y="47" width="4" height="1" fill="#6401a1"/>
<rect x="41" y="47" width="1" height="1" fill="#330051"/>
<rect x="42" y="47" width="1" height="1" fill="#030302"/>
<rect x="14" y="48" width="4" height="1" fill="#030302"/>
<rect x="18" y="48" width="4" height="1" fill="#6401a1"/>
<rect x="22" y="48" width="1" height="1" fill="#8800d4"/>
<rect x="23" y="48" width="2" height="1" fill="#6401a1"/>
<rect x="25" y="48" width="1" height="1" fill="#4a0072"/>
<rect x="26" y="48" width="1" height="1" fill="#330051"/>
<rect x="27" y="48" width="5" height="1" fill="#030302"/>
<rect x="32" y="48" width="1" height="1" fill="#330051"/>
<rect x="33" y="48" width="1" height="1" fill="#4a0072"/>
<rect x="34" y="48" width="2" height="1" fill="#030302"/>
<rect x="36" y="48" width="1" height="1" fill="#4a0072"/>
<rect x="37" y="48" width="4" height="1" fill="#6401a1"/>
<rect x="41" y="48" width="1" height="1" fill="#330051"/>
<rect x="42" y="48" width="1" height="1" fill="#030302"/>
<rect x="13" y="49" width="1" height="1" fill="#030302"/>
<rect x="14" y="49" width="1" height="1" fill="#5d240c"/>
<rect x="15" y="49" width="1" height="1" fill="#df046c"/>
<rect x="16" y="49" width="2" height="1" fill="#030302"/>
<rect x="18" y="49" width="2" height="1" fill="#4a0072"/>
<rect x="20" y="49" width="5" height="1" fill="#6401a1"/>
<rect x="25" y="49" width="6" height="1" fill="#030302"/>
<rect x="32" y="49" width="2" height="1" fill="#030302"/>
<rect x="34" y="49" width="2" height="1" fill="#330051"/>
<rect x="36" y="49" width="3" height="1" fill="#4a0072"/>
<rect x="39" y="49" width="1" height="1" fill="#330051"/>
<rect x="40" y="49" width="2" height="1" fill="#030302"/>
<rect x="13" y="50" width="1" height="1" fill="#030302"/>
<rect x="14" y="50" width="1" height="1" fill="#5d240c"/>
<rect x="15" y="50" width="1" height="1" fill="#030302"/>
<rect x="16" y="50" width="1" height="1" fill="#5d240c"/>
<rect x="17" y="50" width="1" height="1" fill="#030302"/>
<rect x="18" y="50" width="2" height="1" fill="#330051"/>
<rect x="20" y="50" width="4" height="1" fill="#4a0072"/>
<rect x="24" y="50" width="1" height="1" fill="#330051"/>
<rect x="25" y="50" width="6" height="1" fill="#030302"/>
<rect x="33" y="50" width="1" height="1" fill="#030302"/>
<rect x="34" y="50" width="3" height="1" fill="#330051"/>
<rect x="37" y="50" width="2" height="1" fill="#4a0072"/>
<rect x="39" y="50" width="2" height="1" fill="#030302"/>
<rect x="13" y="51" width="1" height="1" fill="#030302"/>
<rect x="14" y="51" width="1" height="1" fill="#5d240c"/>
<rect x="15" y="51" width="3" height="1" fill="#df046c"/>
<rect x="18" y="51" width="8" height="1" fill="#030302"/>
<rect x="26" y="51" width="2" height="1" fill="#df046c"/>
<rect x="28" y="51" width="3" height="1" fill="#030302"/>
<rect x="34" y="51" width="6" height="1" fill="#030302"/>
<rect x="13" y="52" width="1" height="1" fill="#030302"/>
<rect x="14" y="52" width="1" height="1" fill="#5d240c"/>
<rect x="15" y="52" width="3" height="1" fill="#df046c"/>
<rect x="18" y="52" width="7" height="1" fill="#5d240c"/>
<rect x="25" y="52" width="1" height="1" fill="#030302"/>
<rect x="26" y="52" width="3" height="1" fill="#df046c"/>
<rect x="29" y="52" width="2" height="1" fill="#5d240c"/>
<rect x="34" y="52" width="5" height="1" fill="#030302"/>
<rect x="13" y="53" width="1" height="1" fill="#030302"/>
<rect x="14" y="53" width="1" height="1" fill="#5d240c"/>
<rect x="15" y="53" width="3" height="1" fill="#df046c"/>
<rect x="18" y="53" width="15" height="1" fill="#030302"/>
<rect x="4" y="54" width="5" height="1" fill="#030302"/>
<rect x="13" y="54" width="2" height="1" fill="#030302"/>
<rect x="15" y="54" width="1" height="1" fill="#5d240c"/>
<rect x="16" y="54" width="1" height="1" fill="#030302"/>
<rect x="17" y="54" width="5" height="1" fill="#df046c"/>
<rect x="22" y="54" width="6" height="1" fill="#030302"/>
<rect x="28" y="54" width="2" height="1" fill="#df046c"/>
<rect x="30" y="54" width="3" height="1" fill="#030302"/>
<rect x="4" y="55" width="5" height="1" fill="#030302"/>
<rect x="13" y="55" width="4" height="1" fill="#030302"/>
<rect x="17" y="55" width="5" height="1" fill="#df046c"/>
<rect x="22" y="55" width="6" height="1" fill="#030302"/>
<rect x="28" y="55" width="2" height="1" fill="#df046c"/>
<rect x="30" y="55" width="3" height="1" fill="#030302"/>
<rect x="2" y="56" width="10" height="1" fill="#030302"/>
<rect x="12" y="56" width="1" height="1" fill="#5d240c"/>
<rect x="13" y="56" width="3" height="1" fill="#a35208"/>
<rect x="16" y="56" width="1" height="1" fill="#5d240c"/>
<rect x="17" y="56" width="3" height="1" fill="#030302"/>
<rect x="20" y="56" width="4" height="1" fill="#df046c"/>
<rect x="24" y="56" width="1" height="1" fill="#030302"/>
<rect x="25" y="56" width="2" height="1" fill="#df046c"/>
<rect x="27" y="56" width="2" height="1" fill="#5d240c"/>
<rect x="29" y="56" width="1" height="1" fill="#030302"/>
<rect x="30" y="56" width="1" height="1" fill="#5d240c"/>
<rect x="31" y="56" width="1" height="1" fill="#030302"/>
<rect x="32" y="56" width="1" height="1" fill="#63531e"/>
<rect x="33" y="56" width="1" height="1" fill="#030302"/>
<rect x="2" y="57" width="10" height="1" fill="#030302"/>
<rect x="12" y="57" width="1" height="1" fill="#5d240c"/>
<rect x="13" y="57" width="1" height="1" fill="#e9902e"/>
<rect x="14" y="57" width="1" height="1" fill="#f5b058"/>
<rect x="15" y="57" width="1" height="1" fill="#e9902e"/>
<rect x="16" y="57" width="1" height="1" fill="#5d240c"/>
<rect x="17" y="57" width="4" height="1" fill="#030302"/>
<rect x="21" y="57" width="6" height="1" fill="#df046c"/>
<rect x="27" y="57" width="3" height="1" fill="#030302"/>
<rect x="30" y="57" width="1" height="1" fill="#63531e"/>
<rect x="31" y="57" width="1" height="1" fill="#fadb9e"/>
<rect x="32" y="57" width="1" height="1" fill="#a35208"/>
<rect x="33" y="57" width="1" height="1" fill="#030302"/>
<rect x="2" y="58" width="2" height="1" fill="#030302"/>
<rect x="4" y="58" width="1" height="1" fill="#ecebe9"/>
<rect x="5" y="58" width="2" height="1" fill="#030302"/>
<rect x="7" y="58" width="1" height="1" fill="#185e02"/>
<rect x="8" y="58" width="3" height="1" fill="#030302"/>
<rect x="11" y="58" width="4" height="1" fill="#f5b058"/>
<rect x="15" y="58" width="2" height="1" fill="#e9902e"/>
<rect x="17" y="58" width="1" height="1" fill="#cc6905"/>
<rect x="18" y="58" width="4" height="1" fill="#030302"/>
<rect x="22" y="58" width="3" height="1" fill="#df046c"/>
<rect x="25" y="58" width="1" height="1" fill="#5d240c"/>
<rect x="26" y="58" width="1" height="1" fill="#030302"/>
<rect x="27" y="58" width="1" height="1" fill="#a35208"/>
<rect x="28" y="58" width="1" height="1" fill="#cc6905"/>
<rect x="29" y="58" width="2" height="1" fill="#f5b058"/>
<rect x="31" y="58" width="1" height="1" fill="#fadb9e"/>
<rect x="32" y="58" width="2" height="1" fill="#f5b058"/>
<rect x="34" y="58" width="1" height="1" fill="#5d240c"/>
<rect x="35" y="58" width="1" height="1" fill="#030302"/>
<rect x="2" y="59" width="2" height="1" fill="#030302"/>
<rect x="4" y="59" width="3" height="1" fill="#ecebe9"/>
<rect x="7" y="59" width="1" height="1" fill="#185e02"/>
<rect x="8" y="59" width="2" height="1" fill="#030302"/>
<rect x="10" y="59" width="1" height="1" fill="#185e02"/>
<rect x="11" y="59" width="4" height="1" fill="#f5b058"/>
<rect x="15" y="59" width="1" height="1" fill="#e9902e"/>
<rect x="16" y="59" width="1" height="1" fill="#f5b058"/>
<rect x="17" y="59" width="1" height="1" fill="#e9902e"/>
<rect x="18" y="59" width="1" height="1" fill="#5d240c"/>
<rect x="19" y="59" width="1" height="1" fill="#030302"/>
<rect x="20" y="59" width="2" height="1" fill="#5d240c"/>
<rect x="22" y="59" width="3" height="1" fill="#030302"/>
<rect x="25" y="59" width="1" height="1" fill="#5d240c"/>
<rect x="26" y="59" width="1" height="1" fill="#030302"/>
<rect x="27" y="59" width="1" height="1" fill="#e9902e"/>
<rect x="28" y="59" width="2" height="1" fill="#f5b058"/>
<rect x="30" y="59" width="3" height="1" fill="#fadb9e"/>
<rect x="33" y="59" width="1" height="1" fill="#030302"/>
<rect x="34" y="59" width="1" height="1" fill="#5d240c"/>
<rect x="35" y="59" width="1" height="1" fill="#030302"/>
<rect x="0" y="60" width="3" height="1" fill="#030302"/>
<rect x="3" y="60" width="3" height="1" fill="#ecebe9"/>
<rect x="6" y="60" width="1" height="1" fill="#030302"/>
<rect x="7" y="60" width="1" height="1" fill="#63531e"/>
<rect x="8" y="60" width="3" height="1" fill="#185e02"/>
<rect x="11" y="60" width="6" height="1" fill="#f5b058"/>
<rect x="17" y="60" width="2" height="1" fill="#e9902e"/>
<rect x="19" y="60" width="1" height="1" fill="#cc6905"/>
<rect x="20" y="60" width="5" height="1" fill="#030302"/>
<rect x="25" y="60" width="1" height="1" fill="#a35208"/>
<rect x="26" y="60" width="1" height="1" fill="#e9902e"/>
<rect x="27" y="60" width="2" height="1" fill="#f5b058"/>
<rect x="29" y="60" width="4" height="1" fill="#fadb9e"/>
<rect x="33" y="60" width="1" height="1" fill="#ecebe9"/>
<rect x="34" y="60" width="1" height="1" fill="#63531e"/>
<rect x="35" y="60" width="1" height="1" fill="#030302"/>
<rect x="0" y="61" width="2" height="1" fill="#030302"/>
<rect x="2" y="61" width="5" height="1" fill="#ecebe9"/>
<rect x="7" y="61" width="1" height="1" fill="#63531e"/>
<rect x="8" y="61" width="3" height="1" fill="#185e02"/>
<rect x="11" y="61" width="1" height="1" fill="#030302"/>
<rect x="12" y="61" width="5" height="1" fill="#f5b058"/>
<rect x="17" y="61" width="1" height="1" fill="#e9902e"/>
<rect x="18" y="61" width="2" height="1" fill="#a35208"/>
<rect x="20" y="61" width="5" height="1" fill="#030302"/>
<rect x="25" y="61" width="1" height="1" fill="#5d240c"/>
<rect x="26" y="61" width="1" height="1" fill="#a35208"/>
<rect x="27" y="61" width="2" height="1" fill="#f5b058"/>
<rect x="29" y="61" width="4" height="1" fill="#fadb9e"/>
<rect x="33" y="61" width="1" height="1" fill="#030302"/>
<rect x="34" y="61" width="1" height="1" fill="#185e02"/>
<rect x="35" y="61" width="2" height="1" fill="#030302"/>
<rect x="0" y="62" width="2" height="1" fill="#030302"/>
<rect x="2" y="62" width="5" height="1" fill="#ecebe9"/>
<rect x="7" y="62" width="1" height="1" fill="#030302"/>
<rect x="8" y="62" width="4" height="1" fill="#185e02"/>
<rect x="12" y="62" width="1" height="1" fill="#63531e"/>
<rect x="13" y="62" width="1" height="1" fill="#e9902e"/>
<rect x="14" y="62" width="1" height="1" fill="#f5b058"/>
<rect x="15" y="62" width="3" height="1" fill="#e9902e"/>
<rect x="18" y="62" width="2" height="1" fill="#030302"/>
<rect x="25" y="62" width="2" height="1" fill="#030302"/>
<rect x="27" y="62" width="1" height="1" fill="#cc6905"/>
<rect x="28" y="62" width="2" height="1" fill="#f5b058"/>
<rect x="30" y="62" width="1" height="1" fill="#030302"/>
<rect x="31" y="62" width="1" height="1" fill="#ecebe9"/>
<rect x="32" y="62" width="2" height="1" fill="#030302"/>
<rect x="34" y="62" width="1" height="1" fill="#185e02"/>
<rect x="35" y="62" width="1" height="1" fill="#2d8e01"/>
<rect x="36" y="62" width="2" height="1" fill="#030302"/>
<rect x="0" y="63" width="2" height="1" fill="#030302"/>
<rect x="2" y="63" width="5" height="1" fill="#ecebe9"/>
<rect x="7" y="63" width="1" height="1" fill="#185e02"/>
<rect x="8" y="63" width="5" height="1" fill="#030302"/>
<rect x="13" y="63" width="3" height="1" fill="#63531e"/>
<rect x="16" y="63" width="1" height="1" fill="#5d240c"/>
<rect x="17" y="63" width="1" height="1" fill="#63531e"/>
<rect x="18" y="63" width="1" height="1" fill="#030302"/>
<rect x="26" y="63" width="1" height="1" fill="#030302"/>
<rect x="27" y="63" width="1" height="1" fill="#5d240c"/>
<rect x="28" y="63" width="1" height="1" fill="#a35208"/>
<rect x="29" y="63" width="2" height="1" fill="#f5b058"/>
<rect x="31" y="63" width="2" height="1" fill="#030302"/>
<rect x="33" y="63" width="2" height="1" fill="#185e02"/>
<rect x="35" y="63" width="1" height="1" fill="#2d8e01"/>
<rect x="36" y="63" width="2" height="1" fill="#030302"/>
<rect x="0" y="64" width="2" height="1" fill="#030302"/>
<rect x="2" y="64" width="4" height="1" fill="#ecebe9"/>
<rect x="6" y="64" width="12" height="1" fill="#030302"/>
<rect x="27" y="64" width="2" height="1" fill="#030302"/>
<rect x="29" y="64" width="1" height="1" fill="#e9902e"/>
<rect x="30" y="64" width="1" height="1" fill="#a35208"/>
<rect x="31" y="64" width="1" height="1" fill="#030302"/>
<rect x="32" y="64" width="1" height="1" fill="#185e02"/>
<rect x="33" y="64" width="3" height="1" fill="#2d8e01"/>
<rect x="36" y="64" width="2" height="1" fill="#030302"/>
<rect x="0" y="65" width="2" height="1" fill="#030302"/>
<rect x="2" y="65" width="3" height="1" fill="#ecebe9"/>
<rect x="5" y="65" width="3" height="1" fill="#030302"/>
<rect x="27" y="65" width="3" height="1" fill="#030302"/>
<rect x="30" y="65" width="4" height="1" fill="#185e02"/>
<rect x="34" y="65" width="9" height="1" fill="#030302"/>
<rect x="0" y="66" width="2" height="1" fill="#030302"/>
<rect x="2" y="66" width="2" height="1" fill="#ecebe9"/>
<rect x="4" y="66" width="3" height="1" fill="#030302"/>
<rect x="27" y="66" width="4" height="1" fill="#030302"/>
<rect x="31" y="66" width="3" height="1" fill="#185e02"/>
<rect x="34" y="66" width="9" height="1" fill="#030302"/>
<rect x="2" y="67" width="4" height="1" fill="#030302"/>
<rect x="29" y="67" width="7" height="1" fill="#030302"/>
<rect x="36" y="67" width="7" height="1" fill="#ecebe9"/>
<rect x="43" y="67" width="2" height="1" fill="#030302"/>
<rect x="2" y="68" width="3" height="1" fill="#030302"/>
<rect x="29" y="68" width="6" height="1" fill="#030302"/>
<rect x="35" y="68" width="8" height="1" fill="#ecebe9"/>
<rect x="43" y="68" width="2" height="1" fill="#030302"/>
<rect x="29" y="69" width="5" height="1" fill="#030302"/>
<rect x="34" y="69" width="9" height="1" fill="#ecebe9"/>
<rect x="43" y="69" width="2" height="1" fill="#030302"/>
<rect x="29" y="70" width="4" height="1" fill="#030302"/>
<rect x="33" y="70" width="9" height="1" fill="#ecebe9"/>
<rect x="42" y="70" width="3" height="1" fill="#030302"/>
<rect x="29" y="71" width="2" height="1" fill="#030302"/>
<rect x="31" y="71" width="9" height="1" fill="#ecebe9"/>
<rect x="40" y="71" width="3" height="1" fill="#030302"/>
<rect x="30" y="72" width="3" height="1" fill="#030302"/>
<rect x="33" y="72" width="4" height="1" fill="#ecebe9"/>
<rect x="37" y="72" width="6" height="1" fill="#030302"/>
<rect x="31" y="73" width="11" height="1" fill="#030302"/>
<rect x="32" y="74" width="6" height="1" fill="#030302"/>
<rect x="32" y="75" width="6" height="1" fill="#030302"/>
</svg>
